<svg viewBox="0 0 126.51 32.01" xmlns="http://www.w3.org/2000/svg"><path d="m0 11.26h6.08v2.74h.07a6.73 6.73 0 0 1 6-3.26c2.85 0 5.25 1.19 6.3 3.63a6.66 6.66 0 0 1 6.45-3.63c5.55 0 7.28 3.85 7.28 8.82v12h-6.3v-11.86c0-1.85-.75-3.48-2.77-3.48-2.93 0-3.83 2.08-3.83 4.52v10.74h-6.28v-10.67c0-1.48.07-4.51-2.85-4.51-3.3 0-3.83 2.51-3.83 5.18v10.08h-6.32z" fill="#f06923"/><g fill="#fff"><path d="m36.83 0h6.3v13.41h.1c1.43-1.93 3.9-2.67 6.45-2.67 5.78 0 9.38 5.19 9.38 10.82 0 6.14-4 10.44-10 10.44a8 8 0 0 1 -6.3-3.19h-.08v2.67h-5.85zm10.88 26.52a4.72 4.72 0 0 0 5-5.11 4.73 4.73 0 0 0 -4.33-5.1 5 5 0 0 0 -.67 0 4.73 4.73 0 0 0 -5 4.44 5 5 0 0 0 0 .67 4.69 4.69 0 0 0 4.29 5.09 4.57 4.57 0 0 0 .71.01z"/><path d="m75.23 29h-.07a7.43 7.43 0 0 1 -6.45 3c-3.83 0-7.28-2.15-7.28-6.22 0-7 8.63-7.11 13.88-7.11a3.74 3.74 0 0 0 -3.81-3.67h-.27a6.65 6.65 0 0 0 -5.18 2.44l-3.37-3.44a13.49 13.49 0 0 1 9-3.26c7.35 0 9.37 3.71 9.37 10.45v10.3h-5.82zm-1.57-6.37c-2 0-6.23.15-6.23 2.89 0 1.48 1.57 2.22 3 2.22 2.48 0 4.8-1.26 4.8-3.77v-1.38z"/><path d="m84.6 11.26h6.08v2.74h.07a6.73 6.73 0 0 1 6-3.26c6.38 0 7.58 4.15 7.58 9.63v11.19h-6.33v-10c0-2.37-.07-5.34-3.3-5.34s-3.82 2.52-3.82 5.19v10.07h-6.3z"/><path d="m122.23 17.78a3.81 3.81 0 0 0 -3.14-1.56 4.72 4.72 0 0 0 -5 5.11 4.74 4.74 0 0 0 4.35 5.1 4.68 4.68 0 0 0 .65 0 4.18 4.18 0 0 0 3.14-1.55l4.21 4.37a10.33 10.33 0 0 1 -7.21 2.75c-6.3 0-11.4-4.15-11.4-10.67s5-10.66 11.4-10.66a10.32 10.32 0 0 1 7.28 2.74z"/></g></svg>