<svg viewBox="0 0 126.45 32" xmlns="http://www.w3.org/2000/svg"><g transform="translate(-4.77)"><path d="m4.77 11.26h6.08v2.74h.07a6.73 6.73 0 0 1 6-3.26c2.85 0 5.25 1.19 6.3 3.63a6.66 6.66 0 0 1 6.45-3.63c5.55 0 7.28 3.85 7.28 8.82v12h-6.3v-11.86c0-1.85-.75-3.48-2.77-3.48-2.93 0-3.83 2.08-3.83 4.52v10.74h-6.3v-10.67c0-1.48.07-4.51-2.85-4.51-3.3 0-3.83 2.51-3.83 5.18v10.08h-6.3z" fill="#f06923"/><g fill="#134678"><path d="m41.6 0h6.3v13.41h.1c1.43-1.93 3.9-2.67 6.45-2.67 5.78 0 9.38 5.19 9.38 10.82 0 6.14-4 10.44-10 10.44a8 8 0 0 1 -6.3-3.19h-.08v2.67h-5.85zm10.88 26.52a4.74 4.74 0 0 0 5-5.11 4.73 4.73 0 0 0 -5-5.11 4.73 4.73 0 0 0 -5 5.11 4.7 4.7 0 0 0 5 5.11z"/><path d="m80 29h-.07a7.45 7.45 0 0 1 -6.45 3c-3.83 0-7.28-2.15-7.28-6.22 0-7 8.63-7.11 13.88-7.11a3.75 3.75 0 0 0 -4.08-3.67 6.67 6.67 0 0 0 -5.18 2.44l-3.37-3.41a13.46 13.46 0 0 1 9-3.26c7.35 0 9.37 3.71 9.37 10.45v10.3h-5.82zm-1.57-6.37c-2 0-6.23.15-6.23 2.89 0 1.48 1.57 2.22 3 2.22 2.48 0 4.8-1.26 4.8-3.77v-1.38z"/><path d="m89.37 11.26h6.08v2.74h.07a6.73 6.73 0 0 1 6-3.26c6.38 0 7.58 4.15 7.58 9.63v11.19h-6.3v-10c0-2.37-.07-5.34-3.3-5.34s-3.82 2.52-3.82 5.19v10.07h-6.3z"/><path d="m127 17.78a3.82 3.82 0 0 0 -3.14-1.56 4.74 4.74 0 0 0 -5 5.11 4.74 4.74 0 0 0 5 5.11 4.18 4.18 0 0 0 3.14-1.55l4.21 4.37a10.32 10.32 0 0 1 -7.21 2.74c-6.3 0-11.4-4.15-11.4-10.67s5-10.66 11.4-10.66a10.31 10.31 0 0 1 7.28 2.74z"/></g></g></svg>