<?xml version="1.0" encoding="utf-8"?>
<!-- Generator: Adobe Illustrator 25.4.1, SVG Export Plug-In . SVG Version: 6.00 Build 0)  -->
<svg version="1.1" id="Layer_1" xmlns="http://www.w3.org/2000/svg" xmlns:xlink="http://www.w3.org/1999/xlink" x="0px" y="0px"
	 viewBox="0 0 471.1 40" style="enable-background:new 0 0 471.1 40;" xml:space="preserve">
<style type="text/css">
	.st0{fill:#005D9E;}
</style>
<polygon class="st0" points="197.4,2.5 192.6,19.3 192.5,19.3 187.8,2.5 173.8,2.5 173.8,6.6 176.6,7.3 176.6,26.7 173.8,27.4 
	173.8,31.5 184.5,31.5 184.5,27.4 182.1,26.8 182.1,9.6 182.2,9.6 188.6,31.2 194.2,31.2 200.5,9.4 200.7,9.4 200.7,26.8 
	198.2,27.4 198.2,31.5 211.9,31.5 211.9,27.4 208.9,26.7 208.9,7.3 211.9,6.6 211.9,2.5 "/>
<path class="st0" d="M212,20.5c0-7.7,5.1-11.8,11.5-11.8c7.4,0,11.6,4.2,11.6,11.5c0,7.7-5.1,11.8-11.5,11.8
	C216.1,32,212,27.5,212,20.5 M227,20.5c0-5.8-1.4-7.2-3.5-7.2s-3.4,1.3-3.4,6.9s1.4,7.2,3.6,7.2S227,26,227,20.5"/>
<path class="st0" d="M80,20.5c0-7.7,5.1-11.8,11.5-11.8c7.4,0,11.6,4.2,11.6,11.5c0,7.7-5.1,11.8-11.5,11.8C84.1,32,80,27.5,80,20.5
	 M95,20.5c0-5.8-1.4-7.2-3.5-7.2S88,14.6,88,20.2s1.4,7.2,3.5,7.2S95,26,95,20.5"/>
<path class="st0" d="M236.2,27.7l2.4-0.6V14.2l-2.5-0.7V9.7l9.2-0.9L246,9v3.3h0.3c1.1-2.1,3.2-3.5,5.6-3.6c0.4,0,0.8,0.1,1.2,0.1
	v6.8c-0.7-0.1-1.3-0.2-2-0.2c-1.6-0.1-3.2,0.2-4.7,0.8v10.8l3.1,0.6v3.8h-13.1V27.7z"/>
<path class="st0" d="M269.9,34.9c0-2.5,2.2-3.8,4.7-4.5v-0.2c-1.7-0.3-3-1.8-2.9-3.6c0-1.8,1.4-3.5,3.2-4.7
	c-2.1-1.1-3.5-3.3-3.4-5.6c0-4.9,4-7.5,9.8-7.5c1.6,0,3.2,0.2,4.8,0.7l7.2-1v4.5l-3-0.1c0.6,0.9,1,1.9,1,3c0,4.9-3.9,7.5-9.8,7.5
	c-1,0-2.1-0.1-3.1-0.3c-0.3,0.3-0.5,0.8-0.5,1.2c0,0.5,0.4,1.1,1.5,1.1h7.2c3.8,0,6.9,1.7,6.9,6.1c0,4.6-3.8,8.6-12.9,8.6
	C273.4,40,270,37.9,269.9,34.9 M286.4,33.2c0-1.2-0.7-1.6-2.6-1.6h-5.3c-0.9,0.3-1.4,1.1-1.5,2c0,1.2,1.1,2.1,4.1,2.1
	C285,35.7,286.4,34.5,286.4,33.2 M284,16.1c0-2.9-1.2-3.6-2.7-3.6s-2.5,0.8-2.5,3.4s1.1,3.7,2.6,3.7S284,18.7,284,16.1"/>
<path class="st0" d="M294,25.9c0-4.4,3.1-5.8,8.1-6.7l3.9-0.8v-1.1c0-2.3-0.8-3.1-4.2-3.1c-1.9,0-3.8,0.1-5.7,0.4v-4.4
	c3-1,6.2-1.5,9.4-1.6c5.6,0,8.2,2.3,8.2,7.3v10c0,1,0.7,1.3,1.5,1.3h0.7V31c-1.4,0.7-2.9,1-4.5,1c-2.4,0-3.9-0.8-4.5-2.6h-0.2
	c-1.5,1.8-3.7,2.7-6,2.6C296.6,32,294,29.5,294,25.9 M306,26.8v-4.8l-2,0.1c-1.7,0.1-2.4,1-2.4,2.8s0.7,2.8,2.2,2.8
	C304.6,27.5,305.4,27.3,306,26.8"/>
<path class="st0" d="M315.2,34.9c0-2.5,2.2-3.8,4.7-4.5v-0.2c-1.7-0.3-3-1.8-2.9-3.6c0-1.8,1.4-3.5,3.2-4.7
	c-2.1-1.1-3.4-3.3-3.4-5.6c0-4.9,4-7.5,9.8-7.5c1.6,0,3.2,0.2,4.7,0.7l7.1-1v4.5l-3-0.1c0.6,0.9,1,1.9,1,3c0,4.9-3.9,7.5-9.8,7.5
	c-1,0-2.1-0.1-3.1-0.3c-0.3,0.3-0.5,0.8-0.5,1.2c0,0.5,0.4,1.1,1.5,1.1h7.2c3.9,0,6.9,1.7,6.9,6.1c0,4.6-3.8,8.6-12.9,8.6
	C318.8,40,315.3,37.9,315.2,34.9 M331.7,33.2c0-1.2-0.7-1.6-2.6-1.6h-5.3c-0.9,0.3-1.5,1.1-1.5,2c0,1.2,1.1,2.1,4.1,2.1
	C330.3,35.7,331.7,34.5,331.7,33.2 M329.3,16c0-2.9-1.2-3.6-2.7-3.6s-2.6,0.8-2.6,3.4s1.1,3.7,2.6,3.7S329.3,18.7,329.3,16"/>
<path class="st0" d="M338.3,20.3c0-7.3,4.5-11.6,11.3-11.6s10.1,3.4,10.1,12.8h-13.4c0.4,3.9,2.5,5.3,6.1,5.3c2.2,0,4.3-0.3,6.4-1v4
	c-2.5,1.6-5.5,2.3-8.5,2.2c-7.8,0-11.9-4.2-11.9-11.8 M352.4,17.7c0-3.5-1.2-4.5-2.8-4.5s-3,1.1-3.3,4.8L352.4,17.7z"/>
<polygon class="st0" points="365.9,27.4 368.8,26.7 368.8,7.3 365.9,6.6 365.9,2.5 377.8,2.5 387.2,18.9 387.4,18.9 387.4,7.3 
	384.5,6.6 384.5,2.5 395.4,2.5 395.4,6.6 392.9,7.3 392.9,31.5 385.4,31.5 374.5,12.2 374.3,12.2 374.3,26.8 377.3,27.4 377.3,31.5 
	365.9,31.5 "/>
<path class="st0" d="M395,20.3c0-7.3,4.5-11.6,11.3-11.6s10.2,3.4,10.2,12.8H403c0.4,3.9,2.5,5.3,6.1,5.3c2.2,0,4.3-0.3,6.4-1v4
	c-2.5,1.6-5.5,2.3-8.5,2.2C399.2,32,395.1,27.8,395,20.3 M409.1,17.7c0-3.5-1.2-4.5-2.8-4.5s-3,1.1-3.3,4.8L409.1,17.7z"/>
<polygon class="st0" points="418.5,13.5 416.8,13 416.8,9.1 428,9.1 428,13 426.1,13.5 428.5,22.5 428.7,22.5 432.6,9.1 437.9,9.1 
	441.9,22.5 442,22.5 444.3,13.5 442.5,13 442.5,9.1 451.7,9.1 451.7,13 450,13.5 444.6,31.5 438,31.5 434.4,18.9 434.3,18.9 
	430.5,31.5 423.9,31.5 "/>
<path class="st0" d="M452.8,30.6l-0.4-6.1h4.7l0.8,2.5c0.9,0.5,1.9,0.7,2.9,0.7c1.8,0,2.9-0.7,2.9-2s-0.7-1.7-2.7-2.2l-2.5-0.6
	c-4.1-0.8-6.4-2.8-6.4-6.7c0-4.4,3-7.5,9.9-7.5c2.5,0,5,0.4,7.4,1.2v5.8h-4.6l-0.5-2.2c-0.8-0.4-1.6-0.6-2.5-0.5
	c-1.6,0-2.9,0.5-2.9,1.8s0.8,1.7,3,2.2l2.7,0.6c4.5,1,6.2,3.3,6.2,6.6c0,4.7-3.1,7.9-10.5,7.9C457.9,32,455.3,31.5,452.8,30.6"/>
<polygon class="st0" points="0,27.4 2.9,26.7 2.9,7.3 0,6.6 0,2.5 11.8,2.5 21.2,18.9 21.4,18.9 21.4,7.3 18.5,6.6 18.5,2.5 
	29.5,2.5 29.5,6.6 27,7.3 27,31.5 19.4,31.5 8.6,12.2 8.4,12.2 8.4,26.7 11.4,27.4 11.4,31.5 0,31.5 "/>
<path class="st0" d="M28.9,25.9c0-4.4,3.1-5.8,8.1-6.7l3.9-0.8v-1.1c0-2.3-0.8-3.1-4.2-3.1c-1.9,0-3.8,0.1-5.7,0.4v-4.4
	c3-1,6.2-1.5,9.3-1.6c5.7,0,8.2,2.3,8.2,7.3v10c0,1,0.7,1.3,1.5,1.3h0.7V31c-1.4,0.7-2.9,1-4.5,1c-2.5,0-3.9-0.7-4.5-2.6h-0.2
	c-1.5,1.8-3.8,2.7-6.1,2.6C31.4,32,28.8,29.5,28.9,25.9 M40.8,26.8v-4.8l-2,0.1c-1.7,0.1-2.5,1-2.5,2.8s0.7,2.8,2.3,2.8
	C39.5,27.6,40.2,27.3,40.8,26.8"/>
<path class="st0" d="M130.1,25.9c0-4.4,3.1-5.8,8.1-6.7l3.9-0.8v-1.1c0-2.3-0.8-3.1-4.2-3.1c-1.9,0-3.8,0.1-5.7,0.4v-4.4
	c3-1,6.2-1.5,9.4-1.6c5.6,0,8.2,2.3,8.2,7.3v10c0,1,0.7,1.3,1.5,1.3h0.7V31c-1.4,0.7-2.9,1-4.5,1c-2.4,0-3.9-0.7-4.5-2.6h-0.2
	c-1.5,1.8-3.8,2.8-6.1,2.6C132.6,32,130,29.5,130.1,25.9 M142,26.8v-4.8l-2,0.1c-1.7,0.1-2.4,1-2.4,2.8s0.7,2.8,2.2,2.8
	C140.6,27.6,141.4,27.3,142,26.8"/>
<path class="st0" d="M52.6,25.7v-12h-2.4v-3.5l3-1.1l1-5.2h6v5.2h4.5v4.6h-4.4v10.8c0,2,0.9,2.5,2.7,2.5c0.7,0,1.4-0.1,2.1-0.3v4
	c-1.7,0.9-3.5,1.3-5.4,1.2C55.1,31.9,52.6,30.4,52.6,25.7"/>
<path class="st0" d="M257.2,25.7v-12h-2.4v-3.5l3.1-1.1l1-5.2h6v5.2h4.5v4.6h-4.5v10.8c0,2,0.9,2.5,2.7,2.5c0.7,0,1.4-0.1,2.1-0.3v4
	c-1.7,0.9-3.5,1.3-5.4,1.2C259.7,31.9,257.2,30.5,257.2,25.7"/>
<path class="st0" d="M67.3,27.7l2.4-0.6V14.3l-2.6-0.7V9.8l9.5-1l0.7,0.3v18l2.2,0.6v3.8H67.4L67.3,27.7z M69.1,3.7
	c0.1-2.1,1.9-3.8,4-3.7h0.2c2.3,0,4.2,1.4,4.2,3.7c-0.1,2.2-1.9,3.9-4.1,3.8c0,0-0.1,0-0.1,0c-2.1,0.2-4-1.3-4.2-3.4c0,0,0,0,0,0
	C69.1,3.9,69.1,3.8,69.1,3.7"/>
<path class="st0" d="M103.4,27.7l2.4-0.6V14.3l-2.4-0.7V9.8l9.2-1l0.7,0.3v2.4h0.2c2-1.7,4.7-2.7,7.3-2.7c3.4,0,5.8,1.5,5.8,5.5
	v12.8l2.2,0.6v3.8h-11.7v-3.8l1.7-0.5V16.9c0-1.8-0.8-2.4-2.6-2.4c-1,0-1.9,0.2-2.8,0.5v12.1l1.7,0.5v3.8h-11.8V27.7z"/>
<polygon class="st0" points="153.5,27.7 155.9,27.1 155.9,5.8 153.3,5.1 153.3,1.3 162.9,0.3 163.6,0.6 163.6,27.1 165.9,27.7 
	165.9,31.5 153.5,31.5 "/>
</svg>
