<svg width="139" height="32" viewBox="0 0 139 32" xmlns="http://www.w3.org/2000/svg"><title id="next-advisor-logo">Next Advisor Logo</title> <defs> <linearGradient x1="115.069882%" y1="46.4818669%" x2="50%" y2="55.3373457%" id="a"> <stop stop-color="#24B972" offset="0%"></stop> <stop stop-color="#44CB8B" offset="39.5718961%"></stop> <stop stop-color="#0D9B6E" offset="100%"></stop> </linearGradient> <linearGradient x1="-29.7892503%" y1="-1.25061794%" x2="104.119165%" y2="84.0342092%" id="b"> <stop stop-color="#0D9B6E" offset="0%"></stop> <stop stop-color="#5BFFB1" offset="47.4388611%"></stop> <stop stop-color="#5BFFB1" offset="64.0361064%"></stop> <stop stop-color="#5BFFB1" offset="100%"></stop> </linearGradient> <linearGradient x1="34.0180682%" y1="-12.7083373%" x2="69.2530352%" y2="195.770042%" id="c"> <stop stop-color="#2DCA7F" offset="0%"></stop> <stop stop-color="#5BFFB1" offset="34.0624916%"></stop> <stop stop-color="#5BFFB1" offset="48.5591028%"></stop> <stop stop-color="#5BFFB1" offset="78.5668108%"></stop> <stop stop-color="#1CE586" offset="100%"></stop> </linearGradient> </defs> <g fill="none" fill-rule="evenodd"> <g fill-rule="nonzero"> <g fill="#00060A"> <path d="M12.4281686 2.05135137l.793638.21836709c.3203136.08040648.5321746.25391521.6372643.50783042.1070162.27782773.1598241.57382101.1555329.87177556v9.12655906L6.03198485 1.8059H.304172v.24206584l.40858903.41134264c.22447175.20990324.40102256.38425836.52881172.52052619.13702123.14982853.25428682.3168136.34889804.49682743.10424905.19410407.24436875.48469592.42035908.87177556V15.9955284c.00714664.2902126-.05940941.5774583-.19336518.8345347-.1337875.2385019-.36060472.4097612-.6254943.4722823l-.79195652.2462977v.2420659h3.65544257v-.2420659l-.72469905-.2462977c-.30546093-.0964878-.5058321-.257865-.60111349-.4841317-.10307557-.261531-.15227266-.5414254-.14460352-.8226853V5.14996334L11.7740899 17.8592661h2.8222909V3.6247793c-.0042925-.28510108.0279199-.56957088.0958418-.84638404.0638946-.24206583.2404454-.41134264.5296525-.50783042l.6490344-.21836708V1.8059h-3.4385373l-.0042036.24545137zM62.2306312 17.0619723c-.1916749-.2418058-.3383562-.5165004-.4329699-.8108359L56.9164517 1.84737282h-3.269553L48.6933873 16.1512631c-.085198.2907557-.232707.5591592-.4321291.7862908-.1765508.1862045-.4254034.3250114-.745717.4545082-.3577088.1306767-.7336352.203798-1.1139516.2166743-.4775279-.0135421-1.219882-.1641985-1.8899344-1.2441845-.2017724-.3250115-.2295161-.7380469-.2295161-1.3025851V6.46862968h2.7172011v-.48413167h-2.6902981l.0714611-3.38553616h-.2404454l-1.9714841 2.2005985c-.3183982.3280836-.6782201.61264517-1.0702343.84638404-.3606681.21074963-1.339264.46212569-1.9336517.50783043-.2967735.02539152-1.0727564.07363541-1.5822316.07786733h-2.0631224v.24206583l.6011135.16927681c.0369916.01015661.0723018.0211596.1050898.03216259.2337196.08294564.3542226.20510707.3615088.36648429.0072862.18620449-.0767856.41642095-.2522155.69064938l-2.1354241 2.96234414-1.9698027-3.06560299c-.3362872-.53152918-.2241915-.88559984.3362873-1.06221197l.408589-.09648778V6.229103h-6.0968881v.24121945l.3362873.09648778c.2723927.06432518.4724836.16081297.6002727.28946334.1611947.1708716.3058886.35678393.4321292.55522793l3.26619 5.2145721-2.5936155 3.7418638c-.1782223.2738031-.4017236.5148418-.6608045.7126554-.2715156.1854733-.5779884.3128066-.9004091.3741017l-.6238129.1447317v.2412194h3.6016366v-.2412194l-.4800501-.1210329c-.2566992-.0643252-.4209195-.1890258-.4926608-.3741018-.0717413-.185076-.0117701-.4062643.1799137-.6635651l2.2817091-3.3313675 2.1127247 3.3068224c.160297.2584293.2042945.4877993.1319928.6881102-.0723018.2003109-.2443688.3331932-.516201.3986469l-.4077483.0964878v.2412194h6.6273813v-.2412194l-.3842082-.1210329c-.6725745-.1766122-1.2089527-.5789267-1.6091346-1.2069437l-3.2897301-5.141783 2.5221544-3.42616261c.2782778-.36648429.4018633-.50783042.6061578-.64409825.2042946-.13626783.3985005-.22513816.8314703-.30977656.9138607-.12611122 1.8336063-.11764738 2.3649402-.15065636h.0790275v8.02964538c0 1.1285121.284443 1.9514795.8533289 2.4689023.568886.5174227 1.3664473.7755699 2.3926839.7744414h6.0952067v-.2386803l-.5288117-.2175207c-.3362873-.1286504-.5246081-.2979272-.5649626-.5078305-.0403545-.2099032-.0044838-.4920312.1076119-.846384l1.1543061-3.4126205h5.3385603l1.1299252 3.4854095c.0958419.3233187.1078922.6017791.0361509.8353811-.0717413.233602-.2763161.4150103-.6137243.5442249l-.3623495.1193402v.2420658h7.3327438v-.2420658l-.2883663-.0964878c-.3362873-.1320359-.5851399-.288617-.7448763-.4748215zm-11.6616016-4.90141l2.5969784-7.53281791 2.4288347 7.53281791h-5.0258131zM74.5395858 17.1347614c-.1219334-.2436053-.1798226-.5146044-.1681436-.7871372V4.51432893l.0966826-3.38553616-.2648262-.22513815-4.3717345 1.06475112v.24206583l.45651.09733417c.3362872.06432519.5565554.17774065.6616452.33855361.1050897.16081297.1563735.41134265.1563735.75074265v3.14854863c-.4297776-.2362407-.891822-.40735961-1.3712113-.50783043-.52935-.11444977-1.0693995-.17120228-1.610816-.16927681-.9341212-.00697458-1.8539867.2307397-2.6692801.689803-.8171781.46043292-1.4743395 1.15446783-1.9714841 2.08210474-.4971447.9276369-.7457171 2.1018537-.7457171 3.52265037 0 1.4033047.2205484 2.5529764.6616452 3.449015.4410968.8960385 1.038287 1.5579109 1.7915704 1.9856169.7793874.4335932 1.6578504.6544702 2.5482168.6407127.621733.0065505 1.2407571-.0833747 1.8352878-.2666109.5232809-.1630461 1.0211198-.399539 1.4788232-.7024988l.2169053.8717756 4.1102711-.2683038v-.2395266l-.2169053-.0719427c-.3026585-.083792-.5111566-.2242918-.6238129-.4265775zm-3.55876-.3994933c-.5366243.3951765-1.1847174.6072263-1.8495799.6051795-.8171781 0-1.4824664-.3913265-1.9958649-1.1739496-.5133986-.7826231-.7698176-2.1342984-.7692581-4.0550259 0-1.91847052.2726739-3.32657143.8180197-4.22430277.5453459-.89773134 1.2019467-1.34490424 1.9698027-1.34153778.6243733 0 1.2336138.19355889 1.8277213.58063853l-.0008408 9.60899802zM88.8444054 4.09113691c.3764534.34702235.8718799.5336043 1.3821406.52052619.5072048.01433214.9996821-.17261742 1.3712114-.52052619.3649513-.33875683.5663867-.81996564.5523518-1.31951272 0-.54845686-.1841173-.99224422-.5523518-1.3313621-.3750517-.34073952-.8662349-.52265004-1.3712114-.50783042-.5080433-.01349776-1.0021662.1680544-1.3821406.50783043-.3777627.33855361-.5660836.78234098-.5649626 1.33136209-.0136637.50209241.1929971.98476424.5649626 1.31951272zM92.1383391 17.1254511c-.1199424-.194104-.1799136-.4525333-.1799136-.7752878V9.5697808l.071461-3.09861197-.2404454-.24206583h-7.3907534v.24206583l.6011135.14557806c.3203136.09648778.5128381.25391521.5767327.45958653.0638946.20567132.0319473.47651421-.0958419.79898653l-2.3540109 6.70590075-2.5221544-6.75414464c-.2404454-.67710723-.0482012-1.09663158.5767326-1.25857306l.4329699-.09733417V6.229103H75.380304v.24206583l.3362873.09733417c.5308235.16483533.9566279.56665872 1.154306 1.08929626l4.2557153 10.28779804h1.3997958l3.5310163-10.21500902c.0820482-.27196204.2259817-.52090614.420359-.72704389.202566-.17897539.4465604-.30383204.7095662-.36309875l.1731879-.04147282.092479-.01438853c.2302338-.04118041.4675098-.00769048.6776189.0956414.0996019.0508367.1859834.12446589.2522154.21498155.1199425.1692768.1801939.42319202.1807544.76174563v8.66697253c.0126964.2700688-.0499149.538327-.1807544.7744414-.1199425.1941041-.3402106.3394-.6608045.4358878l-.3362872.0964878v.2420658h5.6269266v-.2395266l-.2404454-.0719427c-.302098-.0987448-.5133985-.2440407-.6339015-.4358878zM100.0738779 10.63537831l-1.0820043-.31485486c-.8020451-.27422843-1.4073622-.573002-1.8159512-.8963207-.4026717-.30980256-.6311327-.79693717-.6128836-1.30681696-.0159468-.53585535.2609268-1.0374565.7213362-1.30681696.4581699-.29994791.9928318-.45986938 1.539355-.46043292.5929865 0 1.0377264.10890142 1.3342197.32670424.2964933.21780283.5969103.59303309.9012503 1.12569078l.840718 1.50148528h.241286l.142081-2.6144803c-.505063-.27158238-1.041605-.47911682-1.597364-.61786035-.5781784-.13960093-1.1709417-.20865437-1.7655084-.20576398-1.5553286 0-2.7497089.37137313-3.5831408 1.11393406-.833432.74256093-1.250148 1.64537057-1.250148 2.70842893 0 .88813898.2802394 1.63859953.8407182 2.25138153.5604788.6127821 1.3300161 1.0641869 2.3086121 1.3542145l1.0088618.3148548c.9135804.2742285 1.5387945.5806195 1.8756422.9191731.3368479.3385536.5049909.7744414.5044309 1.3076633.012972.5549022-.254113 1.0786551-.7095661 1.3914554-.4730441.3475817-1.0943348.5210905-1.8638722.5205262-.6574416 0-1.1983036-.1571453-1.6225861-.4714359-.4242824-.3142906-.8129744-.7939082-1.166076-1.4388529l-.8180188-1.452395h-.2404454l-.0243808 2.8777057c.5542181.285017 1.1341267.5162765 1.7318794.6906494.6885648.1938454 1.4011729.287334 2.1160876.277614 1.6663034 0 2.9607294-.3549171 3.8832774-1.0647511.922548-.7098341 1.382701-1.6521417 1.380467-2.8269227 0-.8717756-.2483-1.6182863-.744884-2.2395322-.496584-.6212459-1.321049-1.1093274-2.4733931-1.46424439zM113.405146 6.60489751c-.896766-.49259551-1.914876-.73889327-3.054329-.73889327-1.139454 0-2.161206.25024755-3.065259.75074265-.899753.49214183-1.642951 1.23037198-2.143831 2.12950224-.521245.92030158-.781588 2.00959784-.781028 3.26788877.000561 1.2582909.24493 2.3557689.733107 3.2924339.46625.9126866 1.189815 1.6664501 2.079937 2.1667432.896766.5078304 1.95467.7617456 3.173711.7617456s2.273022-.2539152 3.161941-.7617456c.882773-.5006671 1.601467-1.2494986 2.068167-2.1548938.488177-.9276369.732545-2.0279362.733107-3.3008978.000559-1.27296155-.259783-2.37043952-.781028-3.29243387-.494453-.89500386-1.231193-1.63025177-2.124495-2.12019202zm-.974393 8.94458649c-.151329.8249424-.395137 1.3976622-.731424 1.7181596-.336288.3204975-.784671.4818747-1.345149.4841317-.560479 0-1.013346-.1613772-1.358601-.4841317-.345255-.3227544-.593547-.8954743-.744876-1.7181596-.153011-.8238138-.229236-1.985899-.228679-3.4862558 0-1.51672022.076229-2.68670509.228679-3.50995463.15245-.82324954.400742-1.39625154.744876-1.71900599.344694-.32219019.797561-.48356741 1.358601-.48413314.561039-.00056278 1.009422.16081444 1.345149.48413314.336287.32331871.580656.8963207.733106 1.71900599.15245.82268529.228675 1.99267016.228675 3.50995463-.001121 1.5003568-.077906 2.662442-.230357 3.4862558zM126.363135 6.37637382c-.321154-.33855362-.786072-.50783043-1.394752-.50783043-.460379.00738761-.911359.13232308-1.310679.36309876-.446063.24602617-.851607.56008562-1.202227.93102244-.352961.368326-.648845.78803746-.87771 1.24503092v-.19297556l-.216065-2.08210473-.240445-.24206584-4.136333 1.40415112v.24206584l.361509.09648778c.320033.06432519.540301.18140831.660804.35124937.120503.16984107.180754.43193799.180754.78629078v7.57682993c.011063.2623796-.051586.5225826-.180754.7507426-.120503.1941041-.340771.3394-.660804.4358878l-.361509.0964878v.2420658h6.232243v-.2395266l-.769257-.2175207c-.560478-.160813-.840718-.5642561-.840718-1.2103292V9.44874788c.0862-.23579142.186427-.46614271.300137-.68980299.100071-.19614155.234501-.37247939.396819-.52052618.17655-.22570241.369075-.32670424.577573-.30300549.207657.02454514.392615.14980998.553192.37579451l.047921.04824389c.512839.67710724 1.105825 1.01566085 1.77896 1.01566085.417035.0064159.819424-.15471055 1.118155-.44773715.312747-.29792719.469121-.72111921.469121-1.26957606.013722-.47520048-.161145-.93633004-.485935-1.28142544z"></path> <path d="M26.6253763 15.1719968c-.389722.4647873-.8636.8508103-1.3964329 1.1375401-.4977052.257865-1.1478605.3870796-1.9504661.3876439-1.1876546 0-2.0827392-.383412-2.6852539-1.1502359-.6025146-.7668239-.910778-2.0214472-.9247899-3.7638698h7.1755295c.0506169-.1616118.0822198-.3286455.0941604-.4976738.0162539-.185076.0243808-.3667665.0243808-.54507137 0-.93610075-.1961675-1.77119967-.5885027-2.50529676-.3904348-.73102457-.9790773-1.33537485-1.6974099-1.74270474-.7381506-.42770607-1.6290316-.6415591-2.6726431-.6415591-.9962194.00021844-1.9767578.24976814-2.8533974.72619751-.916654.49254685-1.6856243 1.22315521-2.2270624 2.1159601-.5784141.9276369-.867341 2.05304555-.8667813 3.37622596 0 1.2757828.2488534 2.3732608.7465586 3.2924339.4714793.8927937 1.1909997 1.628045 2.0706888 2.1159601.8816331.4988023 1.8921763.7482035 3.0316297.7482035 1.1562677 0 2.1474744-.2502476 2.9736201-.7507427.8325889-.5060387 1.5178488-1.2242359 1.9866171-2.0821047l-.2404454-.2209062zm-6.6416735-6.90564742c.1815951-.71265536.4338105-1.20891854.7566463-1.48878953.3255427-.28214561.74335-.43290656 1.1728019-.42319202.8065289 0 1.3515945.38397623 1.6351968 1.15192868.2836022.76795245.3469363 2.02483275.1900023 3.77064089h-4.048058c.0162539-1.29214629.1151784-2.29567563.2967735-3.01058802h-.0033628z"></path> </g> <path d="M18.7532029 28.7978776v-5.7382281h-.7454057v5.7382281h.7454057zm2.1224605 0v-3.0368733c.260443-.3355186.7543865-.6452281 1.2842533-.6452281.5837514 0 .9789063.2236791.9789063.9635406v2.7185608h.6645786v-2.9164307c0-.9033193-.475982-1.3420744-1.3740612-1.3420744-.6555978 0-1.2483301.3527247-1.553677.7054493v-.6022128h-.6735594v4.1552686h.6735594zm7.5318908 0v-2.2798057h1.6614465c1.1944453 0 1.8769855-.7914798 1.8769855-1.7292112s-.6735594-1.7292112-1.8769855-1.7292112h-2.4068522v5.7382281h.7454057zm1.5716386-2.9164307h-1.5716386v-2.1851724h1.5716386c.7094825 0 1.1944453.4473581 1.1944453 1.0925862 0 .645228-.4849628 1.0925862-1.1944453 1.0925862zm4.0982347 3.0196672c.5837515 0 1.0866758-.1978699 1.4369267-.5764037v.4731672h.6735594v-2.8562095c0-1.0065557-.7543865-1.4022956-1.6794081-1.4022956-.7094826 0-1.2662917.2236791-1.7332928.6882433l.3143277.4473581c.386174-.4043429.8082712-.5764037 1.3291572-.5764037.6286554 0 1.0956566.3183125 1.0956566.8689071v.7484645c-.3502509-.3785338-.8441945-.5591976-1.4369267-.5591976-.736425 0-1.5087731.430152-1.5087731 1.3678834 0 .9033193.7813289 1.3764865 1.5087731 1.3764865zm.2514622-.4645642c-.6376363 0-1.0776951-.3785338-1.0776951-.9119223 0-.5247855.4400588-.9033192 1.0776951-.9033192.4670011 0 .9250215.1720608 1.1854645.5075793v.7914798c-.260443.3441216-.7184634.5161824-1.1854645.5161824zm3.9635228.3613277v-2.9422399c.1975774-.3355186.7633673-.6624341 1.1854645-.6624341.0987887 0 .1796158.008603.260443.0172061v-.6624341c-.5927323 0-1.0956566.3269155-1.4459075.7570675v-.6624341h-.6735594v4.1552686h.6735594zm3.4695792.1032365c.3861741 0 .6286555-.1118395.7992905-.2666942l-.1975774-.4903734c-.0898079.0946335-.260443.1806639-.4580204.1806639-.2873853 0-.431078-.2236791-.431078-.5333885v-2.5809122h.8801176v-.5678007h-.8801176v-1.1356014h-.6825402v1.1356014h-.7184633v.5678007h.7184633v2.7185608c0 .619419.3233085.9721436.9699255.9721436zm2.2841148-.1032365v-3.0368733c.2604429-.3355186.7543865-.6452281 1.2842532-.6452281.5837515 0 .9789063.2236791.9789063.9635406v2.7185608h.6645786v-2.9164307c0-.9033193-.4759819-1.3420744-1.3740611-1.3420744-.6555978 0-1.2483301.3527247-1.553677.7054493v-.6022128h-.6735594v4.1552686h.6735594zm6.3254711.1032365c.7005017 0 1.2842532-.2322821 1.724312-.645228l-.3233085-.421549c-.3502509.3441216-.8441944.5333885-1.3471188.5333885-.9340023 0-1.4997922-.6538311-1.553677-1.4367078h3.5025088V26.76756c0-1.2474409-.7723481-2.2281875-2.0835437-2.2281875-1.2393493 0-2.1374284.9721436-2.1374284 2.1765693 0 1.2990591.9250215 2.1851723 2.2182556 2.1851723zm1.3381379-2.4518666h-2.846911c.0359232-.6280219.4939436-1.3764865 1.4189651-1.3764865.9878871 0 1.4189652.7656707 1.4279459 1.3764865zm2.4996538 2.3486301v-2.9422399c.1975774-.3355186.7633673-.6624341 1.1854645-.6624341.0987887 0 .1796159.008603.260443.0172061v-.6624341c-.5927323 0-1.0956566.3269155-1.4459075.7570675v-.6624341h-.6735594v4.1552686h.6735594zm3.7479838.1032365c1.1136182 0 1.6973697-.5591976 1.6973697-1.2560439 0-1.6173717-2.6852568-1.0237618-2.6852568-1.9270811 0-.3699308.3682125-.6538311.9609447-.6538311.5657899 0 1.0327911.223679 1.2932341.5247855l.3143277-.4473581c-.3412701-.3355186-.862156-.6022129-1.6075618-.6022129-1.032791 0-1.6075617.5419916-1.6075617 1.1958227 0 1.5399442 2.6852568.9205253 2.6852568 1.9270811 0 .4129459-.3682125.7140523-1.0327911.7140523-.5927323 0-1.1405606-.2752973-1.4279459-.5936098l-.3412701.4645642c.4400588.4387551 1.032791.6538311 1.7512544.6538311zm3.5504064-.1032365v-3.0368733c.2514622-.3355186.7543865-.6452281 1.2752724-.6452281.5927323 0 .9789064.206473.9789064.9463345v2.7357669h.6735593v-2.9336368c0-.9033193-.4759819-1.3248683-1.3830419-1.3248683-.6555978 0-1.2483301.3527247-1.5446962.7054493v-2.1851723h-.6735594v5.7382281h.6735594zm4.690967-4.7488784c.2514621 0 .4490395-.1892669.4490395-.430152 0-.2408852-.1975774-.4387551-.4490395-.4387551-.2514622 0-.4580204.1978699-.4580204.4387551 0 .2408851.2065582.430152.4580204.430152zm.3322893 4.7488784V24.642609h-.6735594v4.1552686h.6735594zm2.0955181 1.5829595v-2.2109814c.3592316.4559611.8711368.7312584 1.463869.7312584 1.1405606 0 1.9308703-.843098 1.9308703-2.1851723 0-1.3506774-.7903097-2.1765693-1.9308703-2.1765693-.6106938 0-1.1495413.3011064-1.463869.7226554v-.6194189h-.6735594v5.7382281h.6735594zm1.293234-2.0561267c-.5298667 0-1.0597335-.3097095-1.293234-.6710372v-1.8754628c.2335005-.3613277.7633673-.6624342 1.293234-.6624342.8711368 0 1.3920227.6796402 1.3920227 1.6001656 0 .9205253-.5208859 1.6087686-1.3920227 1.6087686zm7.1367359.4731672l1.1315798-3.3379797 1.1315798 3.3379797h.6825402l1.3830419-4.1552686h-.7094825l-1.0597335 3.3121707-1.1315798-3.3121707h-.5837514l-1.1405606 3.3121707-1.0597334-3.3121707h-.7005018l1.3830419 4.1552686h.6735594zm5.5171999-4.7488784c.2514621 0 .4490395-.1892669.4490395-.430152 0-.2408852-.1975774-.4387551-.4490395-.4387551-.2514622 0-.4580204.1978699-.4580204.4387551 0 .2408851.2065582.430152.4580204.430152zm.3322893 4.7488784V24.642609h-.6735594v4.1552686h.6735594zm2.5265961.1032365c.386174 0 .6286554-.1118395.7992904-.2666942l-.1975774-.4903734c-.0898079.0946335-.2604429.1806639-.4580204.1806639-.2873853 0-.431078-.2236791-.431078-.5333885v-2.5809122h.8801176v-.5678007h-.8801176v-1.1356014h-.6825402v1.1356014h-.7184633v.5678007h.7184633v2.7185608c0 .619419.3233086.9721436.9699256.9721436zm2.2930955-.1032365v-3.0368733c.2514622-.3355186.7543865-.6452281 1.2752724-.6452281.5927323 0 .9789064.206473.9789064.9463345v2.7357669h.6735593v-2.9336368c0-.9033193-.4759819-1.3248683-1.3830419-1.3248683-.6555978 0-1.2483301.3527247-1.5446962.7054493v-2.1851723h-.6735594v5.7382281h.6735594zm9.0047407 0v-5.1016031h1.9039278v-.636625h-4.5442807v.636625h1.8949471v5.1016031h.7454058zm3.7120607 0v-5.7382281h-.7454058v5.7382281h.7454058zm2.221249 0v-4.8263058l2.03864 4.8263058h.305347l2.029659-4.8263058v4.8263058h.745405v-5.7382281h-1.068714l-1.859024 4.4219629-1.868004-4.4219629h-1.068715v5.7382281h.745406zm10.519501 0v-.636625h-3.1792v-1.9786993h3.116334v-.636625h-3.116334v-1.8496538h3.1792v-.636625h-3.924606v5.7382281h3.924606z" fill="#767676"></path> </g> <path d="M-.10672553 1.08024159h2.78661371c.09859775 0 .17852701.07875392.17852701.17590181v1.28139797c0 .09714789-.07992926.17590181-.17852701.17590181h-2.7866137c-.4578115 0-.82894103-.36567217-.82894103-.81675166.00016908-.45096165.3712491-.81644993.82894102-.81644993z" fill="url(#a)" fill-rule="nonzero" transform="rotate(90 65.9054255 66.9630315)"></path> <path d="M6.72615657 3.93168284L1.43039554.15015616C1.0612585-.11192517.55286416-.02216543.29261554.35103733.18807624.50224335.13664531.6847224.14658383.86916375L.14477351.86671398v1.02737241c.02251817-.17219973.17288927-.29707895.34365724-.28539824.10287751.00306826.20241127.0377736.28542559.09952192l5.0278351 3.59013837c.18873993.1341004.42442304.1812658.64919189.12991765.22476886-.05134816.41780991-.19645503.53173385-.3996986.20909084-.37358997.08991208-.84945785-.25646062-1.09688465z" fill="url(#b)" transform="translate(130.010241 .122138)"></path> <path d="M136.94971246 4.26817574c-.05532903-.07951472-.12419447-.14837093-.20335819-.20333094h.00543093l-.82761352-.59100708c.05967415.05903638.09659239.13777604.10409285.22201043.00814639.13534981-.07361929.26518764-.21633208.37083398l-5.3102435 3.79255064c-.36719128.26243164.11767016.26855607.3759411.6430647l-.16685027.16934037c.25827094.37297753.36206206.80719931.73076192.54507389l5.3102435-3.79285686c.36843215-.2640863.45694442-.78090135.19792726-1.15567913z" fill="#44CB8B"></path> <path d="M2.28999121 8.47968139c-.15209337.08037017-.33954741.02670257-.42783666-.12248852-.0566868-.08721901-.08603339-.18981028-.08417943-.29427865V5.62784254c-.0003311-.09862733-.07902649-.17849719-.17620353-.17883323H.32067534c-.0971278.00033688-.17573635.08025545-.17590182.17883323v2.78661371c.00132472.457134.3660385.82742764.81644994.82894103.18247748-.00007871.35958853-.06265824.50266283-.17760835l-.0015086.00489954.82761352-.59100708z" fill="url(#c)" transform="translate(130.010241 .122138)"></path> </g> </svg>