<svg id="press" xmlns="http://www.w3.org/2000/svg" viewBox="0 0 29.81 36.86"><defs><style>.cls-1{fill:none;stroke:#fff;stroke-linecap:round;stroke-linejoin:round;stroke-width:3px;}.cls-2{fill:#fff;}</style></defs><rect class="cls-1" x="1.5" y="1.5" width="26.81" height="33.86"/><path class="cls-2" d="M21.3,55.31h2.28v1h0a2.49,2.49,0,0,1,2.24-1.24,2.42,2.42,0,0,1,2.37,1.38,2.49,2.49,0,0,1,2.43-1.38c2.09,0,2.72,1.48,2.72,3.35V63H31V58.53c0-.71-.27-1.32-1-1.32-1.09,0-1.44.78-1.44,1.73V63H26.15V58.94c0-.57,0-1.73-1.06-1.73s-1.42,1-1.42,2V63H21.3Z" transform="translate(-12.43 -40.46)"/></svg>