<?xml version="1.0" encoding="utf-8"?>
<!-- Generator: Adobe Illustrator 25.4.1, SVG Export Plug-In . SVG Version: 6.00 Build 0)  -->
<svg version="1.1" id="press" xmlns="http://www.w3.org/2000/svg" xmlns:xlink="http://www.w3.org/1999/xlink" x="0px" y="0px"
	 viewBox="0 0 128 128" style="enable-background:new 0 0 128 128;" xml:space="preserve">
<style type="text/css">
	.st0{fill:none;stroke:#104A7F;stroke-width:3;stroke-linecap:round;stroke-linejoin:round;}
	.st1{enable-background:new    ;}
	.st2{fill:#F16925;}
</style>
<line class="st0" x1="52.9" y1="42" x2="91.8" y2="42"/>
<line class="st0" x1="102.8" y1="11.9" x2="114.6" y2="11.9"/>
<line class="st0" x1="115.8" y1="22.7" x2="126.3" y2="22.7"/>
<line class="st0" x1="52.9" y1="53.2" x2="91.8" y2="53.2"/>
<line class="st0" x1="52.9" y1="64.5" x2="91.8" y2="64.5"/>
<line class="st0" x1="52.9" y1="75.8" x2="91.8" y2="75.8"/>
<line class="st0" x1="13.9" y1="87.1" x2="91.8" y2="87.1"/>
<line class="st0" x1="13.9" y1="98.4" x2="91.8" y2="98.4"/>
<line class="st0" x1="13.9" y1="109.7" x2="91.8" y2="109.7"/>
<line class="st0" x1="114.6" y1="115.7" x2="114.6" y2="11.9"/>
<rect x="13.9" y="42" class="st0" width="26.8" height="33.9"/>
<g class="st1">
	<path class="st2" d="M17.6,30.4v-14h6.6c1.3,0,2.3,0.2,3.2,0.6s1.6,1,2,1.7c0.5,0.7,0.7,1.5,0.7,2.5s-0.2,1.7-0.7,2.5
		c-0.5,0.7-1.2,1.3-2.1,1.7c-0.9,0.4-2,0.6-3.3,0.6h-4.2v-2.4h3.6c0.7,0,1.2-0.1,1.7-0.3s0.8-0.5,1-0.8c0.2-0.4,0.3-0.8,0.3-1.2
		c0-0.5-0.1-0.9-0.3-1.2c-0.2-0.3-0.6-0.6-1-0.8c-0.4-0.2-1-0.3-1.7-0.3h-2.4v11.6H17.6z"/>
	<path class="st2" d="M32.4,30.4v-14h6.6c1.3,0,2.3,0.2,3.2,0.6c0.9,0.4,1.6,0.9,2,1.6c0.5,0.7,0.7,1.5,0.7,2.4
		c0,0.9-0.2,1.7-0.7,2.4c-0.5,0.7-1.2,1.2-2.1,1.5c-0.9,0.4-2,0.5-3.3,0.5h-4.4v-2.4h3.8c0.7,0,1.2-0.1,1.7-0.2
		c0.4-0.2,0.8-0.4,1-0.7c0.2-0.3,0.3-0.7,0.3-1.2c0-0.5-0.1-0.9-0.3-1.2c-0.2-0.3-0.6-0.6-1-0.7c-0.4-0.2-1-0.2-1.7-0.2h-2.4v11.6
		H32.4z M41.4,24.1l4.1,6.4h-3.9l-4-6.4H41.4z"/>
	<path class="st2" d="M47.4,30.4v-14h11.2v2.4h-7.7v3.3H58v2.4h-7.1V28h7.7v2.4H47.4z"/>
	<path class="st2" d="M70.4,20.5c-0.1-0.5-0.3-1-0.8-1.3c-0.5-0.3-1.2-0.5-2-0.5c-0.6,0-1.1,0.1-1.5,0.2c-0.4,0.1-0.7,0.3-0.9,0.6
		c-0.2,0.2-0.3,0.5-0.3,0.8c0,0.3,0.1,0.5,0.2,0.7c0.1,0.2,0.3,0.3,0.6,0.5c0.2,0.1,0.5,0.3,0.8,0.3c0.3,0.1,0.7,0.2,1,0.2l1.5,0.3
		c0.7,0.1,1.4,0.3,2,0.5c0.6,0.2,1.1,0.5,1.6,0.8s0.8,0.7,1,1.2s0.4,1,0.4,1.5c0,0.9-0.3,1.6-0.8,2.2c-0.5,0.6-1.2,1.1-2.2,1.5
		c-1,0.3-2.1,0.5-3.5,0.5c-1.3,0-2.5-0.2-3.5-0.5c-1-0.3-1.8-0.9-2.3-1.5S60.9,27,60.8,26h3.4c0,0.5,0.2,0.9,0.5,1.2
		c0.3,0.3,0.7,0.5,1.1,0.7c0.5,0.2,1,0.2,1.6,0.2c0.6,0,1.1-0.1,1.6-0.2c0.4-0.1,0.8-0.3,1-0.6s0.4-0.6,0.4-0.9
		c0-0.3-0.1-0.6-0.3-0.8c-0.2-0.2-0.5-0.4-1-0.5c-0.4-0.2-0.9-0.3-1.5-0.4l-1.8-0.4c-1.4-0.3-2.5-0.7-3.3-1.3s-1.2-1.4-1.2-2.5
		c0-0.8,0.3-1.6,0.8-2.2s1.3-1.1,2.2-1.5c1-0.4,2-0.5,3.2-0.5c1.2,0,2.3,0.2,3.2,0.5c0.9,0.4,1.6,0.8,2.2,1.5s0.8,1.4,0.8,2.2H70.4z
		"/>
	<path class="st2" d="M85.4,20.5c-0.1-0.5-0.3-1-0.8-1.3c-0.5-0.3-1.2-0.5-2-0.5c-0.6,0-1.1,0.1-1.5,0.2s-0.7,0.3-0.9,0.6
		c-0.2,0.2-0.3,0.5-0.3,0.8c0,0.3,0.1,0.5,0.2,0.7c0.1,0.2,0.3,0.3,0.6,0.5c0.2,0.1,0.5,0.3,0.8,0.3s0.7,0.2,1,0.2l1.5,0.3
		c0.7,0.1,1.4,0.3,2,0.5c0.6,0.2,1.1,0.5,1.6,0.8c0.4,0.3,0.8,0.7,1,1.2s0.4,1,0.4,1.5c0,0.9-0.3,1.6-0.8,2.2
		c-0.5,0.6-1.2,1.1-2.2,1.5c-1,0.3-2.1,0.5-3.5,0.5c-1.3,0-2.5-0.2-3.5-0.5c-1-0.3-1.8-0.9-2.3-1.5S75.8,27,75.8,26h3.4
		c0,0.5,0.2,0.9,0.5,1.2s0.7,0.5,1.1,0.7c0.5,0.2,1,0.2,1.6,0.2c0.6,0,1.1-0.1,1.6-0.2s0.8-0.3,1-0.6c0.2-0.3,0.4-0.6,0.4-0.9
		c0-0.3-0.1-0.6-0.3-0.8c-0.2-0.2-0.5-0.4-1-0.5c-0.4-0.2-0.9-0.3-1.5-0.4l-1.8-0.4c-1.4-0.3-2.5-0.7-3.3-1.3s-1.2-1.4-1.2-2.5
		c0-0.8,0.3-1.6,0.8-2.2c0.5-0.6,1.3-1.1,2.2-1.5c1-0.4,2-0.5,3.2-0.5c1.2,0,2.3,0.2,3.2,0.5c0.9,0.4,1.6,0.8,2.2,1.5
		c0.5,0.6,0.8,1.4,0.8,2.2H85.4z"/>
</g>
<path class="st2" d="M21.3,55.3h2.3v1l0,0c0.5-0.8,1.3-1.3,2.2-1.2c1-0.1,1.9,0.5,2.4,1.4c0.5-0.9,1.4-1.5,2.4-1.4
	c2.1,0,2.7,1.5,2.7,3.3V63H31v-4.5c0-0.7-0.3-1.3-1-1.3c-1.1,0-1.4,0.8-1.4,1.7V63h-2.4v-4.1c0-0.6,0-1.7-1.1-1.7s-1.4,1-1.4,2V63
	h-2.4V55.3z"/>
<path class="st0" d="M126.3,22.7v100.6c0.1,1.5-1.1,2.9-2.6,3h-18.2c-1.5-0.1-2.7-1.5-2.6-3V1.8H4.7C3.2,1.9,2,3.3,2.2,4.8
	c0,0,0,0,0,0v118.5c-0.1,1.5,1.1,2.9,2.6,3h100.7"/>
</svg>
