<svg
    xmlns="http://www.w3.org/2000/svg"
    xmlns:xlink="http://www.w3.org/1999/xlink"
    version="1.1"
    id="Layer_1"
    x="0px"
    y="0px"
    viewBox="0 0 223.2 68.4"
    style="enable-background:new 0 0 223.2 68.4;"
    xml:space="preserve"
>
    <style type="text/css">
        .st0{fill:#741FA2;}
        .st1{fill:#A751D4;}
    </style>
    <g>
        <g>
            <g>
                <path
                    class="st0"
                    d="M103.661,64.629c-0.965-0.101-1.713-0.272-2.425-0.852c-0.649-0.529-1.153-1.396-1.564-2.519 c-0.878-2.399-1.746-5.36-2.172-6.864c5.629-1.983,8.264-4.519,8.264-7.366c0-2.616-2.134-4.34-6.872-3.74 c-2.095,0.265-3.63,0.555-5.253,0.87c-6.067,1.18-8.342,3.802-8.342,6.498c0,1.826,1.601,3.09,3.455,3.09 c1.264,0,1.385-0.703,1.011-0.983c-0.787-0.589-1.258-1.18-1.258-2.191c0-1.585,1.192-3.614,5.574-4.588 c0.283-0.063,0.525-0.117,0.741-0.165c-0.726,2.053-2.017,5.677-3.19,8.797c-6.692,2.682-8.786,6.354-8.786,8.903 c0,1.905,1.499,3,3.268,3c2.697,0,4.818-1.807,6.517-5.871c0.62-1.483,1.299-3.225,1.975-5.018 c0.43,1.583,1.221,4.353,2.064,6.582c0.487,1.288,0.93,2.214,1.592,2.875c0.801,0.8,1.88,1.198,3.156,1.198 c1.517,0,2.429-0.52,2.668-0.885C104.358,64.981,104.193,64.685,103.661,64.629z M89.567,59.729 c-1.472,3.035-2.38,4.313-3.538,4.493c-0.524,0.082-0.932-0.163-0.932-0.932c0-0.843,0.895-3.963,5.689-6.466 C90.299,58.067,89.872,59.1,89.567,59.729z M95.523,53.154c1.162-3.172,2.221-6.209,2.83-7.977 c2.523-0.289,3.818,0.49,3.818,2.382c0,1.845-1.573,3.67-4.907,4.944C96.637,52.742,96.05,52.961,95.523,53.154z"
                />
                <path
                    class="st0"
                    d="M138.282,60.794c-0.449-0.075-0.572-0.37-0.572-0.88c0-0.628,0.178-1.491,0.477-2.483 c7.359-3.443,12.173-13.99,6.696-13.99c-3.638,0-8.192,8.094-9.639,13.562c-0.81,1.302-2.193,3.272-3.144,3.272 c-0.751,0-0.548-0.993-0.009-2.46c1.26-3.43,3.099-6.96,3.099-6.96s-0.929-0.393-2.18-0.179 c-0.824,0.141-1.188,0.562-1.573,1.295c-0.047,0.059-0.1,0.147-0.16,0.276c-2.385,5.119-3.882,8.026-5.234,8.026 c-0.951,0-0.405-1.046,0.134-2.513c1.26-3.43,3.099-6.96,3.099-6.96s-0.929-0.393-2.18-0.179 c-0.787,0.135-1.154,0.524-1.52,1.196c-0.247-0.697-0.785-1.4-1.946-1.4c-3.529,0-6.194,4.551-6.937,7.754 c-0.727,1.125-1.667,2.315-2.389,2.315c-0.715,0-0.704-0.618-0.143-2.076c0.898-2.334,2.635-6.379,4.019-9.549 c3.472,0.077,6.761,0.149,8.631,0.149c1.734,0,2.412-0.05,3.02-0.515c0.51-0.39,0.751-0.608,1.036-0.965 c0.298-0.373,0.429-1.036-0.751-1.036c-0.646,0-5.406,0.157-11.061,0.373c0.424-0.962,0.766-1.734,0.967-2.181 c0.122-0.272-0.072-0.572-0.501-0.536c-0.657,0.055-0.893,0.143-1.608,0.322c-1.072,0.268-1.339,0.583-1.93,1.823 c-0.081,0.171-0.193,0.412-0.326,0.705c-2.254,0.09-4.546,0.185-6.696,0.281c-1.232,0.055-2.626,1.412-1.143,1.412 c1.856,0,4.391,0.043,7.046,0.097c-0.462,1.058-0.977,2.27-1.415,3.351c-0.049,0.09-0.1,0.194-0.154,0.319 c-1.796,4.101-4.538,8.401-7.567,8.401c-1.179,0-1.679-0.779-1.679-1.771c0-0.383,0.054-0.798,0.148-1.227 c0.114,0.007,0.243,0.011,0.388,0.011c4.323,0,6.878-2.66,6.878-5.107c0-1.572-1.305-2.496-2.617-2.496 c-3.564,0-7.906,4.627-7.906,8.915c0,2.305,1.242,3.834,3.35,3.834c2.833,0,5.028-1.737,6.592-3.647 c-0.084,0.437-0.134,0.861-0.134,1.262c0,1.34,0.768,2.323,2.019,2.323c1.414,0,2.64-0.861,3.779-2.354 c0.229,1.49,1.089,2.354,2.367,2.354c1.496,0,2.791-1.146,3.813-2.502c0.059,1.247,0.504,2.502,2.136,2.502 c1.166,0,2.357-0.623,3.774-2.604c0.04,1.295,0.576,2.658,2.122,2.658c1.491,0,2.821-1.064,4.033-2.699 c0.113,1.629,0.99,2.601,2.246,2.601c1.295,0,2.375-0.839,2.314-1.766C139.315,60.56,138.711,60.866,138.282,60.794z M144.589,45.75c0.791,0-1.373,5.692-5.368,8.836C140.943,50.415,143.644,45.75,144.589,45.75z M107.926,52.289 c1.367,0,0.536,3.806-3.109,3.806c-0.014,0-0.028,0-0.041,0C105.625,54.102,107.024,52.289,107.926,52.289z M120.147,60.437 c-2.054,0,1.42-7.773,3.376-7.773c0.755,0,1.013,0.499,1.117,0.896C123.04,57.319,121.721,60.437,120.147,60.437z"
                />
                <ellipse
                    transform="matrix(0.5488 -0.836 0.836 0.5488 20.6513 134.3147)"
                    class="st0"
                    cx="134.747"
                    cy="48.027"
                    rx="2.04"
                    ry="1.573"
                />
            </g>
            <path
                class="st0"
                d="M166.868,59.793c-0.518,0-1.269,0.831-2.609,0.831c-0.911,0-1.393-0.581-1.393-1.796 c0-0.298,0.04-0.622,0.112-0.959c0.105,0.005,0.222,0.009,0.352,0.009c4.323,0,6.932-2.499,6.932-4.946 c0-1.769-1.358-2.656-2.671-2.656c-3.247,0-7.137,3.839-7.805,7.764c-0.919,1.595-1.686,2.18-2.174,2.155 c-0.536-0.027-0.494-0.766,0.001-2.177c0.75-2.138,1.822-5.031,2.767-7.26c1.871-4.418,3.044-6.862,3.202-7.379 c0.156-0.517-0.12-0.594-0.643-0.517c-1.878,0.276-2.933,0.194-3.736,1.526c-1.26,2.09-6.682,10.546-6.682,10.546 s1.609-10.431,1.858-11.511c0.134-0.577-0.182-0.759-0.681-0.612c-0.608,0.179-1.141,0.29-1.954,0.558 c-0.707,0.233-0.867,0.474-1.358,1.608c-0.255,0.591-2.33,6.748-3.796,9.858c-1.555,3.297-2.787,5.226-5.708,5.467 c-0.789,0.065-0.834,0.466-0.616,0.965c0.456,1.045,1.591,1.662,2.626,1.662c1.822,0,3.116-1.289,4.359-4.279 c1.03-2.477,2.55-6.757,3.68-9.967c-0.939,4.996-2.063,11.673-2.221,13.418c-0.094,1.034,1.288,1.058,1.847,0.051 c1.467-2.642,4.607-8.031,7.437-12.922c-1.15,2.755-2.506,6.046-3.138,7.887c-0.432,1.354-0.814,2.345-0.814,3.584 c0,1.429,0.993,2.284,2.074,2.284c1.122,0,2.399-0.567,3.764-2.294c0.409,1.443,1.484,2.333,3.31,2.333 c2.376,0,4.145-1.623,4.145-2.66C167.333,59.99,167.154,59.793,166.868,59.793z M166.832,52.396c1.346,0,0.298,3.535-3.217,3.64 C164.489,54.15,165.929,52.396,166.832,52.396z"
            />
            <g>
                <path
                    class="st0"
                    d="M186.933,46.571c1.26-0.911,2.231-0.974,2.528-1.219c0.456-0.375-0.16-2.26-1.927-2.26 c-2.817,0-4.259,3.518-5.39,6.624c-0.72,1.978-1.523,4.426-2.144,6.379c-0.011,0.034-0.017,0.01-0.015-0.018 c0.304-4.35,0.822-11.24,0.855-12.009c0.017-0.401-0.01-0.613-0.188-0.709c-0.08-0.056-0.268-0.068-0.374-0.068 c-0.379,0-0.731,0.014-1.083,0.027c-1.656-0.001-3.936-0.001-4.876-0.001c-7.164,0-6.629,6.702-2.197,6.702 c0.822,0,0.845-0.798,0.446-0.997c-1.608-0.804-1.939-3.751,3.421-3.751c0.695,0,1.118,0.002,1.455,0.005 c-0.668,2.29-1.928,6.158-3.517,9.562c-1.698,3.636-2.662,4.994-5.306,5.673c-0.766,0.197-0.713,0.624-0.501,1.126 c0.25,0.589,1.215,1.233,2.395,1.233c2.108,0,3.216-1.536,4.351-4.628c1.1-2.999,2.028-5.902,2.714-8.15 c0.003-0.009-0.001-0.028,0.008-0.027c0.014,0.002-0.001,0.029-0.002,0.043c-0.186,4.843-0.371,11.012-0.402,12.137 c-0.023,0.853,0.315,0.853,0.978,0.567c1.358-0.586,1.815-0.789,2.18-1.894c1.143-3.466,2.237-6.379,3.519-9.627 C184.663,49.252,185.886,47.329,186.933,46.571z"
                />
                <path
                    class="st0"
                    d="M190.855,50.493c-5.638,0-8.407,6.541-8.407,9.351c0,2.001,1.269,3.236,3.412,3.236 c4.717,0,7.425-6.433,7.425-9.398C193.285,51.681,192.356,50.493,190.855,50.493z M186.771,60.491 c-2.108,0,0.679-7.88,2.572-7.88C191.095,52.61,188.996,60.491,186.771,60.491z"/> <path class="st0" d="M205.727,47.072c-0.468,0-2.124,0.045-4.632,0.132c0.406-0.984,0.734-1.782,0.951-2.324 c0.16-0.402,0.082-0.644-0.348-0.644c-0.384,0-1.045,0.134-1.849,0.348c-1.068,0.285-1.196,0.476-1.787,1.716 c-0.126,0.264-0.273,0.609-0.442,1.03c-2.435,0.093-5.297,0.209-8.438,0.349c-1.232,0.055-2.948,1.591-1.465,1.591 c2.952,0,6.149,0.108,9.076,0.199c-0.456,1.201-1.011,2.675-1.688,4.416c-0.847,2.181-2.064,4.797-2.064,6.593 c0,1.34,0.911,2.484,2.519,2.484c2.009,0,2.841-1.186,2.626-1.855c-0.125-0.389-0.482-0.375-1.26-0.375 c-0.536,0-0.723-0.367-0.723-0.777c0-0.617,0.29-1.255,0.625-2.13c1.135-2.958,2.319-5.88,3.297-8.265 c0.816,0.017,1.587,0.028,2.296,0.028c1.734,0,2.412-0.05,3.02-0.515c0.51-0.39,0.751-0.608,1.036-0.965 C206.776,47.736,206.907,47.072,205.727,47.072z"
                />
            </g>
        </g>
        <g>
            <path
                class="st0"
                d="M60.382,50.473h6.319c2.287,0,3.457,1.458,3.457,3.061c0,1.513-0.936,2.521-2.07,2.755 c1.278,0.198,2.305,1.44,2.305,2.953c0,1.801-1.206,3.241-3.493,3.241h-6.518V50.473z M66.143,55.298 c0.864,0,1.404-0.558,1.404-1.332c0-0.738-0.54-1.314-1.404-1.314h-3.205v2.646H66.143z M66.233,60.304 c0.973,0,1.549-0.559,1.549-1.423c0-0.756-0.54-1.404-1.549-1.404h-3.295v2.827H66.233z"
            />
            <path
                class="st0"
                d="M73.017,63.977c0.594,0,0.99-0.162,1.206-0.63l0.324-0.738l-3.529-8.823h2.449l2.269,6.05l2.269-6.05h2.467 l-4.087,10.119c-0.648,1.639-1.801,2.071-3.295,2.106c-0.271,0-0.847-0.054-1.135-0.126l0.342-2.052 C72.495,63.923,72.802,63.977,73.017,63.977z"
            />
        </g>
        <g>
            <g>
                <path
                    class="st1"
                    d="M7.946,14.946H2.102v-4.688h17.033v4.688h-5.813v16.158H7.946V14.946z"
                />
                <path
                    class="st1"
                    d="M31.197,22.321c0-1.844-0.969-2.438-2.5-2.438c-1.406,0-2.344,0.781-2.906,1.469v9.751h-4.813V10.258h4.813 v7.594c0.906-1.062,2.688-2.219,5.219-2.219c3.438,0,5,1.938,5,4.719v10.751h-4.813V22.321z"
                />
                <path
                    class="st1"
                    d="M45.29,15.633c4.469,0,7.719,3.282,7.719,8.407v1.032H42.258c0.281,1.406,1.594,2.688,3.844,2.688 c1.344,0,2.844-0.532,3.688-1.281l2.031,3c-1.5,1.344-4,2-6.313,2c-4.657,0-8.251-3.032-8.251-7.938 C37.258,19.165,40.571,15.633,45.29,15.633z M42.196,21.946h6.219c-0.125-1.062-0.906-2.594-3.125-2.594 C43.196,19.353,42.383,20.852,42.196,21.946z"
                />
            </g>
            <g>
                <path
                    class="st1"
                    d="M70.199,22.57h-3.323v8.534h-6.495V5.918h12.612c5.588,0,8.76,3.7,8.76,8.382 c0,4.38-2.681,6.721-5.022,7.552l5.135,9.251h-7.439L70.199,22.57z M72.012,11.393h-5.135v5.664h5.135 c1.699,0,3.134-1.095,3.134-2.832S73.711,11.393,72.012,11.393z"
                />
                <path
                    class="st1"
                    d="M91.761,12.412c5.4,0,9.326,3.965,9.326,10.157v1.246H88.098c0.34,1.699,1.926,3.247,4.644,3.247 c1.624,0,3.436-0.642,4.456-1.548l2.454,3.625c-1.812,1.624-4.833,2.417-7.627,2.417c-5.626,0-9.968-3.662-9.968-9.591 C82.056,16.679,86.059,12.412,91.761,12.412z M88.022,20.04h7.514c-0.151-1.284-1.095-3.134-3.776-3.134 C89.231,16.906,88.248,18.718,88.022,20.04z"
                />
                <path
                    class="st1"
                    d="M113.963,29.291c-1.133,1.359-3.323,2.265-5.664,2.265c-2.794,0-6.268-1.888-6.268-6.004 c0-4.418,3.474-5.739,6.268-5.739c2.417,0,4.569,0.755,5.664,2.115v-2.303c0-1.586-1.359-2.643-3.7-2.643 c-1.813,0-3.7,0.68-5.173,1.926l-2.076-3.663c2.341-2.001,5.475-2.832,8.269-2.832c4.381,0,8.496,1.624,8.496,7.288v11.403 h-5.815V29.291z M113.963,24.798c-0.604-0.831-1.963-1.284-3.247-1.284c-1.548,0-2.907,0.68-2.907,2.115 c0,1.435,1.359,2.114,2.907,2.114c1.284,0,2.643-0.453,3.247-1.321V24.798z"
                />
                <path
                    class="st1"
                    d="M122.497,5.918h5.815v25.185h-5.815V5.918z"
                />
            </g>
            <g>
                <path
                    class="st1"
                    d="M136.721,5.918h10.573c7.93,0,13.631,4.758,13.631,12.574s-5.702,12.611-13.594,12.611h-10.611V5.918z M147.294,25.439c4.418,0,6.985-3.21,6.985-6.947c0-3.89-2.341-6.91-6.948-6.91h-4.116v13.857H147.294z"
                />
                <path
                    class="st1"
                    d="M171.385,12.413c5.399,0,9.327,3.965,9.327,10.157v1.246h-12.989c0.34,1.699,1.926,3.247,4.645,3.247 c1.624,0,3.436-0.641,4.456-1.548l2.454,3.625c-1.812,1.623-4.833,2.417-7.628,2.417c-5.626,0-9.969-3.663-9.969-9.591 C161.68,16.68,165.683,12.413,171.385,12.413z M167.646,20.04h7.514c-0.151-1.284-1.095-3.134-3.776-3.134 C168.855,16.906,167.873,18.719,167.646,20.04z"
                />
                <path
                    class="st1"
                    d="M193.398,29.291c-1.133,1.359-3.323,2.266-5.664,2.266c-2.794,0-6.268-1.888-6.268-6.004 c0-4.418,3.473-5.74,6.268-5.74c2.417,0,4.569,0.755,5.664,2.115v-2.303c0-1.586-1.359-2.643-3.701-2.643 c-1.812,0-3.7,0.68-5.173,1.926l-2.077-3.663c2.341-2.001,5.475-2.832,8.269-2.832c4.38,0,8.496,1.623,8.496,7.287v11.404h-5.815 V29.291z M193.398,24.798c-0.604-0.831-1.964-1.284-3.247-1.284c-1.548,0-2.908,0.68-2.908,2.115 c0,1.435,1.359,2.115,2.908,2.115c1.284,0,2.643-0.452,3.247-1.321V24.798z"
                />
                <path
                    class="st1"
                    d="M201.933,5.918h5.815v25.186h-5.815V5.918z"
                /> 
            </g>
            <g>
                <path
                    class="st1"
                    d="M212.174,7.057h-1.419V5.918h4.137v1.139h-1.412v3.924h-1.305V7.057z"
                />
                <path
                    class="st1"
                    d="M219.802,7.565l-1.283,3.415h-0.577l-1.275-3.415v3.415h-1.306V5.918h1.814l1.055,2.869l1.062-2.869h1.814 v5.062h-1.305L219.802,7.565L219.802,7.565z"
                />
            </g>
        </g>
    </g>
</svg>
