<?xml version="1.0" encoding="utf-8"?>
<!-- Generator: Adobe Illustrator 25.4.1, SVG Export Plug-In . SVG Version: 6.00 Build 0)  -->
<svg version="1.1" id="Layer_1" xmlns="http://www.w3.org/2000/svg" xmlns:xlink="http://www.w3.org/1999/xlink" x="0px" y="0px"
	 viewBox="0 0 559 242" style="enable-background:new 0 0 559 242;" xml:space="preserve">
<style type="text/css">
	.st0{fill:#EB1701;}
</style>
<path class="st0" d="M0,0v242h559V0H0z M390,44.3l-1.7,7.2h-19.8l-1.2,5.2h16.6l-1.7,7.2h-16.6l-1.4,5.8h20.6l-1.8,7.5h-33.7
	l7.7-32.9H390z M326.4,44.3l-2.8,12.1h12l2.8-12.1h13.4l-7.7,32.9h-13.3l3.1-13.2h-12.1l-3.1,13.2h-13.3l7.7-32.9H326.4z
	 M275.3,44.1h33.3l-1.7,7.6h-10.2l-5.9,25.5h-13.4l6-25.5h-9.9L275.3,44.1z M126.9,192.8c-51,0-83.8-13.9-99.2-41.8l60.4-8.3
	c6.3,11.2,17.6,15.7,40,15.7c13.9,0,23.3-4.5,23.3-11c0-3.2-2.9-6.1-7.9-8.1c-0.9-0.5-1.9-0.7-2.5-0.9l-13.9-3.6l-13.5-3.6
	l-13.9-3.6c-31.8-8.3-46.9-21.2-46.9-40.5c0-30.6,32.5-49,86-49c44.7,0,75.9,13.2,88.2,37.3l-54.2,10c-3.7-9.4-15.7-14.6-32.4-14.6
	c-12.3,0-20.2,3.8-20.2,9.9c0,3.8,3.2,6.5,10.1,8.5c2.8,0.9,5.9,1.8,9.4,2.7l12,2.9l12,3.1l12,2.9c25.8,6.3,42.8,22.5,42.8,39.6
	C218.5,171.4,181.1,192.8,126.9,192.8z M304.9,190.8l4.6-18.9c-13.2,15.6-26.4,21.6-48,21.6c-21.3,0-38-10.3-38-23.4
	c0-3.3,1.2-9.7,2.9-17.3l14.7-63.3h54.6l-13.8,57.9c-1.7,7-1.7,8.3-1.7,9.9c0,4.9,3.5,7.6,9.8,7.6c12.1,0,20.2-8.5,24.2-25.3
	L326,89.5h53.7l-23.6,101.3H304.9z M522.1,121.6L506,190.8h-53.8l14.1-60.8c0.8-3.5,1.4-6.8,1.4-8.2c0-5.3-4.6-8-13.2-8
	c-10.6,0-17.5,5.5-20.1,16.2L420,190.8h-52.6l23.9-101.3h49.4l-4,16.4c8.1-12.7,24.2-19.5,46.3-19.5c24.1,0,40.5,10.1,40.5,24.9
	C523.5,114.4,523,117.9,522.1,121.6z"/>
</svg>
