<?xml version="1.0" encoding="utf-8"?>
<!-- Generator: Adobe Illustrator 26.0.3, SVG Export Plug-In . SVG Version: 6.00 Build 0)  -->
<svg version="1.1" id="bankrate" xmlns="http://www.w3.org/2000/svg" xmlns:xlink="http://www.w3.org/1999/xlink" x="0px" y="0px"
	 viewBox="0 0 200 39.7" style="enable-background:new 0 0 200 39.7;" xml:space="preserve">
<style type="text/css">
	.st0{fill:#151515;}
</style>
<g>
	<path class="st0" d="M50.1,39v-4.1H50c-1.9,3.1-5.2,4.7-9,4.7c-7.7,0-14-5.8-14-13.4c0-8.4,6.1-14.3,13.8-14.3
		c3.9,0,7.1,1.4,9.2,4.4h0.1v-3.7h5V39C55.1,39,50.1,39,50.1,39z M50.2,25.8c0-5.1-3.7-9.4-9.2-9.4c-5,0-9,4.2-9,9.4
		c0,5,4.1,9.3,9,9.3C46.1,35.1,50.2,30.9,50.2,25.8z"/>
	<path class="st0" d="M77.6,39V24.6c0-5.6-2.2-8.2-6.6-8.2s-7,3.2-7,8.2V39h-5V12.6h4.6v2.8h0.1c1.9-2.5,4.7-3.5,7.7-3.5
		c6.3,0,11,4,11,11.3V39H77.6L77.6,39z"/>
	<path class="st0" d="M150.1,39v-4.1H150c-1.9,3.1-5.2,4.8-9,4.8c-7.7,0-14-5.8-14-13.4c0-8.4,6-14.3,13.8-14.3
		c3.9,0,7.1,1.4,9.2,4.4h0.1v-3.7h4.9v26.4h-4.9V39z M150.2,25.8c0-5.1-3.7-9.4-9.2-9.4c-5,0-9,4.2-9,9.4c0,5,4.1,9.3,9,9.3
		C146.1,35.1,150.2,30.9,150.2,25.8z"/>
	<path class="st0" d="M162.6,39V17.1H159v-4.5h3.6V3.7h4.9v8.9h4.3v4.5h-4.3V39C167.5,39,162.6,39,162.6,39z"/>
	<path class="st0" d="M178,27.9c1.1,4.4,4.6,7.2,8.7,7.2c3.1,0,6-1.7,7.5-4.4h5c-1.9,5.4-7,8.9-12.7,9c-7.4,0-13.5-6.6-13.5-13.6
		c0-8.3,6.3-14.2,13.3-14.2c7.4-0.1,13.6,5.8,13.7,13.2c0,0.1,0,0.3,0,0.4c0,0.8,0,1.7-0.1,2.5L178,27.9L178,27.9z M195.1,24.1
		c-0.4-4.5-4.3-7.7-8.6-7.7c-4.1,0-8.1,3.2-8.5,7.7H195.1z"/>
	<path class="st0" d="M21,19.9c-0.7-0.7-1.5-1.4-2.4-1.9c0.3-0.3,0.6-0.6,0.9-1c1.5-2,2.2-4.5,2-7c-0.2-2.6-1.3-5.1-3.1-6.9
		c-2.1-2.1-5-3.2-8-3.1H0v39.7h12.2c4.6,0,7.4-2,8.9-3.7c2-2.2,3.1-5.1,3.1-8.1C24.2,24.9,23.1,22,21,19.9z M10.3,4.6
		c4.2,0,6.2,2.9,6.4,5.7c0.1,2.9-1.9,5.5-4.9,6H4.6V4.6H10.3z M12.2,35.1H4.6V20.9h6.9c5.9,0,8,3.8,8,7.1S17.2,35,12.2,35.1
		L12.2,35.1z"/>
	<path class="st0" d="M122.9,12.6c-4.7-0.3-6.5,2-6.5,2v-2h-4.9V39h5V24.2c0-1.1,0.2-2.2,0.5-3.2c1.1-3.2,4.6-4.3,8-3l2-4.3
		C125.7,13.1,124.3,12.7,122.9,12.6z"/>
	<path class="st0" d="M86.5,3.7h5V39h-5V3.7z"/>
	<path class="st0" d="M102.6,39L91.7,25.8l9.8-13.2h5.6l-9.7,13.2l11,13.2H102.6z"/>
</g>
</svg>
