<?xml version="1.0" encoding="utf-8"?>
<!-- Generator: Adobe Illustrator 26.0.3, SVG Export Plug-In . SVG Version: 6.00 Build 0)  -->
<svg version="1.1" id="business_insider" xmlns="http://www.w3.org/2000/svg" xmlns:xlink="http://www.w3.org/1999/xlink" x="0px"
	 y="0px" viewBox="0 0 128.5 40.1" style="enable-background:new 0 0 128.5 40.1;" xml:space="preserve">
<style type="text/css">
	.st0{fill-rule:evenodd;clip-rule:evenodd;fill:#111111;}
</style>
<g>
	<path class="st0" d="M9.9,40h3V24h-3V40z M20.9,39.7h2.7V29.6L34.8,40V24.2h-2.7v9.9L20.9,24V39.7z M40.9,35.9
		c1.5,1.1,3.2,1.8,5.1,1.8c1.8,0,3.1-0.6,3.1-2c0-1.2-0.8-1.7-2.2-2.2l-2.3-0.8c-2.1-0.8-3.8-1.9-3.8-4.4c0-2.7,2.5-4.2,5.4-4.2
		c1.8,0,3.4,0.5,4.7,1.3v2.7c-1.3-1-2.8-1.7-4.7-1.7c-1.6,0-2.8,0.6-2.8,1.9c0,1.1,0.8,1.6,2.1,2l2.6,0.9c2.5,0.9,3.6,2.2,3.6,4.5
		c0,2.8-2.5,4.4-5.7,4.4c-2.1,0-4-0.6-5.1-1.4C40.9,38.7,40.9,35.9,40.9,35.9z M58.7,40h3V24h-3V40z M75.7,37.5
		c3.4,0,5.2-2.2,5.2-5.6s-1.8-5.6-5.2-5.6h-3.3v11.2H75.7z M69.7,24h6.2c4.7,0,7.8,3.1,7.8,8s-3.1,8-7.8,8h-6.2V24z M98.6,24v2.4
		h-7.2v3.8h6.5v2.4h-6.5v5h7.2V40h-10V24H98.6z M109.2,31.2h3c1.8,0,2.7-1,2.7-2.4c0-1.5-1-2.4-2.7-2.4h-3V31.2L109.2,31.2z
		 M109.2,33.5V40h-2.6V24h5.7c3.2,0,5.3,1.7,5.3,4.8c0,2.7-1.2,4.2-3.6,4.6l5.6,6.6h-3l-5.4-6.5L109.2,33.5L109.2,33.5z M8.9,8.3
		C10.1,7.9,11,6.6,11,4.8c0-2.9-2.1-4.5-5.4-4.5H0v16.4h6.1c3.3,0,5.4-1.6,5.4-4.7C11.5,10.3,10.4,8.8,8.9,8.3z M2.6,7.2V2.7h2.9
		c1.8,0,2.8,0.7,2.8,2.2s-1,2.3-2.8,2.3H2.6z M2.6,9.5H6c1.8,0,2.8,0.9,2.8,2.4s-1,2.4-2.8,2.4H2.6V9.5L2.6,9.5z M23.7,17
		c3.8,0,6.4-2.3,6.4-6.8V0.3h-2.7v9.6c0,3.2-1.3,4.6-3.7,4.6S20,13,20,9.9V0.3h-2.7v9.9C17.3,14.7,19.9,17,23.7,17z M36.4,15.6
		c1.1,0.8,2.9,1.4,5.1,1.4c3.3,0,5.7-1.7,5.7-4.7c0-2.4-1.1-3.8-3.6-4.8l-2.6-1c-1.3-0.5-2.1-1-2.1-2.2c0-1.3,1.2-2,2.8-2
		c1.9,0,3.3,0.7,4.7,1.8V1.4C45.1,0.5,43.5,0,41.7,0c-2.9,0-5.4,1.6-5.4,4.5c0,2.7,1.6,3.9,3.7,4.7l2.3,0.9c1.4,0.6,2.2,1.1,2.2,2.4
		c0,1.5-1.3,2.1-3.1,2.1c-1.9,0-3.6-0.7-5.1-1.9L36.4,15.6L36.4,15.6z M56.9,0.3h-2.7v16.4h2.7V0.3z M64.6,16.7h2.6V6l11,11V0.3
		h-2.6v10.5L64.6,0V16.7z M95,0.3v2.5h-7v4h6.3v2.4H88v5.1h7v2.5h-9.7V0.3H95z M101.3,15.5c1.1,0.8,2.9,1.4,5.1,1.4
		c3.2,0,5.7-1.7,5.7-4.7c0-2.4-1.1-3.8-3.6-4.8l-2.6-1c-1.3-0.5-2.1-1-2.1-2.2c0-1.3,1.2-2,2.8-2c1.9,0,3.3,0.7,4.7,1.8V1.4
		c-1.3-0.9-2.9-1.3-4.7-1.3c-2.9,0-5.4,1.6-5.4,4.5c0,2.7,1.6,3.9,3.7,4.7l2.3,0.9c1.4,0.6,2.2,1.1,2.2,2.4c0,1.5-1.3,2.1-3.1,2.1
		c-1.9,0-3.6-0.7-5.1-1.9v2.7H101.3z M117.7,15.5c1.1,0.8,2.9,1.4,5.1,1.4c3.3,0,5.7-1.7,5.7-4.7c0-2.4-1.1-3.8-3.6-4.8l-2.6-1
		c-1.3-0.5-2.1-1-2.1-2.2c0-1.3,1.2-2,2.8-2c1.9,0,3.3,0.7,4.7,1.8V1.4c-1.3-0.9-2.9-1.3-4.7-1.3c-2.9,0-5.4,1.6-5.4,4.5
		c0,2.7,1.6,3.9,3.7,4.7l2.3,0.9c1.4,0.6,2.2,1.1,2.2,2.4c0,1.5-1.3,2.1-3.1,2.1c-1.9,0-3.6-0.7-5.1-1.9
		C117.7,12.6,117.7,15.5,117.7,15.5z"/>
</g>
</svg>
