<?xml version="1.0" encoding="utf-8"?>
<!-- Generator: Adobe Illustrator 26.0.3, SVG Export Plug-In . SVG Version: 6.00 Build 0)  -->
<svg version="1.1" id="cnbc" xmlns="http://www.w3.org/2000/svg" xmlns:xlink="http://www.w3.org/1999/xlink" x="0px" y="0px"
	 viewBox="0 0 200.1 28.6" style="enable-background:new 0 0 200.1 28.6;" xml:space="preserve">
<style type="text/css">
	.st0{fill:#FFFFFF;}
	.st1{fill:#F26F21;}
	.st2{fill:#FCB813;}
	.st3{fill:#C8234A;}
	.st4{fill:#0088CF;}
	.st5{fill:#645FA9;}
	.st6{fill:#0DB04B;}
</style>
<g>
	<path class="st0" d="M46.8,20.8c-0.7-2.3-3-3.9-5.3-4.1l-0.2-0.2c0.7-0.8,1.4-1.5,1.6-2.4c0.8-1.7,0.5-4-0.7-5.5
		c-1.6-2.1-4.2-2.8-6.6-2.1C35.1,6.7,34.9,7,34.4,7c0.5-2.2-0.5-4.2-2-5.5c-1.7-1.4-4.3-1.8-6.3-0.9c-1.3,0.6-2.3,1.6-2.9,2.7
		c-0.5-0.7-1.2-1.6-2.1-2.2c-1.8-1.4-4.6-1.4-6.4-0.2c-2.1,1.4-3.2,3.5-2.7,6C10.6,6.2,8.5,6,6.9,6.6c-1.8,0.6-3.3,2.6-3.4,4.3
		c-0.5,2.3,0.4,4.3,2,5.9c-1.4,0.3-2.8,0.7-3.9,1.8C0,20.2-0.5,22.9,0.4,25c1,2.4,3.1,3.6,6,3.6h34c1.8,0.2,3.4-0.3,4.8-1.6
		C47,25.3,47.5,23,46.8,20.8z"/>
	<path class="st1" d="M4.9,11.1c0.3-1.4,1.4-2.5,2.7-3.2C9.9,7.1,12.3,8,13.5,10l6.9,15.2h-0.2L6.3,15.7C4.8,14.6,4.2,12.8,4.9,11.1
		z"/>
	<path class="st2" d="M5.9,27.3c-1.5,0-2.9-0.6-3.8-1.8c-1.1-1.2-1.4-3.1-0.6-4.6c0.5-1.1,1.4-2,2.4-2.4c1.4-0.6,3.2-0.5,4.3,0.3
		l12.3,8.7L5.9,27.3z"/>
	<path class="st3" d="M22.7,6.7L20.3,22l-0.6-1.3l-6-13.4c-0.6-1.8,0-3.6,1.2-4.8s3.3-1.6,5-0.9c0.9,0.5,1.8,1.1,2.3,2.1
		C22.6,4.7,22.9,5.7,22.7,6.7z"/>
	<path class="st4" d="M38.2,7.6c1.4,0.4,2.7,1.3,3.4,2.5c0.7,1.4,0.6,3.4-0.3,4.6c-0.6,0.9-1.5,1.4-2.3,2l-12.4,8.6l0.2-0.5L33.4,10
		C34.5,8.2,36.3,7.3,38.2,7.6z"/>
	<path class="st5" d="M26.4,6.4c-0.2-0.1-0.3-0.1-0.5-0.3h-2c0-1.6,0.9-3.3,2.4-4.1c1.7-0.9,3.9-0.7,5.3,0.5c0.5,0.5,1,1,1.3,1.6
		c0.8,1.5,0.4,3.3-0.5,4.9l-5.9,13.2L24.4,8.8C24,7.6,25.5,7,26.4,6.4z"/>
	<path class="st6" d="M44.6,25.7c-1.1,1.2-2.3,1.7-3.7,1.7H26.2l12.3-8.5c1.2-0.7,3-0.9,4.3-0.3c1.1,0.5,2,1.4,2.4,2.4
		C45.8,22.3,45.7,24.5,44.6,25.7z"/>
	<g>
		<g>
			<path d="M75.8,11c-0.6-2.7-2.7-3.4-5.3-3.6c-8-0.7-9.3,5.3-9.3,7.8c0,4.3,1.2,7.8,9.1,7.8c1.5,0,5.4-1.5,5.4-3.9H87
				C86.5,26.3,74.5,28,69.3,28c-10.9,0-20.2-2-19.7-12.8c0.3-7.7,7.5-13,21.9-12.7c8,0.2,15.7,2.7,15.7,8.4L75.8,11L75.8,11z"/>
			<path d="M188.6,11c-0.6-2.7-2.7-3.4-5.3-3.6c-8-0.7-9.3,5.3-9.3,7.7c0,4.3,1.2,7.8,9.1,7.8c1.5,0,5.4-1.5,5.4-3.9h11.3
				c-0.5,7.2-12.5,8.9-17.7,8.9c-10.9,0-20.2-2-19.7-12.8c0.3-7.7,7.5-13,21.9-12.7c8,0.2,15.8,2.7,15.8,8.4h-11.4L188.6,11
				L188.6,11z"/>
			<path d="M89.2,3h14.6l12.5,17.5h0.2V3h9.3v24.2h-13.9l-13-17.5h-0.2v17.5h-9.4C89.2,27.3,89.2,3,89.2,3z"/>
			<path d="M128.6,3h17.7c8.6,0,13.5,2.4,13.5,6c0,2.1-2.1,4.8-6.8,5.5l0,0c5.5,0.3,7.7,3.9,7.7,6c0,4.3-4.8,6.6-14.4,6.6h-17.7V3z
				 M139,12.5h3c4.5,0,6.9-0.3,6.9-2.3s-2-2.7-6-2.7h-3.8L139,12.5L139,12.5z M139,22.3h3c5.4,0,7.5-0.6,7.5-2.4
				c0-2-2.5-2.7-6.6-2.7h-3.8L139,22.3L139,22.3L139,22.3z"/>
		</g>
	</g>
</g>
</svg>
