<?xml version="1.0" encoding="utf-8"?>
<!-- Generator: Adobe Illustrator 26.0.3, SVG Export Plug-In . SVG Version: 6.00 Build 0)  -->
<svg version="1.1" id="dailynationtoday" xmlns="http://www.w3.org/2000/svg" xmlns:xlink="http://www.w3.org/1999/xlink" x="0px"
	 y="0px" viewBox="0 0 200 19.9" style="enable-background:new 0 0 200 19.9;" xml:space="preserve">
<style type="text/css">
	.st0{fill:#FED7D1;}
	.st1{fill:#75C7FB;}
	.st2{fill:#FE3847;}
</style>
<g>
	<g id="solid">
		<path class="st0" d="M0.5,19.7c-0.1-0.1-0.1-0.2-0.1-0.3L2.5,1.2c0-0.2,0.1-0.3,0.2-0.4c0,0,0.1-0.1,0.3-0.1h5.5
			c1.7,0,3,0.5,4,1.4s1.4,2.1,1.4,3.6c0,0.2,0,0.4-0.1,0.7L13,13.9c-0.1,1.2-0.6,2.2-1.1,3.1c-0.6,0.9-1.4,1.5-2.3,2.1
			c-0.9,0.5-2,0.7-3.2,0.7H0.8C0.6,19.8,0.6,19.7,0.5,19.7z M5.7,15.4h1.2c0.4,0,0.7-0.2,1.1-0.5c0.3-0.4,0.5-0.8,0.6-1.4l0.7-6.3
			c0-0.1,0-0.2,0-0.4c0-0.5-0.1-0.9-0.4-1.2C8.6,5.3,8.4,5.1,8,5.1H6.7c-0.1,0-0.1,0.1-0.1,0.2l-1.2,10C5.5,15.4,5.6,15.4,5.7,15.4z
			"/>
		<path class="st0" d="M22.1,19.4l-0.2-2.1c0-0.1-0.1-0.1-0.1-0.1h-3.7c-0.1,0-0.1,0-0.2,0.1l-0.6,2.1c-0.1,0.3-0.2,0.4-0.5,0.4h-4
			c-0.1,0-0.3,0-0.3-0.1c-0.1-0.1-0.1-0.2,0-0.4l6.4-18.2c0.1-0.3,0.3-0.4,0.5-0.4h4.8c0.2,0,0.4,0.1,0.4,0.4l2.3,18.2v0.1
			c0,0.3-0.1,0.5-0.4,0.5h-4.1C22.3,19.8,22.2,19.7,22.1,19.4z M19.4,13.3h2.1c0.1,0,0.2,0,0.2-0.2l-0.5-5.8c0-0.1,0-0.1-0.1-0.1
			c0,0-0.1,0-0.1,0.1l-1.8,5.8C19.3,13.2,19.3,13.3,19.4,13.3z"/>
		<path class="st0" d="M28.3,19.7c-0.1-0.1-0.1-0.2-0.1-0.3l2.1-18.2c0-0.1,0.1-0.3,0.1-0.3c0.1-0.1,0.2-0.1,0.3-0.1h3.9
			c0.1,0,0.2,0,0.3,0.1S35,1.1,35,1.2l-2.1,18.2c0,0.1-0.1,0.3-0.2,0.3c-0.1,0-0.1,0.1-0.3,0.1h-3.9C28.3,19.8,28.3,19.7,28.3,19.7z
			"/>
		<path class="st0" d="M34.4,19.7c-0.1-0.1-0.1-0.2-0.1-0.3l2.1-18.2c0-0.1,0.1-0.3,0.1-0.3c0.1-0.1,0.2-0.1,0.3-0.1h3.9
			c0.1,0,0.2,0,0.3,0.1s0.1,0.2,0.1,0.3l-1.5,14c0,0.1,0,0.2,0.1,0.2h6.1c0.1,0,0.2,0,0.3,0.1s0.1,0.2,0.1,0.3l-0.4,3.5
			c0,0.1-0.1,0.3-0.2,0.3c-0.1,0.1-0.2,0.1-0.3,0.1H34.6C34.6,19.8,34.5,19.7,34.4,19.7z"/>
		<path class="st0" d="M49.4,19.6c-0.1-0.1-0.1-0.2-0.1-0.3l0.7-6.1V13L47.1,1.2c0,0,0-0.1,0-0.2c0-0.2,0.1-0.4,0.4-0.4h4.1
			c0.1,0,0.2,0,0.3,0.1c0,0.2,0,0.3,0,0.4l1,5.9c0,0.1,0,0.1,0.1,0.1c0,0,0.1,0,0.1-0.1l2.3-5.9c0-0.1,0.1-0.2,0.2-0.3
			c0.1,0.1,0.2,0,0.3,0h4c0.3,0,0.4,0.1,0.4,0.3l-0.1,0.2L54.6,13c0,0.1-0.1,0.1-0.1,0.2l-0.7,6.1c0,0.1-0.1,0.3-0.1,0.3
			c-0.1,0.1-0.2,0.1-0.3,0.1h-3.9C49.5,19.7,49.4,19.7,49.4,19.6z"/>
		<path class="st0" d="M70.3,0.8h3.8c0.1,0,0.2,0,0.3,0.1c0.1,0.1,0.1,0.2,0.1,0.3l-2.1,18.2c0,0.1-0.1,0.3-0.2,0.3
			c-0.1,0.1-0.2,0.2-0.3,0.2h-4c-0.2,0-0.4-0.1-0.4-0.3l-2.4-8.9c0-0.1-0.1-0.1-0.1-0.1s-0.1,0-0.1,0.1l-1,8.8
			c0,0.1-0.1,0.3-0.2,0.3c-0.1,0,0,0.1-0.1,0.1h-3.8c-0.1,0-0.2,0-0.3-0.1s-0.1-0.2-0.1-0.3l2.1-18.2c0-0.1,0.1-0.3,0.1-0.3
			c0.1-0.1,0.2-0.1,0.3-0.1h4c0.2,0,0.4,0.1,0.4,0.3l2.4,8.9c0,0.1,0,0.1,0.1,0.1c0,0,0.1,0,0.1-0.1l1-8.7C69.9,1,70,0.8,70.3,0.8z"
			/>
		<path class="st0" d="M82.8,19.4l-0.2-2.1c0-0.1-0.1-0.1-0.1-0.1h-3.7c-0.1,0-0.1,0-0.2,0.1L78,19.4c-0.1,0.3-0.2,0.4-0.5,0.4h-4
			c-0.1,0-0.3,0-0.3-0.1c-0.1-0.1-0.1-0.2,0-0.4l6.4-18.2c0.1-0.3,0.2-0.4,0.4-0.4h4.9c0.2,0,0.4,0.1,0.4,0.4l2.3,18.2v0.1
			c0,0.3-0.1,0.5-0.4,0.5h-4.1C82.9,19.8,82.8,19.7,82.8,19.4z M80,13.3h2.1c0.1,0,0.2,0,0.2-0.2l-0.5-5.8c0-0.1,0-0.1-0.1-0.1
			c0,0-0.1,0-0.1,0.1l-1.8,5.8C79.8,13.2,79.9,13.3,80,13.3z"/>
		<path class="st0" d="M100.6,0.9c0.1,0.1,0.1,0.2,0.1,0.3l-0.4,3.5c0,0.1-0.1,0.3-0.2,0.3c-0.1,0.1-0.2,0.1-0.3,0.1h-3.4
			c-0.1,0-0.1,0.1-0.2,0.2l-1.6,14c0,0.1-0.1,0.3-0.1,0.3s-0.2,0.1-0.3,0.1h-3.9c-0.1,0-0.2,0-0.3-0.1c-0.1-0.1-0.1-0.2-0.1-0.3
			l1.6-14c0-0.1,0-0.2-0.1-0.2H88c-0.1,0-0.2,0-0.3-0.1c-0.1-0.1-0.1-0.2-0.1-0.3L88,1.2c0-0.1,0.1-0.3,0.2-0.3
			c0.1-0.1,0.2-0.1,0.3-0.1h11.7C100.4,0.8,100.5,0.9,100.6,0.9z"/>
		<path class="st0" d="M100,19.7c-0.1-0.1-0.1-0.2-0.1-0.3L102,1.2c0-0.1,0.1-0.3,0.1-0.3c0.1-0.1,0.2-0.1,0.3-0.1h3.9
			c0.1,0,0.2,0,0.3,0.1c0.1,0.1,0.1,0.2,0.1,0.3l-2.1,18.2c0,0.1-0.1,0.3-0.2,0.3c-0.1,0.1-0.2,0.1-0.3,0.1h-3.9
			C100.1,19.8,100.1,19.7,100,19.7z"/>
		<path class="st0" d="M108,18.5c-1-1-1.4-2.3-1.4-4.1c0-0.5,0-0.8,0.1-1l0.7-6.5c0.2-1.3,0.5-2.4,1.2-3.4c0.6-1,1.4-1.7,2.4-2.3
			s2.1-0.8,3.3-0.8c1.7,0,3.1,0.5,4,1.4c1,1,1.4,2.3,1.4,4c0,0.5,0,0.8-0.1,1l-0.7,6.5c-0.2,1.3-0.5,2.4-1.2,3.4
			c-0.6,1-1.4,1.7-2.4,2.3c-1,0.5-2.1,0.8-3.3,0.8C110.3,20.1,109,19.5,108,18.5z M113.7,15.1c0.4-0.4,0.5-0.8,0.6-1.4l0.8-6.8V6.5
			c0-0.5-0.1-0.9-0.4-1.2s-0.6-0.5-1-0.5c-0.5,0-0.8,0.2-1.2,0.5c-0.4,0.4-0.5,0.8-0.6,1.4l-0.7,6.8c0,0.1,0,0.2,0,0.4
			c0,0.5,0.1,0.9,0.4,1.2c0.3,0.3,0.5,0.5,1,0.5C112.9,15.6,113.4,15.5,113.7,15.1z"/>
		<path class="st0" d="M130.5,0.8h3.8c0.1,0,0.2,0,0.3,0.1s0.1,0.2,0.1,0.3l-2.1,18.2c0,0.1-0.1,0.3-0.2,0.3
			c-0.1,0.1-0.2,0.1-0.3,0.1H128c-0.2,0-0.4-0.1-0.4-0.3l-2.4-8.9c0-0.1-0.1-0.1-0.1-0.1s-0.1,0-0.1,0.1l-1,8.8
			c0,0.1-0.1,0.3-0.2,0.3s-0.2,0.1-0.3,0.1h-3.6c-0.1,0-0.2,0-0.3-0.1c-0.1-0.1-0.1-0.2-0.1-0.3l2.1-18.2c0-0.1,0.1-0.3,0.1-0.3
			c0.1-0.1,0.2-0.1,0.3-0.1h4c0.2,0,0.4,0.1,0.4,0.3l2.4,8.9c0,0.1,0,0.1,0.1,0.1c0,0,0.1,0,0.1-0.1l1-8.7
			C130,1,130.2,0.8,130.5,0.8z"/>
		<path class="st0" d="M148.3,0.9c0.1,0.1,0.1,0.2,0.1,0.3L148,4.7c0,0.1-0.1,0.3-0.2,0.3c-0.1,0.1-0.2,0.1-0.3,0.1h-3.4
			c-0.1,0-0.1,0.1-0.2,0.2l-1.6,14c0,0.1-0.1,0.3-0.1,0.3s-0.2,0.1-0.3,0.1H138c-0.1,0-0.2,0-0.3-0.1s-0.1-0.2-0.1-0.3l1.6-14
			c0-0.1,0-0.2-0.1-0.2h-3.2c-0.1,0-0.2,0-0.3-0.1s-0.1-0.2-0.1-0.3l0.4-3.5c0-0.1,0.1-0.3,0.2-0.3c0.1-0.1,0.2-0.1,0.3-0.1h11.7
			C148.1,0.8,148.2,0.9,148.3,0.9z"/>
		<path class="st0" d="M149,18.5c-1-1-1.4-2.3-1.4-4.1c0-0.5,0-0.8,0.1-1l0.7-6.5c0.2-1.3,0.5-2.4,1.2-3.4s1.4-1.7,2.4-2.3
			s2.1-0.8,3.3-0.8c1.7,0,3.1,0.5,4,1.4c1,1,1.4,2.3,1.4,4c0,0.5,0,0.8-0.1,1l-0.7,6.5c-0.2,1.3-0.5,2.4-1.2,3.4
			c-0.6,1-1.4,1.7-2.4,2.3s-2.1,0.8-3.3,0.8C151.3,20.1,149.9,19.5,149,18.5z M154.6,15.1c0.4-0.4,0.5-0.8,0.6-1.4l0.8-6.8V6.5
			c0-0.5-0.1-0.9-0.4-1.2c-0.3-0.3-0.6-0.5-1-0.5s-0.8,0.2-1.2,0.5c-0.4,0.4-0.5,0.8-0.6,1.4l-0.7,6.8c0,0.1,0,0.2,0,0.4
			c0,0.5,0.1,0.9,0.4,1.2c0.3,0.3,0.5,0.5,1,0.5C153.9,15.6,154.3,15.5,154.6,15.1z"/>
		<path class="st0" d="M160.1,19.7c-0.1-0.1-0.1-0.2-0.1-0.3l2.1-18.2c0-0.1,0.1-0.3,0.1-0.3c0.1-0.1,0.2-0.1,0.3-0.1h5.5
			c1.7,0,3,0.5,4,1.4s1.4,2.1,1.4,3.6c0,0.2,0,0.4-0.1,0.7l-0.8,7.5c-0.1,1.2-0.5,2.2-1.1,3.1s-1.4,1.5-2.3,2.1
			c-1,0.5-2.1,0.7-3.2,0.7h-5.5C160.2,19.8,160.1,19.7,160.1,19.7z M165.1,15.4h1.2c0.4,0,0.7-0.2,1.1-0.5c0.3-0.4,0.5-0.8,0.6-1.4
			l0.7-6.3c0-0.1,0-0.2,0-0.4c0-0.5-0.1-0.9-0.4-1.2c-0.3-0.3-0.5-0.5-0.9-0.5h-1.2c-0.1,0-0.1,0.1-0.1,0.2L165.1,15.4L165.1,15.4z"
			/>
		<path class="st0" d="M181.2,19.4l-0.2-2.1c0-0.1-0.1-0.1-0.1-0.1h-3.7c-0.1,0-0.1,0-0.2,0.1l-0.6,2.1c-0.1,0.3-0.2,0.4-0.5,0.4h-4
			c-0.1,0-0.3,0-0.3-0.1c-0.1-0.1-0.1-0.2,0-0.4L178,1.1c0.1-0.3,0.3-0.4,0.4-0.4h4.9c0.2,0,0.4,0.1,0.4,0.4l2.3,18.2v0.1
			c0,0.3-0.1,0.5-0.4,0.5h-4.1C181.3,19.8,181.2,19.7,181.2,19.4z M178.4,13.3h2.1c0.1,0,0.2,0,0.2-0.2l-0.5-5.8
			c0-0.1,0-0.1-0.1-0.1s-0.1,0-0.1,0.1l-1.8,5.8C178.3,13.2,178.3,13.3,178.4,13.3z"/>
		<path class="st0" d="M188.9,19.6c-0.1-0.1-0.1-0.2-0.1-0.3l0.7-6.1V13l-2.9-11.8c0,0,0-0.1,0-0.2c0-0.2,0.1-0.4,0.4-0.4h4.1
			c0.1,0,0.2,0,0.3,0.1s0.1,0.2,0.1,0.3l1,5.9c0,0.1,0,0.1,0.1,0.1c0,0,0.1,0,0.1-0.1L195,1c0-0.1,0.1-0.2,0.2-0.3
			c0.1-0.1,0.2-0.1,0.3-0.1h4.1c0.2,0,0.3,0.1,0.3,0.3l0.1,0.3L194.2,13c0,0.1-0.1,0.1-0.1,0.2l-0.7,6.1c0,0.1-0.1,0.3-0.1,0.3
			c-0.1,0.1-0.2,0.1-0.3,0.1h-3.9C189.1,19.7,189,19.7,188.9,19.6z"/>
	</g>
	<path class="st1" d="M0.1,19.3C0,19.2,0,19.1,0,19L2.1,0.8c0-0.2,0.1-0.3,0.2-0.4c0,0,0.1-0.1,0.3-0.1h5.5c1.7,0,3,0.5,4,1.4
		s1.4,2.1,1.4,3.6c0,0.2,0,0.4-0.1,0.7l-0.8,7.5c-0.1,1.2-0.5,2.2-1.1,3.1s-1.4,1.5-2.3,2.1c-0.9,0.5-2,0.7-3.2,0.7H0.4
		C0.2,19.4,0.2,19.3,0.1,19.3z M5.2,14.9h1.2c0.4,0,0.7-0.2,1.1-0.5C7.7,14,8,13.6,8.1,13l0.7-6.3c0-0.1,0-0.2,0-0.4
		c0-0.5-0.1-0.9-0.4-1.2C8.1,4.8,7.9,4.6,7.5,4.6H6.3c-0.1,0-0.1,0.1-0.1,0.2L5,14.8C5,14.9,5.1,14.9,5.2,14.9z"/>
	<path class="st1" d="M21.7,19l-0.2-2.1c0-0.1-0.1-0.1-0.1-0.1h-3.7c-0.1,0-0.1,0-0.2,0.1L16.9,19c-0.1,0.3-0.2,0.4-0.5,0.4h-4
		c-0.1,0-0.3,0-0.3-0.1c-0.1-0.1-0.1-0.2,0-0.4l6.4-18.2c0.1-0.3,0.3-0.4,0.5-0.4h4.9c0.2,0,0.4,0.1,0.4,0.4l2.3,18.2V19
		c0,0.3-0.1,0.5-0.4,0.5h-4.1C21.9,19.4,21.8,19.3,21.7,19z M19,12.9h2.1c0.1,0,0.2,0,0.2-0.2l-0.5-5.8c0-0.1,0-0.1-0.1-0.1
		c0,0-0.1,0-0.1,0.1l-1.8,5.8C18.8,12.8,18.8,12.9,19,12.9z"/>
	<path class="st1" d="M27.8,19.3c-0.1-0.1-0.1-0.2-0.1-0.3l2.1-18.2c0-0.1,0.1-0.3,0.1-0.3c0.1-0.1,0.2-0.1,0.3-0.1h3.9
		c0.1,0,0.2,0,0.3,0.1s0.1,0.2,0.1,0.3L32.3,19c0,0.1-0.1,0.3-0.2,0.3c-0.1,0-0.1,0.1-0.3,0.1h-3.9C27.9,19.4,27.8,19.3,27.8,19.3z"
		/>
	<path class="st1" d="M33.9,19.3c-0.1-0.1-0.1-0.2-0.1-0.3l2.1-18.2c0-0.1,0.1-0.3,0.1-0.3c0.1-0.1,0.2-0.1,0.3-0.1h3.9
		c0.1,0,0.2,0,0.3,0.1s0.1,0.2,0.1,0.3l-1.5,14c0,0.1,0,0.2,0.1,0.2h6.1c0.1,0,0.2,0,0.3,0.1s0.1,0.2,0.1,0.3l-0.4,3.5
		c0,0.1-0.1,0.3-0.2,0.3c-0.1,0.1-0.2,0.1-0.3,0.1H34.2C34.1,19.4,34,19.3,33.9,19.3z"/>
	<path class="st1" d="M49,19.2c-0.1-0.1-0.1-0.2-0.1-0.3l0.7-6.1v-0.2L46.7,0.8c0,0,0-0.1,0-0.2c0-0.2,0.1-0.4,0.4-0.4h4.1
		c0.1,0,0.2,0,0.3,0.1s0.1,0.2,0.1,0.3l1,5.9c0,0.1,0,0.1,0.1,0.1c0,0,0.1,0,0.1-0.1l2.3-5.9c0-0.1,0.1-0.2,0.2-0.3
		c0.1,0.1,0.2,0,0.3,0h4.1c0.3,0,0.4,0.1,0.4,0.3L60,0.8l-5.6,11.8c0,0.1-0.1,0.1-0.1,0.2l-0.7,6.1c0,0.1-0.1,0.3-0.1,0.3
		c-0.1,0.1-0.2,0.1-0.3,0.1h-3.9C49.1,19.3,49,19.3,49,19.2z"/>
	<path class="st2" d="M69.8,0.4h3.8c0.1,0,0.2,0,0.3,0.1C74,0.6,74,0.7,74,0.8l-2.1,18.1c0,0.1-0.1,0.3-0.2,0.3
		c-0.1,0.1-0.2,0.2-0.3,0.2h-4.1c-0.2,0-0.4-0.1-0.4-0.3l-2.4-8.9c0-0.1-0.1-0.1-0.1-0.1s-0.1,0-0.1,0.1l-1,8.8
		c0,0.1-0.1,0.3-0.2,0.3s0,0.1-0.1,0.1h-3.8c-0.1,0-0.2,0-0.3-0.1s-0.1-0.2-0.1-0.3l2.1-18.2c0-0.1,0.1-0.3,0.1-0.3
		c0.1-0.1,0.2-0.1,0.3-0.1h4c0.2,0,0.4,0.1,0.4,0.3l2.4,8.9c0,0.1,0,0.1,0.1,0.1c0,0,0.1,0,0.1-0.1l1-8.7
		C69.5,0.5,69.6,0.4,69.8,0.4z"/>
	<path class="st2" d="M82.4,19l-0.2-2.1c0-0.1-0.1-0.1-0.1-0.1h-3.7c-0.1,0-0.1,0-0.2,0.1L77.6,19c-0.1,0.3-0.2,0.4-0.5,0.4h-4
		c-0.1,0-0.3,0-0.3-0.1c-0.1-0.1-0.1-0.2,0-0.4l6.4-18.2c0.1-0.3,0.2-0.4,0.4-0.4h4.9c0.2,0,0.4,0.1,0.4,0.4l2.3,18.2V19
		c0,0.3-0.1,0.5-0.4,0.5h-4.1C82.4,19.4,82.4,19.3,82.4,19z M79.6,12.9h2.1c0.1,0,0.2,0,0.2-0.2l-0.5-5.8c0-0.1,0-0.1-0.1-0.1
		c0,0-0.1,0-0.1,0.1l-1.8,5.8C79.4,12.8,79.5,12.9,79.6,12.9z"/>
	<path class="st2" d="M100.2,0.5c0.1,0.1,0.1,0.2,0.1,0.3l-0.4,3.5c0,0.1-0.1,0.3-0.2,0.3c-0.1,0.1-0.2,0.1-0.3,0.1H96
		c-0.1,0-0.1,0.1-0.2,0.2l-1.6,14c0,0.1-0.1,0.3-0.1,0.3s-0.2,0.1-0.3,0.1h-3.9c-0.1,0-0.2,0-0.3-0.1c-0.1-0.1-0.1-0.2-0.1-0.3
		l1.6-14c0-0.1,0-0.2-0.1-0.2h-3.4c-0.1,0-0.2,0-0.3-0.1c-0.1-0.1-0.1-0.2-0.1-0.3l0.4-3.5c0-0.1,0.1-0.3,0.2-0.3
		c0.1-0.1,0.2-0.1,0.3-0.1h11.8C100,0.4,100.1,0.5,100.2,0.5z"/>
	<path class="st2" d="M99.5,19.3c-0.1-0.1-0.1-0.2-0.1-0.3l2.1-18.2c0-0.1,0.1-0.3,0.1-0.3c0.1-0.1,0.2-0.1,0.3-0.1h3.9
		c0.1,0,0.2,0,0.3,0.1c0.1,0.1,0.1,0.2,0.1,0.3L104,19c0,0.1-0.1,0.3-0.2,0.3c-0.1,0.1-0.2,0.1-0.3,0.1h-3.9
		C99.6,19.4,99.6,19.3,99.5,19.3z"/>
	<path class="st2" d="M107.6,18.1c-1-1-1.4-2.3-1.4-4.1c0-0.5,0-0.8,0.1-1l0.7-6.5c0.2-1.3,0.5-2.4,1.2-3.4c0.6-1,1.4-1.7,2.4-2.3
		s2.1-0.8,3.3-0.8c1.7,0,3.1,0.5,4,1.4c1,1,1.4,2.3,1.4,4c0,0.5,0,0.8-0.1,1l-0.7,6.5c-0.2,1.3-0.5,2.4-1.2,3.4
		c-0.6,1-1.4,1.7-2.4,2.3c-1,0.5-2.1,0.8-3.3,0.8C109.9,19.6,108.5,19.1,107.6,18.1z M113.2,14.7c0.4-0.4,0.5-0.8,0.6-1.4l0.8-6.8
		V6.1c0-0.5-0.1-0.9-0.4-1.2s-0.6-0.5-1-0.5c-0.5,0-0.8,0.2-1.2,0.5c-0.4,0.4-0.5,0.8-0.6,1.4l-0.7,6.8c0,0.1,0,0.2,0,0.4
		c0,0.5,0.1,0.9,0.4,1.2c0.3,0.3,0.5,0.5,1,0.5C112.5,15.2,113,15,113.2,14.7z"/>
	<path class="st2" d="M130.1,0.4h3.8c0.1,0,0.2,0,0.3,0.1s0.1,0.2,0.1,0.3L132.2,19c0,0.1-0.1,0.3-0.2,0.3c-0.1,0.1-0.2,0.1-0.3,0.1
		h-4.1c-0.2,0-0.4-0.1-0.4-0.3l-2.4-8.9c0-0.1-0.1-0.1-0.1-0.1s-0.1,0-0.1,0.1l-1,8.8c0,0.1-0.1,0.3-0.2,0.3s-0.2,0.1-0.3,0.1h-3.8
		c-0.1,0-0.2,0-0.3-0.1c-0.1-0.1-0.1-0.2-0.1-0.3L121,0.8c0-0.1,0.1-0.3,0.1-0.3c0.1-0.1,0.2-0.1,0.3-0.1h4c0.2,0,0.4,0.1,0.4,0.3
		l2.4,8.9c0,0.1,0,0.1,0.1,0.1c0,0,0.1,0,0.1-0.1l1-8.7C129.6,0.5,129.8,0.4,130.1,0.4z"/>
	<path class="st2" d="M147.9,0.5c0.1,0.1,0.1,0.2,0.1,0.3l-0.4,3.5c0,0.1-0.1,0.3-0.2,0.3c-0.1,0.1-0.2,0.1-0.3,0.1h-3.4
		c-0.1,0-0.1,0.1-0.2,0.2l-1.6,14c0,0.1-0.1,0.3-0.1,0.3s-0.2,0.1-0.3,0.1h-3.9c-0.1,0-0.2,0-0.3-0.1s-0.1-0.2-0.1-0.3l1.6-14
		c0-0.1,0-0.2-0.1-0.2h-3.4c-0.1,0-0.2,0-0.3-0.1s-0.1-0.2-0.1-0.3l0.4-3.5c0-0.1,0.1-0.3,0.2-0.3c0.1-0.1,0.2-0.1,0.3-0.1h11.7
		C147.7,0.4,147.8,0.5,147.9,0.5z"/>
	<path class="st2" d="M148.6,18.1c-1-1-1.4-2.3-1.4-4.1c0-0.5,0-0.8,0.1-1l0.7-6.5c0.2-1.3,0.5-2.4,1.2-3.4c0.6-1,1.4-1.7,2.4-2.3
		s2.1-0.8,3.3-0.8c1.7,0,3.1,0.5,4,1.4c1,1,1.4,2.3,1.4,4c0,0.5,0,0.8-0.1,1l-0.7,6.5c-0.2,1.3-0.5,2.4-1.2,3.4
		c-0.6,1-1.4,1.7-2.4,2.3c-1,0.5-2.1,0.8-3.3,0.8C150.8,19.6,149.5,19.1,148.6,18.1z M154.2,14.7c0.4-0.4,0.5-0.8,0.6-1.4l0.8-6.8
		V6.1c0-0.5-0.1-0.9-0.4-1.2c-0.3-0.3-0.6-0.5-1-0.5c-0.5,0-0.8,0.2-1.2,0.5c-0.4,0.4-0.5,0.8-0.6,1.4l-0.7,6.8c0,0.1,0,0.2,0,0.4
		c0,0.5,0.1,0.9,0.4,1.2c0.3,0.3,0.5,0.5,1,0.5C153.5,15.2,153.9,15,154.2,14.7z"/>
	<path class="st2" d="M159.7,19.3c-0.1-0.1-0.1-0.2-0.1-0.3l2.1-18.2c0-0.1,0.1-0.3,0.1-0.3c0.1-0.1,0.2-0.1,0.3-0.1h5.5
		c1.7,0,3,0.5,4,1.4s1.4,2.1,1.4,3.6c0,0.2,0,0.4-0.1,0.7l-0.8,7.5c-0.1,1.2-0.5,2.2-1.1,3.1s-1.4,1.5-2.3,2.1
		c-1,0.5-2.1,0.7-3.2,0.7H160C159.8,19.4,159.7,19.3,159.7,19.3z M164.7,14.9h1.2c0.4,0,0.7-0.2,1.1-0.5c0.3-0.4,0.5-0.8,0.6-1.4
		l0.7-6.3c0-0.1,0-0.2,0-0.4c0-0.5-0.1-0.9-0.4-1.2c-0.3-0.3-0.5-0.5-0.9-0.5h-1.1c-0.1,0-0.1,0.1-0.1,0.2L164.7,14.9
		C164.6,14.9,164.7,14.9,164.7,14.9z"/>
	<path class="st2" d="M180.7,19l-0.2-2.1c0-0.1-0.1-0.1-0.1-0.1h-3.7c-0.1,0-0.1,0-0.2,0.1l-0.6,2.1c-0.1,0.3-0.2,0.4-0.4,0.4h-4
		c-0.1,0-0.3,0-0.3-0.1c-0.1-0.1-0.1-0.2,0-0.4l6.4-18.2c0.1-0.3,0.3-0.4,0.5-0.4h4.9c0.2,0,0.4,0.1,0.4,0.4l2.3,18.2V19
		c0,0.3-0.1,0.5-0.4,0.5h-4.1C180.9,19.4,180.7,19.3,180.7,19z M177.9,12.9h2.1c0.1,0,0.2,0,0.2-0.2l-0.4-5.8c0-0.1,0-0.1-0.1-0.1
		s-0.1,0-0.1,0.1l-1.8,5.8C177.8,12.8,177.8,12.9,177.9,12.9z"/>
	<path class="st2" d="M188.5,19.2c-0.1-0.1-0.1-0.2-0.1-0.3l0.7-6.1v-0.2l-2.9-11.8c0,0,0-0.1,0-0.2c0-0.2,0.1-0.4,0.4-0.4h4.1
		c0.1,0,0.2,0,0.3,0.1s0.1,0.2,0.1,0.3l1,5.9c0,0.1,0,0.1,0.1,0.1c0,0,0.1,0,0.1-0.1l2.3-5.9c0-0.1,0.1-0.2,0.2-0.3
		c0.1-0.1,0.2-0.1,0.3-0.1h4.1c0.2,0,0.3,0.1,0.3,0.3l0.1,0.3L194,12.6c0,0.1-0.1,0.1-0.1,0.2l-0.7,6.1c0,0.1-0.1,0.3-0.1,0.3
		c-0.1,0.1-0.2,0.1-0.3,0.1h-3.9C188.6,19.3,188.6,19.3,188.5,19.2z"/>
</g>
</svg>
