<?xml version="1.0" encoding="utf-8"?>
<!-- Generator: Adobe Illustrator 26.0.3, SVG Export Plug-In . SVG Version: 6.00 Build 0)  -->
<svg version="1.1" id="forbes" xmlns="http://www.w3.org/2000/svg" xmlns:xlink="http://www.w3.org/1999/xlink" x="0px" y="0px"
	 viewBox="0 0 162.2 40.1" style="enable-background:new 0 0 162.2 40.1;" xml:space="preserve">
<style type="text/css">
	.st0{fill-rule:evenodd;clip-rule:evenodd;fill:#333333;}
</style>
<path class="st0" d="M98.8,11.4c-2.6,0-4.6,0.7-6.8,1.7C92,7.1,92.1,2,92.2,0L79.8,2.4v1.1L81,3.7c1.7,0.2,2.4,1.2,2.6,3.5
	c0.4,4.4,0.3,27.8,0,31.5c3.4,0.7,7,1.3,10.6,1.3c9.9,0,15.8-6,15.8-15.5C110.1,16.9,105.3,11.4,98.8,11.4z M94.4,38
	c-0.7,0-1.6-0.1-2.1-0.2C92.1,35.2,92,24.3,92,14.9c1.1-0.4,1.9-0.5,2.9-0.5c4.1,0,6.4,4.6,6.4,10.5C101.3,32.4,98.5,38,94.4,38z
	 M33,11.7l-1.9,0.5c-1.7-5.6-4.4-8.7-9.4-8.7h-6.6C14.8,7,14.7,13,14.7,19.1l4.4-0.1c2.9-0.1,4.1-2.2,4.8-5.3h1.6v13h-1.6
	c-0.7-3.1-1.9-5.2-4.8-5.3l-4.3-0.1c0,4.7,0.2,8.6,0.4,11c0.3,3.5,1.3,5,3.8,5.3l2.2,0.2v1.6H0v-1.6l1.7-0.2
	c2.5-0.4,3.5-1.9,3.8-5.3c0.5-5.7,0.6-17.6,0-24.2c-0.3-3.5-1.3-5-3.8-5.3L0,2.6V0.8h32.8L33,11.7z M43.4,11.1
	c9.3,0,13.9,6.2,13.9,14.4c0,8-5.2,14.5-14.5,14.5s-14-6.2-14-14.4C28.9,17.6,34.1,11.1,43.4,11.1z M43,12.9
	c-4.1,0-5.3,5.5-5.3,12.7c0,7,1.8,12.7,5.6,12.7c4.1,0,5.3-5.5,5.3-12.7C48.6,18.5,46.8,12.9,43,12.9z M112.4,25.8
	c0-7.6,4.9-14.7,14.5-14.7c7.8,0,11.5,5.7,11.6,13.1h-17.4c-0.2,6.7,3.3,11.7,9.9,11.7c2.9,0,4.5-0.7,6.3-2l0.8,1
	c-1.9,2.6-6,5.1-11.3,5.1C118.3,40,112.4,34.1,112.4,25.8z M121.1,22.3l8.7-0.2c0-3.8-0.6-9.2-3.7-9.2
	C122.9,12.9,121.1,18,121.1,22.3z M160.8,19.6l-1.4,0.4c-1.5-4.8-3.8-6.9-7.2-6.9c-2.2,0-3.9,1.7-3.9,4.1s1.8,3.7,7.1,5.7
	c4.9,1.9,6.8,4,6.8,7.9c0,5.8-4.5,9.3-11.9,9.3c-3.6,0-7.5-0.8-9.8-1.7l-0.3-8l1.4-0.4c2,5.6,4.7,7.6,8.2,7.6c3,0,4.6-2.1,4.6-4.3
	s-1.3-3.5-6-5.1c-4.4-1.6-7.6-3.5-7.6-8.3c0-4.7,4.2-8.7,11.3-8.7c3.3,0,6.3,0.6,8.4,1.5L160.8,19.6z M78.6,19.4
	c-3.8-2.5-7.8-1.4-8.7,0c-0.3,4.5-0.2,11.3,0.1,14.8c0.2,2.3,0.9,3.3,2.6,3.5l2.2,0.2v1.6H57.6v-1.6l1.2-0.2
	c1.7-0.2,2.4-1.2,2.6-3.5c0.3-3.7,0.4-11.6,0-15.9c-0.2-2.3-0.9-3.3-2.6-3.5l-1.2-0.2v-1.1L70,11.1l-0.1,6.4
	c2.9-6.6,8.6-7.4,11.8-5.6L78.6,19.4z"/>
</svg>
