<?xml version="1.0" encoding="utf-8"?>
<!-- Generator: Adobe Illustrator 26.0.3, SVG Export Plug-In . SVG Version: 6.00 Build 0)  -->
<svg version="1.1" id="go_bankingrates" xmlns="http://www.w3.org/2000/svg" xmlns:xlink="http://www.w3.org/1999/xlink" x="0px"
	 y="0px" viewBox="0 0 199.9 32.3" style="enable-background:new 0 0 199.9 32.3;" xml:space="preserve">
<style type="text/css">
	.st0{fill:#20964F;}
</style>
<g id="_x23_20964fff">
	<path class="st0" d="M0,0c0.1,0,0.3,0,0.4,0c15.1,0,30.1,0,45.2,0c0,10.8,0,21.5,0,32.3c-15.2,0-30.4,0-45.6,0L0,0 M11.6,6
		C9.7,6.3,7.9,7.3,6.7,8.8c-1.6,1.9-2.2,4.5-2.2,7c0,2.4,0.8,5,2.4,6.8C8.2,24.1,10,25,12,25.3c1.5,0.2,3,0.2,4.4-0.4
		c1.5-0.6,2.7-1.8,3.5-3.2c0.1,1.1,0.2,2.2,0.2,3.4c0.4,0,0.8,0,1.3,0c0-3.2,0-6.3,0-9.5c-2.6,0-5.2,0-7.9,0c0,0.5,0,1,0,1.5
		c2.1,0,4.3,0,6.4,0c0,0.6,0,1.2-0.2,1.8c-0.3,1.5-1.1,2.9-2.3,3.8c-1.2,0.9-2.7,1.2-4.1,1.2c-1.7,0-3.3-0.6-4.5-1.8
		c-1.4-1.4-2.1-3.4-2.3-5.3c-0.2-2.2,0.2-4.6,1.4-6.5c0.9-1.4,2.4-2.4,4-2.7C13.4,7.3,15,7.3,16.4,8c1.6,0.8,2.8,2.3,3.2,4.1
		c0.6,0,1.2,0,1.8,0c-0.1-0.8-0.4-1.6-0.8-2.3c-0.7-1.3-1.8-2.4-3.1-3C15.5,5.8,13.5,5.7,11.6,6 M30.9,5.9c-1.2,0.2-2.3,0.5-3.3,1.1
		c-1.6,1-2.8,2.6-3.4,4.3c-0.8,2.2-0.9,4.7-0.4,7.1c0.5,2,1.6,4,3.3,5.3c1.8,1.3,4.1,1.8,6.3,1.6c1.8-0.2,3.5-0.9,4.8-2.1
		c1.6-1.5,2.5-3.5,2.8-5.6c0.3-2.3,0.1-4.8-0.9-6.9c-0.7-1.5-1.8-2.8-3.2-3.6C35,6,32.9,5.7,30.9,5.9z"/>
	<path class="st0" d="M49.5,6.3c2.7,0,5.4,0,8.1,0c1.6,0,3.3,0.3,4.5,1.4c0.9,0.8,1.3,2.1,1.3,3.4c0,1.8-1.3,3.5-3.1,4
		c1.3,0.2,2.5,1,3.2,2.1c0.8,1.2,0.7,2.8,0.4,4.1c-0.4,1.4-1.4,2.5-2.7,3c-1.6,0.7-3.5,0.6-5.2,0.6c-2.2,0-4.3,0-6.5,0
		C49.5,18.7,49.5,12.5,49.5,6.3 M51.3,7.8c0,2.2,0,4.4,0,6.7c1.7,0,3.5,0,5.2,0c0.8,0,1.5,0,2.3-0.1c1-0.2,1.9-0.7,2.5-1.5
		c0.5-0.8,0.5-1.7,0.3-2.6c-0.2-0.8-0.7-1.6-1.5-1.9c-1.1-0.6-2.3-0.6-3.5-0.5C54.8,7.8,53.1,7.8,51.3,7.8 M51.3,15.9
		c0,2.5,0,5,0,7.5c1.9,0,3.7,0,5.6,0c1.2,0,2.4,0,3.5-0.5c0.8-0.4,1.5-1,1.8-1.9c0.3-0.8,0.3-1.7,0.1-2.6s-0.9-1.5-1.7-1.9
		c-1.2-0.6-2.5-0.6-3.8-0.6C55,15.9,53.1,15.9,51.3,15.9z"/>
	<path class="st0" d="M93.3,6.3c0.5,0,1.1,0,1.6,0c0,3.9,0,7.8,0,11.8c2.5-2.2,5-4.4,7.5-6.6c0.7,0,1.5,0,2.2,0
		c-1.9,1.7-3.9,3.4-5.8,5.1c2,2.8,4.1,5.6,6.1,8.4c-0.7,0-1.3,0-2,0c-1.8-2.4-3.6-4.9-5.4-7.3c-0.9,0.7-1.8,1.5-2.7,2.2
		c0,1.7,0,3.4,0,5.2c-0.5,0-1.1,0-1.6,0C93.3,18.8,93.3,12.5,93.3,6.3z"/>
	<path class="st0" d="M106.1,8.9c0-0.9,0-1.7,0-2.6c0.5,0,1.1,0,1.6,0c0,0.9,0,1.8,0,2.6C107.2,8.9,106.7,8.9,106.1,8.9z"/>
	<path class="st0" d="M138.8,6.3c2.9,0,5.8,0,8.8,0c1.6,0,3.4,0.5,4.5,1.8c1,1.1,1.2,2.7,1,4.1c-0.2,1.9-1.8,3.4-3.6,3.8
		c0.9,0.1,1.8,0.5,2.3,1.2c0.6,0.8,0.8,1.9,0.9,2.8c0.1,1.3,0.1,2.7,0.4,3.9c0.1,0.4,0.3,0.7,0.4,1c-0.6,0-1.3,0-1.9,0
		c-0.3-0.8-0.4-1.6-0.5-2.4c0-0.9-0.1-1.9-0.2-2.8c-0.2-0.9-0.5-1.8-1.1-2.4c-0.6-0.5-1.4-0.7-2.2-0.7c-2.3,0-4.7,0-7,0
		c0,2.8,0,5.5,0,8.3c-0.6,0-1.2,0-1.8,0C138.8,18.7,138.8,12.5,138.8,6.3 M140.6,7.8c0,2.5,0,4.9,0,7.4c2.4,0,4.7,0,7.1,0
		c1.5,0,3-1.1,3.4-2.6c0.5-1.5,0-3.4-1.4-4.2c-0.8-0.5-1.8-0.7-2.8-0.5C144.8,7.8,142.7,7.8,140.6,7.8z"/>
	<path class="st0" d="M169.9,7.4c0.5,0,1.1,0,1.6,0c0,1.4,0,2.7,0,4.1c0.9,0,1.8,0,2.8,0c0,0.5,0,0.9,0,1.4c-0.9,0-1.8,0-2.7,0
		c0,3.1,0,6.3,0,9.4c0,0.5,0.1,1.1,0.6,1.3c0.7,0.3,1.4,0.2,2.1,0.1c0,0.5,0,0.9,0,1.4c-1,0-2,0.1-2.9-0.2c-0.5-0.1-1-0.5-1.2-1
		c-0.3-0.6-0.3-1.2-0.3-1.9c0-3.1,0-6.1,0-9.2c-0.8,0-1.6,0-2.3,0c0-0.5,0-0.9,0-1.4c0.8,0,1.6,0,2.3,0
		C169.9,10.1,169.9,8.7,169.9,7.4z"/>
	<path class="st0" d="M30.8,7.5c1.7-0.3,3.6-0.1,5.1,0.8c1.3,0.8,2.2,2.1,2.8,3.6c0.6,1.8,0.8,3.7,0.5,5.6s-1.2,3.8-2.7,5
		c-1.6,1.3-3.9,1.6-5.9,1.2c-1.4-0.3-2.7-1.2-3.6-2.4c-1.1-1.6-1.7-3.5-1.7-5.4c0-2.1,0.4-4.3,1.7-6C27.8,8.6,29.3,7.8,30.8,7.5z"/>
	<path class="st0" d="M67.4,12.4c1.1-1,2.7-1.3,4.1-1.3c1.3,0,2.7,0.2,3.8,1.1c0.9,0.7,1.3,1.9,1.3,3c0,2.5,0,5,0,7.5
		c0,0.4,0.2,0.7,0.5,0.9c0.3,0.1,0.7,0,1,0c0,0.5,0,0.9,0,1.4c-0.8,0.1-1.7,0.2-2.4-0.2c-0.6-0.5-0.6-1.3-0.7-2
		c-0.7,1.3-1.9,2.3-3.4,2.6c-0.8,0.2-1.6,0.2-2.4,0.1c-1.1-0.1-2.3-0.6-3-1.5s-0.9-2.1-0.7-3.2c0.1-0.9,0.6-1.7,1.3-2.2
		c1-0.7,2.2-0.9,3.3-1.1c1.1-0.2,2.1-0.2,3.2-0.4c0.5-0.1,1.1-0.3,1.3-0.8c0.2-0.7,0.2-1.5-0.1-2.2c-0.3-0.9-1.3-1.3-2.1-1.4
		c-1.2-0.2-2.6-0.1-3.7,0.6c-0.8,0.5-1.1,1.5-1.2,2.4c-0.5,0-1.1,0-1.6,0C66.1,14.4,66.5,13.2,67.4,12.4 M73.9,18.1
		c-1.6,0.3-3.2,0.4-4.8,0.9c-0.8,0.3-1.7,0.8-1.9,1.7c-0.4,1.5,0.8,3.1,2.3,3.3c0.9,0.1,1.9,0.1,2.7-0.3c1.3-0.6,2.4-1.9,2.6-3.3
		c0.1-0.9,0-1.8,0.1-2.7C74.6,17.8,74.3,18,73.9,18.1z"/>
	<path class="st0" d="M81.3,13.7c0.7-1.4,2.1-2.5,3.6-2.6c0.9-0.1,1.9,0,2.8,0.2c0.8,0.2,1.6,0.7,2.1,1.5c0.6,0.9,0.8,2.1,0.8,3.2
		c0,3,0,6,0,9c-0.5,0-1,0-1.5,0c0-2.8,0-5.6,0-8.4c0-1.1-0.1-2.3-0.8-3.2c-0.7-0.8-1.8-1.1-2.8-1c-1.1,0-2.2,0.5-2.9,1.4
		c-0.8,0.9-1.1,2.2-1.1,3.4c0,2.6,0,5.2,0,7.7c-0.5,0-1.1,0-1.6,0c0-4.5,0-9,0-13.5c0.5,0,1.1,0,1.6,0C81.3,12.2,81.3,13,81.3,13.7z
		"/>
	<path class="st0" d="M112.4,13.7c0.7-1.5,2.1-2.5,3.8-2.7c1.1-0.1,2.3,0,3.3,0.5c0.8,0.4,1.4,1,1.7,1.8c0.5,1.2,0.5,2.5,0.5,3.8
		c0,2.6,0,5.2,0,7.7c-0.5,0-1.1,0-1.6,0c0-2.9,0-5.8,0-8.7c0-1-0.2-2-0.8-2.7c-0.5-0.7-1.3-1-2.1-1.1c-1.2-0.1-2.6,0.2-3.5,1.1
		c-1,1-1.3,2.3-1.3,3.7c0,2.6,0,5.2,0,7.7c-0.5,0-1.1,0-1.6,0c0-4.5,0-9,0-13.5c0.5,0,1.1,0,1.6,0C112.4,12.2,112.3,13,112.4,13.7z"
		/>
	<path class="st0" d="M125.9,12.3c1.2-1,2.9-1.4,4.5-1.2c1.6,0.2,2.9,1.2,3.7,2.6c0-0.8,0-1.5,0-2.3c0.5,0,1.1,0,1.6,0
		c0,4.3,0,8.6,0,12.9c0,1-0.2,2-0.5,2.9s-0.9,1.7-1.7,2.2c-1,0.7-2.2,0.9-3.4,0.9s-2.5-0.2-3.6-0.7c-1.3-0.6-2.2-1.9-2.3-3.4
		c0.5,0,1.1,0,1.6,0c0.1,0.7,0.5,1.3,1,1.8c0.9,0.7,2,0.9,3.1,0.9c1,0,2-0.2,2.7-0.9c0.7-0.6,1.1-1.5,1.3-2.4
		c0.3-1.2,0.2-2.5,0.2-3.7c-0.7,1.7-2.5,2.8-4.3,2.8c-1.4,0-2.9-0.4-4-1.3s-1.7-2.4-2-3.8c-0.2-1.5-0.2-3,0.2-4.4
		C124.3,14.2,125,13.1,125.9,12.3 M129,12.5c-0.9,0.1-1.8,0.6-2.4,1.3c-0.8,0.9-1.2,2.1-1.3,3.3c-0.1,1.3,0,2.7,0.6,4
		c0.5,1,1.5,1.9,2.6,2.2c1.2,0.3,2.5,0.2,3.5-0.5c0.8-0.5,1.4-1.4,1.7-2.3c0.6-1.6,0.5-3.4,0-5c-0.3-1-0.9-1.9-1.7-2.4
		C131.1,12.5,130,12.3,129,12.5z"/>
	<path class="st0" d="M158.2,11.4c1.1-0.4,2.3-0.4,3.5-0.4c1.1,0.1,2.2,0.4,3,1.2c0.8,0.8,1,1.9,1.1,2.9c0,2.5,0,4.9,0,7.4
		c0,0.3,0.2,0.7,0.5,0.8c0.3,0.2,0.7,0.1,1,0c0,0.5,0.1,0.9,0,1.4c-0.5,0.1-0.9,0.1-1.4,0.1s-1-0.2-1.3-0.6
		c-0.4-0.5-0.4-1.1-0.4-1.7c-0.8,1.5-2.4,2.6-4.1,2.7c-1.2,0.1-2.6,0-3.7-0.7c-0.8-0.5-1.4-1.3-1.6-2.3c-0.2-0.9-0.1-2,0.3-2.8
		c0.4-0.9,1.3-1.4,2.2-1.7c1.7-0.6,3.5-0.6,5.3-0.9c0.5-0.1,1.1-0.3,1.3-0.8c0.2-0.6,0.2-1.3,0-2s-0.8-1.2-1.6-1.5
		c-0.9-0.3-1.8-0.3-2.6-0.2c-0.9,0.1-1.8,0.6-2.3,1.4c-0.3,0.5-0.5,1.1-0.5,1.7c-0.5,0-1.1,0-1.6,0c0-0.9,0.3-1.9,0.8-2.6
		C156.6,12.2,157.4,11.7,158.2,11.4 M162.7,18.2c-1.5,0.3-3.1,0.3-4.5,0.9c-0.8,0.3-1.6,0.8-1.7,1.7c-0.3,1.4,0.8,2.9,2.3,3.2
		c0.9,0.1,1.9,0.1,2.7-0.3c1.2-0.5,2.2-1.6,2.5-2.9c0.3-1,0.1-2.1,0.1-3.1C163.7,17.9,163.2,18.1,162.7,18.2z"/>
	<path class="st0" d="M177.8,12.5c1.4-1.3,3.6-1.7,5.5-1.2c1.5,0.4,2.8,1.5,3.5,2.9s0.9,3,0.9,4.6c-3.5,0-6.9,0-10.4,0
		c0,1,0.2,1.9,0.6,2.8c0.5,1.1,1.4,2,2.6,2.3c1.1,0.3,2.3,0.3,3.4-0.3c1.2-0.6,2-1.8,2.2-3.1c0.5,0,1.1,0,1.6,0
		c-0.4,1.5-1,3-2.4,3.9c-1.3,0.9-2.9,1.1-4.4,0.9c-1.5-0.1-2.9-0.8-3.8-2c-1.2-1.6-1.6-3.6-1.5-5.6
		C175.7,15.8,176.4,13.8,177.8,12.5 M179.5,13.2c-1.4,0.9-2,2.6-2.2,4.1c2.9,0,5.8,0,8.7,0c-0.1-1.3-0.5-2.6-1.4-3.6
		C183.3,12.3,181,12.1,179.5,13.2z"/>
	<path class="st0" d="M191.1,12.1c1.1-0.7,2.4-0.9,3.7-0.9s2.6,0.4,3.5,1.3c0.8,0.8,1.2,1.9,1.2,3.1c-0.6,0-1.1,0-1.6,0
		c0-0.8-0.4-1.7-1.1-2.2c-0.8-0.6-1.8-0.8-2.8-0.8c-0.8,0.1-1.6,0.2-2.2,0.8c-0.6,0.5-0.8,1.3-0.6,2.1c0.2,0.5,0.6,0.9,1.1,1.2
		c0.9,0.5,1.9,0.6,2.9,0.9c0.9,0.2,1.8,0.3,2.6,0.7c0.9,0.4,1.7,1.1,2,2.1c0.2,0.5,0.1,1,0.1,1.5c0,1.5-1.2,2.7-2.5,3.2
		c-1.2,0.5-2.6,0.6-3.8,0.5s-2.4-0.5-3.2-1.4c-0.9-0.9-1.2-2.1-1.4-3.3c0.6,0,1.1,0,1.7,0c0.1,0.7,0.3,1.5,0.7,2
		c0.7,0.9,1.9,1.3,3,1.3s2.3-0.2,3.2-0.9c0.7-0.6,0.9-1.6,0.6-2.4c-0.2-0.6-0.8-0.9-1.3-1.2c-1.5-0.7-3.1-0.8-4.7-1.3
		c-0.8-0.3-1.7-0.7-2.2-1.4c-0.6-0.8-0.7-1.8-0.5-2.7C189.8,13.3,190.3,12.5,191.1,12.1z"/>
	<path class="st0" d="M106.2,11.4c0.5,0,1.1,0,1.6,0c0,4.5,0,9,0,13.5c-0.5,0-1.1,0-1.6,0C106.2,20.5,106.2,15.9,106.2,11.4z"/>
</g>
</svg>
