<?xml version="1.0" encoding="utf-8"?>
<!-- Generator: Adobe Illustrator 26.0.3, SVG Export Plug-In . SVG Version: 6.00 Build 0)  -->
<svg version="1.1" id="lendingtree" xmlns="http://www.w3.org/2000/svg" xmlns:xlink="http://www.w3.org/1999/xlink" x="0px"
	 y="0px" viewBox="0 0 130.7 39.8" style="enable-background:new 0 0 130.7 39.8;" xml:space="preserve">
<style type="text/css">
	.st0{fill:url(#SVGID_1_);}
</style>
<g>
	<g id="LendingTree_8_">
		<path d="M130.7,27.6c0-2.5-0.6-4.3-1.7-5.6c-1.1-1.3-2.8-2-5-2s-3.9,0.7-5.1,2c-1.2,1.3-1.8,3.3-1.8,5.9c0,1.7,0.3,3.1,1,4.2
			c0.6,1.1,1.5,1.9,2.6,2.5c1.1,0.5,2.3,0.8,3.6,0.8c1.1,0,2-0.1,2.8-0.4c0.8-0.3,1.6-0.6,2.3-1.1c0.2-0.2,0.3-0.4,0.3-0.6
			c0-0.1,0-0.3-0.1-0.4l-0.6-1.2c-0.1-0.4-0.4-0.4-0.5-0.4s-0.3,0.1-0.4,0.2c-1,0.7-2.1,1-3.4,1c-1.3,0-2.3-0.3-3-1
			c-0.7-0.6-1-1.4-1.1-2.5h8.9C130,28.8,130.7,28.7,130.7,27.6L130.7,27.6z M120.7,26.2c0-1,0.3-1.8,0.9-2.4c0.6-0.6,1.4-1,2.5-1
			s1.9,0.3,2.4,0.9s0.8,1.4,0.8,2.4h-6.6V26.2z M109.3,19.9c-2.2,0-3.9,0.7-5.1,2c-1.2,1.3-1.8,3.3-1.8,5.9c0,1.7,0.3,3.1,1,4.2
			c0.6,1.1,1.5,1.9,2.6,2.5c1.1,0.5,2.3,0.8,3.6,0.8c1.1,0,2-0.1,2.8-0.4c0.8-0.3,1.6-0.6,2.3-1.1c0.2-0.2,0.3-0.4,0.3-0.6
			c0-0.1,0-0.3-0.1-0.4l-0.6-1.2c-0.1-0.4-0.4-0.4-0.5-0.4s-0.3,0.1-0.4,0.2c-1,0.7-2.1,1-3.4,1c-1.3,0-2.3-0.3-3-1
			c-0.7-0.6-1-1.4-1.1-2.5h8.9c0.4,0,1.1-0.2,1.1-1.3c0-2.5-0.6-4.3-1.7-5.6C113.2,20.6,111.5,19.9,109.3,19.9L109.3,19.9z
			 M112.6,26.2H106c0-1,0.3-1.8,0.9-2.4c0.6-0.6,1.4-1,2.5-1s1.9,0.3,2.4,0.9C112.3,24.4,112.5,25.2,112.6,26.2z M103,21.4
			c0-0.2,0.1-0.3,0-0.4c0-0.1-0.1-0.3-0.3-0.4c-0.5-0.4-2.2-0.5-2.6-0.5c-0.3,0-1.5,0-3.7,0.7c-0.1-0.2-0.3-0.3-0.5-0.3h-1.7
			c-0.4,0-0.6,0.1-0.7,0.3c-0.1,0.2-0.2,0.4-0.2,0.8v12.1c0,0.4,0.1,0.7,0.3,1l0,0c0.2,0.2,0.5,0.3,0.9,0.3h1.3
			c0.4,0,0.7-0.1,0.9-0.4s0.3-0.5,0.3-1v-9.9c0.3-0.2,1.9-0.5,2.8-0.5c0.1,0,0.3,0,0.4,0c0.4,0,0.8,0.1,1.1,0.3l0.3,0.1h0.1
			c0.2,0,0.4-0.1,0.5-0.4L103,21.4L103,21.4z M91.7,20.7c-0.2-0.2-0.4-0.3-0.9-0.3h-2.5v-3.7c0-0.4-0.1-0.7-0.3-0.9
			c-0.2-0.2-0.4-0.4-0.8-0.4h-1.6c-0.4,0-0.7,0.1-0.8,0.4s-0.3,0.5-0.3,0.9v13.2c0,4.3,2.7,5.2,4,5.4c0.4,0.1,0.8-0.3,0.8-0.7v-2
			c0-0.3-0.2-0.5-0.4-0.6c-0.1-0.1-0.3-0.2-0.4-0.4c-0.3-0.3-0.4-1-0.4-1.8v-6.2h2.5c0.4,0,0.7-0.1,0.9-0.3c0.2-0.2,0.2-0.5,0.2-0.9
			v-0.8C91.9,21.2,91.8,20.9,91.7,20.7L91.7,20.7z M80,20.5c-1.1-0.4-2.2-0.5-3.3-0.5c-2.4,0-4.3,0.7-5.6,2
			c-1.3,1.4-1.9,3.3-1.9,5.8c0,2.2,0.5,3.9,1.6,5.2c1.1,1.2,2.6,1.9,4.6,1.9c0.9,0,1.7-0.2,2.4-0.4c0.4-0.2,0.9-0.5,1.2-0.9
			c-0.1,1.1-0.3,1.8-0.7,2.3c-0.5,0.6-1.2,0.8-2.3,0.8c-1,0-1.9-0.2-2.7-0.4c-0.3-0.1-0.7,0.1-0.7,0.4l-0.1,2.1
			c0,0.2,0.2,0.4,0.4,0.5c0.7,0.2,2.1,0.5,3.4,0.5c2.2,0,3.8-0.7,4.8-2.1c1-1.4,1.5-3.3,1.5-5.7V21.7C82.7,21.7,81.1,20.9,80,20.5
			L80,20.5z M79.1,23.6v5c0,0.9-0.3,1.7-0.8,2.2s-1.2,0.8-2.1,0.8c-1.1,0-1.9-0.3-2.5-1c-0.5-0.7-0.8-1.7-0.8-3.1
			c0-3,1.2-4.4,3.7-4.4c0.5,0,1,0,1.5,0.1C78.5,23.4,78.8,23.5,79.1,23.6z M63.1,20c-1.8,0-2.7,0.2-4,0.6c-0.2,0.1-0.4,0.1-0.7,0.2
			c-0.1-0.2-0.3-0.3-0.5-0.3h-1.7c-0.4,0-0.6,0.1-0.7,0.3c-0.1,0.2-0.2,0.4-0.2,0.8v12.2c0,0.4,0.1,0.7,0.3,1
			c0.2,0.2,0.5,0.4,0.9,0.4h1.3c0.4,0,0.7-0.1,0.9-0.4c0.2-0.2,0.3-0.5,0.3-1v-9.9c0.4-0.2,2.1-0.5,3.1-0.5c0.8,0,1.3,0.2,1.6,0.5
			c0.3,0.4,0.5,1,0.5,1.8v8.1c0,0.4,0.1,0.7,0.3,1c0.2,0.2,0.5,0.4,0.9,0.4h1.3c0.4,0,0.7-0.1,0.9-0.4c0.2-0.2,0.3-0.5,0.3-1v-8.3
			c0-1.8-0.4-3.1-1.3-4C65.7,20.4,64.5,20,63.1,20L63.1,20z M52.3,20.4H51c-0.4,0-0.7,0.1-0.9,0.4c-0.2,0.2-0.3,0.5-0.3,1v11.9
			c0,0.4,0.1,0.7,0.3,1s0.5,0.4,0.9,0.4h1.3c0.4,0,0.7-0.1,0.9-0.4c0.2-0.2,0.3-0.5,0.3-1v-12c0-0.4-0.1-0.8-0.3-1
			C53,20.5,52.7,20.4,52.3,20.4z M47.6,14.3c-1.1,0.5-3.3,2.4-3.3,2.8v3.8c-0.8-0.7-2-1-3.5-1c-1.3,0-2.4,0.3-3.3,1
			c-1,0.6-1.7,1.6-2.2,2.7s-0.7,2.5-0.7,4c0,5.1,2.5,7.7,7.4,7.7c1.2,0,2.3-0.2,3.4-0.5c1.1-0.4,2.7-1.2,2.7-1.2v-19
			c0-0.1,0-0.2-0.1-0.2C47.8,14.4,47.7,14.3,47.6,14.3z M44.3,25.8v5.8c-0.6,0.4-1.4,0.6-2.4,0.6c-1.3,0-2.2-0.4-2.8-1
			c-0.6-0.7-0.9-1.8-0.9-3.4c0-1.4,0.3-2.6,0.9-3.4c0.5-0.8,1.4-1.2,2.5-1.2c0.8,0,1.5,0.2,2,0.7C44,24.2,44.3,24.9,44.3,25.8z
			 M28.3,20c-1.8,0-2.7,0.2-4,0.6h-0.1c-0.2,0.1-0.4,0.1-0.6,0.2c-0.1-0.1-0.2-0.3-0.5-0.3h-1.7c-0.4,0-0.6,0.1-0.7,0.3
			c-0.1,0.2-0.2,0.4-0.2,0.8v12.2c0,0.4,0.1,0.7,0.3,1c0.2,0.2,0.5,0.4,0.9,0.4H23c0.4,0,0.7-0.1,0.9-0.4c0.2-0.2,0.3-0.5,0.3-1v-10
			c0.4-0.2,2.1-0.5,3.1-0.5c0.8,0,1.3,0.2,1.6,0.5c0.3,0.4,0.5,1,0.5,1.8v8.1c0,0.4,0.1,0.7,0.3,1c0.2,0.2,0.5,0.4,0.9,0.4h1.3
			c0.4,0,0.7-0.1,0.9-0.4c0.2-0.2,0.3-0.5,0.3-1v-8.3c0-1.8-0.4-3.1-1.3-4C30.9,20.4,29.7,20,28.3,20z M12.5,19.9
			c-2.2,0-3.9,0.7-5.1,2c-1.2,1.3-1.8,3.3-1.8,5.9c0,1.7,0.3,3.1,1,4.2c0.6,1.1,1.5,1.9,2.6,2.5c1.1,0.5,2.3,0.8,3.6,0.8
			c1.1,0,2-0.1,2.8-0.4c0.8-0.3,1.6-0.6,2.3-1.1c0.2-0.2,0.3-0.4,0.3-0.6c0-0.1,0-0.3-0.1-0.4l-0.6-1.2c-0.1-0.4-0.4-0.4-0.5-0.4
			s-0.3,0.1-0.4,0.2c-1,0.7-2.1,1-3.4,1c-1.3,0-2.3-0.3-3-1c-0.7-0.6-1-1.4-1.1-2.5H18c0.4,0,1.1-0.2,1.1-1.3c0-2.5-0.6-4.3-1.7-5.6
			C16.3,20.6,14.6,19.9,12.5,19.9L12.5,19.9z M15.7,26.2H9.1c0-1,0.3-1.8,0.9-2.4c0.6-0.6,1.4-1,2.5-1s1.9,0.3,2.4,0.9
			C15.3,24.4,15.6,25.2,15.7,26.2z M4.2,31.6c-0.3-0.3-0.4-1-0.4-1.8V16c0-0.4-0.1-0.7-0.3-0.9s-0.4-0.4-0.8-0.4H1.1
			c-0.4,0-0.7,0.1-0.8,0.4C0.1,15.3,0,15.6,0,16v14c0,4.3,2.7,5.2,4,5.4c0.4,0.1,0.8-0.3,0.8-0.7v-2c0-0.3-0.2-0.5-0.4-0.6
			C4.5,31.9,4.3,31.8,4.2,31.6z"/>
	</g>
	<g id="Leaf_00000107588550564794473060000011769548315080397737_">
		
			<linearGradient id="SVGID_1_" gradientUnits="userSpaceOnUse" x1="49.9566" y1="149.0424" x2="68.387" y2="167.4727" gradientTransform="matrix(1 0 0 -1 0 167.8)">
			<stop  offset="5.000000e-02" style="stop-color:#078181"/>
			<stop  offset="0.213" style="stop-color:#07997D"/>
			<stop  offset="0.41" style="stop-color:#08AF7A"/>
			<stop  offset="0.599" style="stop-color:#08BC78"/>
			<stop  offset="0.77" style="stop-color:#08C177"/>
		</linearGradient>
		<path class="st0" d="M68,0c-1,0.2-7.2,0.8-11.8,2c-6.6,1.6-6.4,7.1-6.4,9.3v7.3c0,0.1,0.1,0.1,0.1,0c4.6-6,9.3-10,9.3-10l0,0
			c-0.4,0.1-2.8,0.9-5.6,2.4v-0.9c0-3.7,2.2-4.7,4.8-5.5c2-0.6,6-0.9,6-0.9s-0.3,2.3-0.7,7.1c-0.3,3.5-2.8,4.2-6.4,4.2h-2
			c-1.6,2.3-1.8,3.7-1.8,3.7h3.9c7.4,0,9.1-3.3,9.5-8.1c0.4-6.2,1.1-9.7,1.2-10.4C68.1,0,68.1,0,68,0L68,0z"/>
	</g>
</g>
</svg>
