<svg xmlns="http://www.w3.org/2000/svg" width="162.597" height="50" viewBox="0 0 162.597 50">
    <g transform="translate(-178.738 -217.191)">
        <g transform="translate(255.289 217.191)">
            <path fill="#000" d="M300.5 238.378v11.271l12.826-.022c8.271 0 15.705-.441 20.38-6.1 2.588-3.111 3.264-7.018 3.264-10.412 0-6.861-2.6-10.408-4.475-12.105-4.026-3.536-9.82-3.679-16.292-3.821H300.5v11.332h12.308a7.5 7.5 0 0 1 4.4 1.02 4.909 4.909 0 0 1 1.87 3.96c0 4.713-4.524 4.879-7.61 4.883l-10.97-.008" transform="translate(-300.497 -217.191)"/>
        </g>
        <path fill="#000" d="M227.675 217.191l-12.607 32.649-12.606-32.649h-23.724v50H196.3v-31.87l11.686 31.87H221.8l11.827-32.011v32.011h17.705v-50z"/>
        <path fill="#000" d="M373.983 248h-11.616l5.737-16.925zm-37.677 19.193h19.617l2.692-8.144h19.122l2.691 8.144H399.9l-21.671-50h-20.4z" transform="translate(-58.569)"/>
    </g>
</svg>
