<?xml version="1.0" encoding="utf-8"?>
<!-- Generator: Adobe Illustrator 26.0.3, SVG Export Plug-In . SVG Version: 6.00 Build 0)  -->
<svg version="1.1" id="msn" xmlns="http://www.w3.org/2000/svg" xmlns:xlink="http://www.w3.org/1999/xlink" x="0px" y="0px"
	 viewBox="0 0 92.7 39.9" style="enable-background:new 0 0 92.7 39.9;" xml:space="preserve">
<g transform="translate(-186.78419,-1561.0133)">
	<path id="path3021" d="M201.2,1597.1c0,1.7,0.6,2.4,1.5,2.4c2.3,0,6-5.4,5.9-11.2c3.5-3.7,7.8-9.6,7.8-14.2c0-1.1-0.3-2.1-1.7-2.1
		c-2.1,0-5,3.5-6.8,7c-1.8,3.6-3.5,7.8-5.7,13.5C201.7,1594,201.2,1595.7,201.2,1597.1L201.2,1597.1z M251.6,1589.3v2.9
		c0,0,1.5,1,4.3,1c4.3,0,6.2-2.4,6.2-5c0-5.7-7.6-4.3-7.6-8.1c0-1.4,1.1-2.4,3-2.4c2.2,0,3.8,1.2,3.8,1.2v-2.7c0,0-1.5-0.8-3.7-0.8
		c-3.7,0-6,2.3-6,5.1c0,5.6,7.6,4.5,7.6,8.2c0,1.7-1.4,2.3-3.2,2.3C253.5,1590.9,251.6,1589.3,251.6,1589.3L251.6,1589.3z
		 M279.4,1592.9h-2.7v-9.7c0-3.6-1.3-5.4-4-5.4c-1.4,0-2.5,0.5-3.4,1.5s-1.3,2.3-1.3,3.9v9.7h-2.7v-17.1h2.7v2.8h0.1
		c1.3-2.2,3.2-3.2,5.6-3.2c1.9,0,3.3,0.6,4.3,1.8c1,1.2,1.5,3,1.5,5.2v10.5H279.4z M248.6,1592.9h-2.7v-9.8c0-1.9-0.3-3.3-0.9-4.1
		c-0.6-0.8-1.6-1.3-2.9-1.3c-1.2,0-2.2,0.5-3,1.6s-1.2,2.3-1.2,3.8v9.7h-2.7v-10.1c0-3.4-1.3-5-3.9-5c-1.2,0-2.2,0.5-3,1.5
		s-1.2,2.3-1.2,3.9v9.7h-2.7v-17.1h2.7v2.7h0.1c1.2-2.1,3-3.1,5.3-3.1c1.2,0,2.2,0.3,3.1,1s1.5,1.5,1.8,2.6c1.3-2.4,3.2-3.5,5.7-3.5
		c3.8,0,5.6,2.3,5.6,7L248.6,1592.9L248.6,1592.9z M191.1,1600.9c-2.3,0-4.3-1.5-4.3-4.8c0-5.1,4.4-9,6.4-10.1c0,0,2.8,1.6,5.7,2.7
		c-5.8-3.7-9.5-10.3-9.5-17.7c0-6.9,3.6-10,6.9-10c2.6,0,8.9,2.9,8.9,14.1C205.3,1587,199,1600.9,191.1,1600.9L191.1,1600.9z"/>
</g>
</svg>
