<?xml version="1.0" encoding="utf-8"?>
<!-- Generator: Adobe Illustrator 26.0.3, SVG Export Plug-In . SVG Version: 6.00 Build 0)  -->
<svg version="1.1" id="national_mortgage_news" xmlns="http://www.w3.org/2000/svg" xmlns:xlink="http://www.w3.org/1999/xlink"
	 x="0px" y="0px" viewBox="0 0 199.8 17.2" style="enable-background:new 0 0 199.8 17.2;" xml:space="preserve">
<style type="text/css">
	.st0{fill:#005D9E;}
</style>
<g>
	<polygon class="st0" points="83.9,1 81.8,8.2 81.8,8.2 79.8,1 73.8,1 73.8,2.8 75,3.1 75,11.3 73.8,11.6 73.8,13.4 78.4,13.4 
		78.4,11.6 77.4,11.4 77.4,4.1 77.4,4.1 80.1,13.2 82.5,13.2 85.2,4 85.3,4 85.3,11.4 84.2,11.6 84.2,13.4 90,13.4 90,11.6 
		88.7,11.3 88.7,3.1 90,2.8 90,1 	"/>
	<path class="st0" d="M90.1,8.7c0-3.3,2.2-5,4.9-5c3.1,0,4.9,1.8,4.9,4.9c0,3.3-2.2,5-4.9,5C91.8,13.6,90.1,11.7,90.1,8.7 M96.4,8.7
		c0-2.5-0.6-3.1-1.5-3.1s-1.4,0.6-1.4,2.9s0.6,3.1,1.5,3.1S96.4,11,96.4,8.7"/>
	<path class="st0" d="M34,8.7c0-3.3,2.2-5,4.9-5c3.1,0,4.9,1.8,4.9,4.9c0,3.3-2.2,5-4.9,5C35.7,13.6,34,11.7,34,8.7 M40.4,8.7
		c0-2.5-0.6-3.1-1.5-3.1s-1.5,0.6-1.5,2.9s0.6,3.1,1.5,3.1S40.4,11,40.4,8.7"/>
	<path class="st0" d="M100.3,11.8l1-0.3V6l-1.1-0.3V4.1l3.9-0.4l0.3,0.1v1.4h0.1c0.5-0.9,1.4-1.5,2.4-1.5c0.2,0,0.3,0,0.5,0v2.9
		c-0.3,0-0.6-0.1-0.8-0.1c-0.7,0-1.4,0.1-2,0.3v4.7l1.3,0.3v1.6h-5.6L100.3,11.8L100.3,11.8z"/>
	<path class="st0" d="M114.7,14.8c0-1.1,0.9-1.6,2-1.9v-0.1c-0.7-0.1-1.3-0.8-1.2-1.5c0-0.8,0.6-1.5,1.4-2c-0.9-0.5-1.5-1.4-1.4-2.4
		c0-2.1,1.7-3.2,4.2-3.2c0.7,0,1.4,0.1,2,0.3l3.1-0.4v1.9h-1.3c0.3,0.4,0.4,0.8,0.4,1.3c0,2.1-1.7,3.2-4.2,3.2c-0.4,0-0.9,0-1.3-0.1
		c-0.1,0.1-0.2,0.3-0.2,0.5s0.2,0.5,0.6,0.5h3.1c1.6,0,2.9,0.7,2.9,2.6c0,2-1.6,3.7-5.5,3.7C116.1,17,114.7,16.1,114.7,14.8
		 M121.7,14.1c0-0.5-0.3-0.7-1.1-0.7h-2.3c-0.4,0.1-0.6,0.5-0.6,0.8c0,0.5,0.5,0.9,1.7,0.9C121.1,15.1,121.7,14.6,121.7,14.1
		 M120.6,6.8c0-1.2-0.5-1.5-1.1-1.5s-1.1,0.3-1.1,1.4s0.5,1.6,1.1,1.6S120.6,7.9,120.6,6.8"/>
	<path class="st0" d="M124.9,11c0-1.9,1.3-2.5,3.4-2.8l1.7-0.3V7.4c0-1-0.3-1.3-1.8-1.3c-0.8,0-1.6,0-2.4,0.2V4.4
		c1.3-0.4,2.6-0.6,4-0.7c2.4,0,3.5,1,3.5,3.1V11c0,0.4,0.3,0.6,0.6,0.6h0.3v1.6c-0.6,0.3-1.2,0.4-1.9,0.4c-1,0-1.7-0.3-1.9-1.1h-0.1
		c-0.6,0.8-1.6,1.1-2.5,1.1C126,13.6,124.9,12.5,124.9,11 M130,11.4v-2h-0.8c-0.7,0-1,0.4-1,1.2s0.3,1.2,0.9,1.2
		C129.4,11.7,129.7,11.6,130,11.4"/>
	<path class="st0" d="M133.9,14.8c0-1.1,0.9-1.6,2-1.9v-0.1c-0.7-0.1-1.3-0.8-1.2-1.5c0-0.8,0.6-1.5,1.4-2c-0.9-0.5-1.4-1.4-1.4-2.4
		c0-2.1,1.7-3.2,4.2-3.2c0.7,0,1.4,0.1,2,0.3l3-0.4v1.9h-1.3c0.3,0.4,0.4,0.8,0.4,1.3c0,2.1-1.7,3.2-4.2,3.2c-0.4,0-0.9,0-1.3-0.1
		c-0.1,0.1-0.2,0.3-0.2,0.5s0.2,0.5,0.6,0.5h3.1c1.7,0,2.9,0.7,2.9,2.6c0,2-1.6,3.7-5.5,3.7C135.4,17,133.9,16.1,133.9,14.8
		 M140.9,14.1c0-0.5-0.3-0.7-1.1-0.7h-2.3c-0.4,0.1-0.6,0.5-0.6,0.8c0,0.5,0.5,0.9,1.7,0.9C140.3,15.1,140.9,14.6,140.9,14.1
		 M139.9,6.8c0-1.2-0.5-1.5-1.1-1.5s-1.1,0.3-1.1,1.4s0.5,1.6,1.1,1.6S139.9,7.9,139.9,6.8"/>
	<path class="st0" d="M143.7,8.6c0-3.1,1.9-4.9,4.8-4.9c2.9,0,4.3,1.4,4.3,5.4h-5.7c0.2,1.7,1.1,2.3,2.6,2.3c0.9,0,1.8-0.1,2.7-0.4
		v1.7c-1.1,0.7-2.3,1-3.6,0.9C145.5,13.6,143.8,11.8,143.7,8.6 M149.7,7.5c0-1.5-0.5-1.9-1.2-1.9s-1.3,0.5-1.4,2L149.7,7.5z"/>
	<polygon class="st0" points="155.4,11.6 156.7,11.3 156.7,3.1 155.4,2.8 155.4,1 160.5,1 164.5,8 164.6,8 164.6,3.1 163.3,2.8 
		163.3,1 168,1 168,2.8 166.9,3.1 166.9,13.4 163.7,13.4 159.1,5.2 159,5.2 159,11.4 160.3,11.6 160.3,13.4 155.4,13.4 	"/>
	<path class="st0" d="M167.8,8.6c0-3.1,1.9-4.9,4.8-4.9c2.9,0,4.3,1.4,4.3,5.4h-5.7c0.2,1.7,1.1,2.3,2.6,2.3c0.9,0,1.8-0.1,2.7-0.4
		v1.7c-1.1,0.7-2.3,1-3.6,0.9C169.6,13.6,167.8,11.8,167.8,8.6 M173.8,7.5c0-1.5-0.5-1.9-1.2-1.9s-1.3,0.5-1.4,2L173.8,7.5z"/>
	<polygon class="st0" points="177.8,5.7 177.1,5.5 177.1,3.8 181.8,3.8 181.8,5.5 181,5.7 182,9.5 182.1,9.5 183.8,3.8 186,3.8 
		187.7,9.5 187.8,9.5 188.7,5.7 188,5.5 188,3.8 191.9,3.8 191.9,5.5 191.2,5.7 188.9,13.4 186.1,13.4 184.5,8 184.5,8 182.9,13.4 
		180.1,13.4 	"/>
	<path class="st0" d="M192.4,13l-0.2-2.6h2l0.3,1.1c0.4,0.2,0.8,0.3,1.2,0.3c0.8,0,1.2-0.3,1.2-0.8c0-0.6-0.3-0.7-1.1-0.9l-1.1-0.3
		C193,9.5,192,8.6,192,7c0-1.9,1.3-3.2,4.2-3.2c1.1,0,2.1,0.2,3.1,0.5v2.5h-2l-0.2-0.9c-0.3-0.2-0.7-0.3-1.1-0.2
		c-0.7,0-1.2,0.2-1.2,0.8s0.3,0.7,1.3,0.9l1.1,0.3c1.9,0.4,2.6,1.4,2.6,2.8c0,2-1.3,3.4-4.5,3.4C194.5,13.6,193.4,13.4,192.4,13"/>
	<polygon class="st0" points="0,11.6 1.2,11.3 1.2,3.1 0,2.8 0,1 5,1 9,8 9.1,8 9.1,3.1 7.9,2.8 7.9,1 12.5,1 12.5,2.8 11.5,3.1 
		11.5,13.4 8.2,13.4 3.7,5.2 3.6,5.2 3.6,11.3 4.8,11.6 4.8,13.4 0,13.4 	"/>
	<path class="st0" d="M12.3,11c0-1.9,1.3-2.5,3.4-2.8l1.7-0.3V7.4c0-1-0.3-1.3-1.8-1.3c-0.8,0-1.6,0-2.4,0.2V4.4
		c1.3-0.4,2.6-0.6,4-0.7c2.4,0,3.5,1,3.5,3.1V11c0,0.4,0.3,0.6,0.6,0.6h0.3v1.6c-0.6,0.3-1.2,0.4-1.9,0.4c-1.1,0-1.7-0.3-1.9-1.1
		h-0.1C17,13.2,16,13.6,15,13.6C13.3,13.6,12.2,12.5,12.3,11 M17.3,11.4v-2h-0.8c-0.7,0-1.1,0.4-1.1,1.2s0.3,1.2,1,1.2
		C16.8,11.7,17.1,11.6,17.3,11.4"/>
	<path class="st0" d="M55.3,11c0-1.9,1.3-2.5,3.4-2.8l1.7-0.3V7.4c0-1-0.3-1.3-1.8-1.3c-0.8,0-1.6,0-2.4,0.2V4.4
		c1.3-0.4,2.6-0.6,4-0.7c2.4,0,3.5,1,3.5,3.1V11c0,0.4,0.3,0.6,0.6,0.6h0.3v1.6c-0.6,0.3-1.2,0.4-1.9,0.4c-1,0-1.7-0.3-1.9-1.1h-0.1
		c-0.6,0.8-1.6,1.2-2.6,1.1C56.3,13.6,55.2,12.5,55.3,11 M60.3,11.4v-2h-0.8c-0.7,0-1,0.4-1,1.2s0.3,1.2,0.9,1.2
		C59.7,11.7,60.1,11.6,60.3,11.4"/>
	<path class="st0" d="M22.3,10.9V5.8h-1V4.3l1.3-0.5L23,1.6h2.5v2.2h1.9v2h-1.9v4.6c0,0.8,0.4,1.1,1.1,1.1c0.3,0,0.6,0,0.9-0.1v1.7
		c-0.7,0.4-1.5,0.6-2.3,0.5C23.4,13.5,22.3,12.9,22.3,10.9"/>
	<path class="st0" d="M109.3,10.9V5.8h-1V4.3l1.3-0.5l0.4-2.2h2.5v2.2h1.9v2h-1.9v4.6c0,0.8,0.4,1.1,1.1,1.1c0.3,0,0.6,0,0.9-0.1
		v1.7c-0.7,0.4-1.5,0.6-2.3,0.5C110.3,13.5,109.3,12.9,109.3,10.9"/>
	<path class="st0" d="M28.6,11.8l1-0.3V6.1l-1.1-0.3V4.2l4-0.4l0.3,0.1v7.6l0.9,0.3v1.6h-5.1V11.8z M29.4,1.6c0-0.9,0.8-1.6,1.7-1.6
		h0.1c1,0,1.8,0.6,1.8,1.6c0,0.9-0.8,1.7-1.7,1.6l0,0c-0.9,0.1-1.7-0.6-1.8-1.4l0,0C29.4,1.6,29.4,1.6,29.4,1.6"/>
	<path class="st0" d="M43.9,11.8l1-0.3V6.1l-1-0.3V4.2l3.9-0.4l0.3,0.1v1h0.1c0.8-0.7,2-1.1,3.1-1.1c1.4,0,2.5,0.6,2.5,2.3v5.4
		l0.9,0.3v1.6h-5v-1.6l0.7-0.2V7.2c0-0.8-0.3-1-1.1-1c-0.4,0-0.8,0.1-1.2,0.2v5.1l0.7,0.2v1.6h-5L43.9,11.8L43.9,11.8z"/>
	<polygon class="st0" points="65.2,11.8 66.2,11.5 66.2,2.4 65.1,2.1 65.1,0.5 69.2,0.1 69.5,0.2 69.5,11.5 70.5,11.8 70.5,13.4 
		65.2,13.4 	"/>
</g>
</svg>
