<?xml version="1.0" encoding="utf-8"?>
<!-- Generator: Adobe Illustrator 26.0.3, SVG Export Plug-In . SVG Version: 6.00 Build 0)  -->
<svg version="1.1" id="nextadvisor" xmlns="http://www.w3.org/2000/svg" xmlns:xlink="http://www.w3.org/1999/xlink" x="0px"
	 y="0px" viewBox="0 0 180 39.8" style="enable-background:new 0 0 180 39.8;" xml:space="preserve">
<style type="text/css">
	.st0{fill:#767676;}
	.st1{fill:url(#SVGID_1_);}
	.st2{fill-rule:evenodd;clip-rule:evenodd;fill:url(#SVGID_00000154419573458710795000000010467924994543284632_);}
	.st3{fill-rule:evenodd;clip-rule:evenodd;fill:#44CB8B;}
	.st4{fill-rule:evenodd;clip-rule:evenodd;fill:url(#SVGID_00000047061878861025269220000007569381182297669045_);}
</style>
<g>
	<g>
		<path d="M16,2.5l1,0.3c0.4,0.1,0.7,0.3,0.8,0.7c0.2,0.4,0.3,0.7,0.3,1.1v12L7.6,2.2H0v0.3L0.5,3C0.8,3.3,1,3.5,1.2,3.7
			c0.2,0.2,0.3,0.4,0.5,0.7C1.8,4.7,2,5,2.3,5.5v15.4c0,0.4-0.1,0.8-0.3,1.1c-0.2,0.3-0.5,0.5-0.8,0.6l-1,0.3v0.3H5v-0.3l-1-0.3
			c-0.4-0.1-0.7-0.3-0.8-0.6C3.1,21.6,3,21.2,3,20.9V6.6l12.1,16.7h3.7V4.6c0-0.4,0-0.7,0.1-1.1C19,3.2,19.2,3,19.6,2.8l0.9-0.3V2.2
			H16V2.5z M81.5,22.3c-0.3-0.3-0.4-0.7-0.6-1.1L74.5,2.3h-4.3l-6.5,18.8c-0.1,0.4-0.3,0.7-0.6,1c-0.2,0.2-0.6,0.4-1,0.6
			c-0.5,0.2-1,0.3-1.5,0.3c-0.6,0-1.6-0.2-2.5-1.6c-0.3-0.4-0.3-1-0.3-1.7V8.3h3.6V7.7h-3.5L58,3.3h-0.3l-2.6,2.9
			c-0.4,0.4-0.9,0.8-1.4,1.1c-0.5,0.2-1.8,0.6-2.6,0.6C50.7,7.9,49.7,8,49,8h-2.7v0.3l0.8,0.2h0.1c0.3,0.1,0.5,0.3,0.5,0.5
			s-0.1,0.5-0.3,0.9l-2.8,4l-2.6-4c-0.4-0.7-0.3-1.2,0.4-1.4L43,8.3V8h-8v0.3l0.4,0.1c0.4,0.2,0.6,0.3,0.8,0.5s0.4,0.5,0.6,0.7
			l4.3,6.9l-3.4,4.9c-0.2,0.4-0.5,0.7-0.9,0.9c-0.4,0.2-0.8,0.4-1.2,0.5L34.8,23v0.3h4.7V23l-0.6-0.2c-0.3-0.1-0.6-0.2-0.6-0.5
			s0-0.5,0.2-0.9l3-4.4l2.8,4.3c0.2,0.3,0.3,0.6,0.2,0.9s-0.3,0.4-0.7,0.5l-0.5,0.1v0.3H52v-0.3l-0.5-0.2c-0.9-0.2-1.6-0.8-2.1-1.6
			L45,14.5l3.3-4.5c0.4-0.5,0.5-0.7,0.8-0.8c0.3-0.2,0.5-0.3,1.1-0.4c1.2-0.2,2.4-0.2,3.1-0.2h0.1v10.6c0,1.5,0.4,2.6,1.1,3.2
			c0.7,0.7,1.8,1,3.1,1h8v-0.3L65,22.7c-0.4-0.2-0.7-0.4-0.7-0.7c-0.1-0.3,0-0.6,0.1-1.1l1.5-4.5h7l1.5,4.6c0.1,0.4,0.1,0.8,0,1.1
			c-0.1,0.3-0.4,0.5-0.8,0.7L73.1,23v0.3h9.6V23l-0.2-0.1C82,22.7,81.7,22.5,81.5,22.3z M66.1,15.8l3.5-9.9l3.2,9.9
			C72.8,15.8,66.1,15.8,66.1,15.8z M97.7,22.4c-0.2-0.3-0.2-0.7-0.2-1V5.8l0.1-4.5L97.3,1l-5.8,1.4v0.3l0.6,0.1
			C92.5,2.9,92.8,3,93,3.2c0.1,0.2,0.2,0.5,0.2,1v4.1C92.6,8,92,7.8,91.4,7.6c-0.7-0.2-1.4-0.2-2.1-0.2c-1.2,0-2.4,0.3-3.5,0.9
			c-1.1,0.6-1.9,1.5-2.6,2.7s-1,2.8-1,4.6s0.3,3.4,0.9,4.5c0.6,1.2,1.4,2,2.4,2.6s2.2,0.9,3.4,0.8c0.8,0,1.6-0.1,2.4-0.4
			c0.7-0.2,1.3-0.5,1.9-0.9l0.3,1.1l5.4-0.4v-0.3l-0.3-0.1C98.1,22.8,97.8,22.6,97.7,22.4z M93,21.9c-0.7,0.5-1.6,0.8-2.4,0.8
			c-1.1,0-2-0.5-2.6-1.5c-0.7-1-1-2.8-1-5.3s0.4-4.4,1.1-5.6s1.6-1.8,2.6-1.8c0.8,0,1.6,0.3,2.4,0.8C93,9.2,93,21.9,93,21.9z
			 M116.5,5.2c0.5,0.5,1.1,0.7,1.8,0.7c0.7,0,1.3-0.2,1.8-0.7c0.5-0.4,0.7-1.1,0.7-1.7c0-0.7-0.2-1.3-0.7-1.8
			C119.6,1.3,119,1,118.3,1s-1.3,0.2-1.8,0.7c-0.5,0.4-0.7,1-0.7,1.8C115.7,4.1,116,4.8,116.5,5.2z M120.8,22.4
			c-0.2-0.3-0.2-0.6-0.2-1v-8.9l0.1-4.1l-0.3-0.3h-9.7v0.3l0.8,0.2c0.4,0.1,0.7,0.3,0.8,0.6c0.1,0.3,0,0.6-0.1,1.1l-3.1,8.8
			l-3.3-8.9c-0.3-0.9-0.1-1.4,0.8-1.7l0.6-0.1V8H99v0.3l0.4,0.1c0.7,0.2,1.3,0.7,1.5,1.4l5.6,13.5h1.8l4.6-13.4
			c0.1-0.4,0.3-0.7,0.6-1c0.3-0.2,0.6-0.4,0.9-0.5l0.2-0.1h0.1c0.3-0.1,0.6,0,0.9,0.1c0.1,0.1,0.2,0.2,0.3,0.3
			c0.2,0.2,0.2,0.6,0.2,1v11.4c0,0.4-0.1,0.7-0.2,1c-0.2,0.3-0.4,0.4-0.9,0.6l-0.4,0.1v0.3h7.4v-0.3l-0.3-0.1
			C121.3,22.8,121,22.6,120.8,22.4L120.8,22.4z M131.3,13.8l-1.4-0.4c-1.1-0.4-1.9-0.8-2.4-1.2s-0.8-1-0.8-1.7s0.3-1.4,0.9-1.7
			c0.6-0.4,1.3-0.6,2-0.6c0.8,0,1.4,0.1,1.8,0.4c0.4,0.3,0.8,0.8,1.2,1.5l1.1,2h0.3l0.2-3.4c-0.7-0.4-1.4-0.6-2.1-0.8
			c-0.8-0.2-1.5-0.3-2.3-0.3c-2,0-3.6,0.5-4.7,1.5s-1.6,2.2-1.6,3.6c0,1.2,0.4,2.2,1.1,3c0.7,0.8,1.7,1.4,3,1.8l1.3,0.4
			c1.2,0.4,2,0.8,2.5,1.2c0.4,0.4,0.7,1,0.7,1.7s-0.3,1.4-0.9,1.8c-0.6,0.5-1.4,0.7-2.5,0.7c-0.9,0-1.6-0.2-2.1-0.6
			c-0.6-0.4-1.1-1-1.5-1.9l-1.1-1.9h-0.3v3.8c0.7,0.4,1.5,0.7,2.3,0.9c0.9,0.3,1.8,0.4,2.8,0.4c2.2,0,3.9-0.5,5.1-1.4
			c1.2-0.9,1.8-2.2,1.8-3.7c0-1.1-0.3-2.1-1-2.9C133.9,14.9,132.8,14.3,131.3,13.8L131.3,13.8z M148.8,8.5c-1.2-0.6-2.5-1-4-1
			s-2.8,0.3-4,1c-1.2,0.6-2.2,1.6-2.8,2.8c-0.7,1.2-1,2.6-1,4.3s0.3,3.1,1,4.3c0.6,1.2,1.6,2.2,2.7,2.9c1.2,0.7,2.6,1,4.2,1
			s3-0.3,4.2-1s2.1-1.6,2.7-2.8c0.6-1.2,1-2.7,1-4.3s-0.3-3.1-1-4.3C150.9,10.1,150,9.2,148.8,8.5z M147.5,20.3
			c-0.2,1.1-0.5,1.8-1,2.3c-0.4,0.4-1,0.6-1.8,0.6c-0.7,0-1.3-0.2-1.8-0.6s-0.8-1.2-1-2.3c-0.2-1.1-0.3-2.6-0.3-4.6s0.1-3.5,0.3-4.6
			s0.5-1.8,1-2.3c0.5-0.4,1-0.6,1.8-0.6c0.7,0,1.3,0.2,1.8,0.6c0.4,0.4,0.8,1.2,1,2.3s0.3,2.6,0.3,4.6S147.7,19.2,147.5,20.3z
			 M165.8,8.2c-0.4-0.4-1-0.7-1.8-0.7c-0.6,0-1.2,0.2-1.7,0.5c-0.6,0.3-1.1,0.7-1.6,1.2s-0.9,1-1.2,1.6v-0.3l-0.2-2.6L159,7.6
			l-5.4,1.8v0.3l0.4,0.2c0.4,0.1,0.7,0.2,0.9,0.5c0.2,0.2,0.2,0.6,0.2,1v10c0,0.3-0.1,0.7-0.2,1c-0.2,0.3-0.4,0.4-0.9,0.6l-0.5,0.1
			v0.3h8.2v-0.3l-1-0.3c-0.7-0.2-1.1-0.7-1.1-1.6v-8.9c0.1-0.3,0.2-0.6,0.4-0.9c0.1-0.3,0.3-0.5,0.5-0.7c0.2-0.3,0.5-0.4,0.8-0.4
			s0.5,0.2,0.7,0.5l0.1,0.1c0.7,0.9,1.5,1.3,2.3,1.3c0.5,0,1.1-0.2,1.5-0.6c0.4-0.4,0.6-0.9,0.6-1.7C166.5,9.3,166.3,8.7,165.8,8.2
			L165.8,8.2z"/>
		<path d="M34.7,19.8c-0.5,0.6-1.1,1.1-1.8,1.5c-0.7,0.3-1.5,0.5-2.6,0.5c-1.6,0-2.7-0.5-3.5-1.5s-1.2-2.7-1.2-5H35
			c0.1-0.2,0.1-0.4,0.1-0.7c0-0.2,0-0.5,0-0.7c0-1.2-0.3-2.3-0.8-3.3S33,8.8,32.1,8.3c-1-0.6-2.1-0.8-3.5-0.8c-1.3,0-2.6,0.3-3.8,1
			c-1.2,0.6-2.2,1.6-2.9,2.8c-0.8,1.2-1.1,2.7-1.1,4.4s0.3,3.1,1,4.3c0.6,1.2,1.6,2.1,2.7,2.8c1.2,0.7,2.5,1,4,1s2.8-0.3,3.9-1
			c1.1-0.7,2-1.6,2.6-2.7L34.7,19.8z M25.9,10.7c0.2-0.9,0.6-1.6,1-2s1-0.6,1.5-0.6c1.1,0,1.8,0.5,2.2,1.5s0.5,2.7,0.2,5h-5.3
			C25.6,13,25.7,11.7,25.9,10.7L25.9,10.7z"/>
	</g>
	<path class="st0" d="M24.3,37.7v-7.5h-1v7.5H24.3z M27.1,37.7v-4c0.3-0.4,1-0.8,1.7-0.8c0.8,0,1.3,0.3,1.3,1.3v3.6H31v-3.9
		c0-1.2-0.6-1.8-1.8-1.8c-0.9,0-1.6,0.5-2,0.9v-0.8h-0.9v5.5L27.1,37.7z M37,37.7v-3h2.2c1.6,0,2.5-1,2.5-2.3c0-1.3-0.9-2.3-2.5-2.3
		H36v7.5C36,37.7,37,37.7,37,37.7z M39.1,33.9H37V31h2.1c0.9,0,1.6,0.6,1.6,1.4C40.7,33.2,40,33.9,39.1,33.9z M44.5,37.9
		c0.8,0,1.4-0.3,1.9-0.8v0.6h0.9v-3.8c0-1.3-1-1.8-2.2-1.8c-0.9,0-1.7,0.3-2.3,0.9l0.4,0.6c0.5-0.5,1.1-0.8,1.7-0.8
		c0.8,0,1.4,0.4,1.4,1.1v1c-0.5-0.5-1.1-0.7-1.9-0.7c-1,0-2,0.6-2,1.8C42.5,37.2,43.5,37.9,44.5,37.9z M44.8,37.2
		c-0.8,0-1.4-0.5-1.4-1.2s0.6-1.2,1.4-1.2c0.6,0,1.2,0.2,1.6,0.7v1C46,37,45.4,37.2,44.8,37.2z M50,37.7v-3.9c0.3-0.4,1-0.9,1.6-0.9
		c0.1,0,0.2,0,0.3,0V32c-0.8,0-1.4,0.4-1.9,1v-0.9h-0.9v5.5H50V37.7z M54.6,37.9c0.5,0,0.8-0.1,1.1-0.4l-0.3-0.6
		c-0.1,0.1-0.3,0.2-0.6,0.2c-0.4,0-0.6-0.3-0.6-0.7V33h1.2v-0.7h-1.2v-1.5h-0.9v1.5h-0.9V33h0.9v3.6C53.3,37.4,53.7,37.9,54.6,37.9z
		 M57.6,37.7v-4c0.3-0.4,1-0.8,1.7-0.8c0.8,0,1.3,0.3,1.3,1.3v3.6h0.9v-3.9c0-1.2-0.6-1.8-1.8-1.8c-0.9,0-1.6,0.5-2,0.9v-0.8h-0.9
		v5.5C56.7,37.7,57.6,37.7,57.6,37.7z M65.9,37.9c0.9,0,1.7-0.3,2.3-0.8l-0.4-0.6c-0.5,0.5-1.1,0.7-1.8,0.7c-1.2,0-2-0.9-2-1.9h4.6
		v-0.2c0-1.6-1-2.9-2.7-2.9c-1.6,0-2.8,1.3-2.8,2.9C63,36.7,64.2,37.9,65.9,37.9z M67.6,34.6h-3.7c0-0.8,0.6-1.8,1.9-1.8
		C67.1,32.8,67.6,33.8,67.6,34.6z M70.9,37.7v-3.9c0.3-0.4,1-0.9,1.6-0.9c0.1,0,0.2,0,0.3,0V32c-0.8,0-1.4,0.4-1.9,1v-0.9H70v5.5
		L70.9,37.7z M75.9,37.9c1.5,0,2.2-0.7,2.2-1.7c0-2.1-3.5-1.3-3.5-2.5c0-0.5,0.5-0.9,1.3-0.9c0.7,0,1.4,0.3,1.7,0.7l0.4-0.6
		c-0.4-0.4-1.1-0.8-2.1-0.8c-1.4,0-2.1,0.7-2.1,1.6c0,2,3.5,1.2,3.5,2.5c0,0.5-0.5,0.9-1.4,0.9c-0.8,0-1.5-0.4-1.9-0.8l-0.4,0.6
		C74.1,37.6,74.9,37.9,75.9,37.9z M80.5,37.7v-4c0.3-0.4,1-0.8,1.7-0.8c0.8,0,1.3,0.3,1.3,1.2v3.6h0.9v-3.8c0-1.2-0.6-1.7-1.8-1.7
		c-0.9,0-1.6,0.5-2,0.9v-2.9h-0.9v7.5C79.7,37.7,80.5,37.7,80.5,37.7z M86.7,31.5c0.3,0,0.6-0.2,0.6-0.6c0-0.3-0.3-0.6-0.6-0.6
		s-0.6,0.3-0.6,0.6S86.4,31.5,86.7,31.5z M87.1,37.7v-5.5h-0.9v5.5H87.1z M89.9,39.8v-2.9c0.5,0.6,1.1,1,1.9,1
		c1.5,0,2.5-1.1,2.5-2.9c0-1.8-1-2.9-2.5-2.9c-0.8,0-1.5,0.4-1.9,1v-0.8H89v7.5C89,39.8,89.9,39.8,89.9,39.8z M91.6,37.1
		c-0.7,0-1.4-0.4-1.7-0.9v-2.5c0.3-0.5,1-0.9,1.7-0.9c1.1,0,1.8,0.9,1.8,2.1S92.7,37.1,91.6,37.1z M101,37.7l1.5-4.4l1.5,4.4h0.9
		l1.8-5.5h-0.9l-1.4,4.4l-1.5-4.4h-0.8l-1.5,4.4l-1.4-4.4h-0.9l1.8,5.5H101z M108.2,31.5c0.3,0,0.6-0.2,0.6-0.6
		c0-0.3-0.3-0.6-0.6-0.6s-0.6,0.3-0.6,0.6S107.9,31.5,108.2,31.5z M108.7,37.7v-5.5h-0.9v5.5H108.7z M112,37.9
		c0.5,0,0.8-0.1,1.1-0.4l-0.3-0.6c-0.1,0.1-0.3,0.2-0.6,0.2c-0.4,0-0.6-0.3-0.6-0.7V33h1.2v-0.7h-1.2v-1.5h-0.9v1.5h-0.9V33h0.9v3.6
		C110.7,37.4,111.2,37.9,112,37.9z M115,37.7v-4c0.3-0.4,1-0.8,1.7-0.8c0.8,0,1.3,0.3,1.3,1.2v3.6h0.9v-3.8c0-1.2-0.6-1.7-1.8-1.7
		c-0.9,0-1.6,0.5-2,0.9v-2.9h-0.9v7.5C114.1,37.7,115,37.7,115,37.7z M126.9,37.7V31h2.5v-0.8h-6V31h2.5v6.7H126.9z M131.8,37.7
		v-7.5h-1v7.5H131.8z M134.7,37.7v-6.3l2.7,6.3h0.4l2.7-6.3v6.3h1v-7.5H140l-2.4,5.8l-2.5-5.8h-1.4v7.5H134.7z M148.5,37.7v-0.8
		h-4.2v-2.6h4.1v-0.8h-4.1v-2.4h4.2v-0.8h-5.2v7.5h5.2V37.7z"/>
	<g>
		
			<linearGradient id="SVGID_1_" gradientUnits="userSpaceOnUse" x1="-7.7666" y1="-31.3007" x2="-8.6225" y2="-31.1843" gradientTransform="matrix(2.323205e-16 3.7941 -1.6332 1.000048e-16 120.9916 35.1689)">
			<stop  offset="0" style="stop-color:#24B972"/>
			<stop  offset="0.3957" style="stop-color:#44CB8B"/>
			<stop  offset="1" style="stop-color:#0D9B6E"/>
		</linearGradient>
		<path class="st1" d="M173,1.1v3.7c0,0.1-0.1,0.2-0.2,0.2h-1.7c-0.1,0-0.2-0.1-0.2-0.2V1.1c0-0.6,0.5-1.1,1.1-1.1
			C172.5,0,173,0.5,173,1.1z"/>
		
			<linearGradient id="SVGID_00000131364165552527397730000014931650148656247730_" gradientUnits="userSpaceOnUse" x1="-2.2393" y1="-1.2965" x2="-0.4779" y2="-0.1746" gradientTransform="matrix(6.9413 0 0 5.4485 183.6268 7.0174)">
			<stop  offset="0" style="stop-color:#0D9B6E"/>
			<stop  offset="0.4744" style="stop-color:#5BFFB1"/>
			<stop  offset="0.6404" style="stop-color:#5BFFB1"/>
			<stop  offset="1" style="stop-color:#5BFFB1"/>
		</linearGradient>
		<path style="fill-rule:evenodd;clip-rule:evenodd;fill:url(#SVGID_00000131364165552527397730000014931650148656247730_);" d="
			M179.5,5.2l-7-5C172-0.1,171.4,0,171,0.5c-0.1,0.2-0.2,0.4-0.2,0.7l0,0v1.4c0-0.2,0.2-0.4,0.5-0.4c0.1,0,0.3,0,0.4,0.1l6.6,4.7
			c0.2,0.2,0.6,0.2,0.9,0.2c0.3-0.1,0.5-0.3,0.7-0.5C180.1,6.1,179.9,5.5,179.5,5.2z"/>
		<path class="st3" d="M179.8,5.5c-0.1-0.1-0.2-0.2-0.3-0.3l0,0l-1.1-0.8c0.1,0.1,0.1,0.2,0.1,0.3c0,0.2-0.1,0.3-0.3,0.5l-7,5
			c-0.5,0.3,0.2,0.4,0.5,0.8l-0.2,0.2c0.3,0.5,0.5,1.1,1,0.7l7-5C180,6.6,180.1,5.9,179.8,5.5z"/>
		
			<linearGradient id="SVGID_00000013903244370804259100000013710886306772700607_" gradientUnits="userSpaceOnUse" x1="14.634" y1="-1.0885" x2="15.0975" y2="1.6539" gradientTransform="matrix(2.1452 0 0 3.7944 140.4618 10.6445)">
			<stop  offset="0" style="stop-color:#2DCA7F"/>
			<stop  offset="0.3406" style="stop-color:#5BFFB1"/>
			<stop  offset="0.4856" style="stop-color:#5BFFB1"/>
			<stop  offset="0.7857" style="stop-color:#5BFFB1"/>
			<stop  offset="1" style="stop-color:#1CE586"/>
		</linearGradient>
		<path style="fill-rule:evenodd;clip-rule:evenodd;fill:url(#SVGID_00000013903244370804259100000013710886306772700607_);" d="
			M173.7,11.2c-0.2,0.1-0.4,0-0.6-0.2c-0.1-0.1-0.1-0.2-0.1-0.4V7.4c0-0.1-0.1-0.2-0.2-0.2h-1.7c-0.1,0-0.2,0.1-0.2,0.2v3.7
			c0,0.6,0.5,1.1,1.1,1.1c0.2,0,0.5-0.1,0.7-0.2l0,0C172.6,11.9,173.7,11.2,173.7,11.2z"/>
	</g>
</g>
</svg>
