<svg xmlns="http://www.w3.org/2000/svg" viewBox="0 -0.03 719.33 99.07">
    <g fill="none" fill-rule="evenodd" transform="">
        <path fill="#000" d="m138.104 67.8-.06-25.2-12.36 20.76h-4.38l-12.3-20.22v24.66h-9.12v-42h8.04l15.72 26.1 15.48-26.1h7.98l.12 42zm36.42.72c-4.360022 0-8.289983-.9399906-11.79-2.82-3.500018-1.8800094-6.23999-4.4699835-8.22-7.77s-2.97-7.0099794-2.97-11.13.98999-7.8299835 2.97-11.13 4.719982-5.8899906 8.22-7.77c3.500017-1.8800094 7.429978-2.82 11.79-2.82s8.279983.9399906 11.76 2.82 6.21999 4.4699835 8.22 7.77 3 7.0099794 3 11.13-.99999 7.8299835-3 11.13-4.739983 5.8899906-8.22 7.77-7.399978 2.82-11.76 2.82zm0-8.28c2.480012 0 4.71999-.5699943 6.72-1.71s3.569994-2.7299898 4.71-4.77 1.71-4.359987 1.71-6.96-.569994-4.9199898-1.71-6.96-2.70999-3.6299943-4.71-4.77-4.239988-1.71-6.72-1.71-4.71999.5699943-6.72 1.71-3.569994 2.7299898-4.71 4.77-1.71 4.359987-1.71 6.96.569994 4.9199898 1.71 6.96 2.70999 3.6299943 4.71 4.77 4.239988 1.71 6.72 1.71zm54.06 7.56-8.1-11.7h-8.94v11.7h-9.72v-42h18.18c3.720019 0 6.949986.6199938 9.69 1.86s4.849993 2.9999886 6.33 5.28 2.22 4.9799844 2.22 8.1-.749993 5.8099887-2.25 8.07c-1.500008 2.2600113-3.629986 3.989994-6.39 5.19l9.42 13.5zm-.18-26.76c0-2.3600118-.759992-4.1699937-2.28-5.43s-3.739985-1.89-6.66-1.89h-7.92v14.64h7.92c2.920015 0 5.139992-.6399936 6.66-1.92s2.28-3.0799884 2.28-5.4zm22.62-7.32h-13.44v-7.92h36.6v7.92h-13.44v34.08h-9.72zm53.16 12.42h8.88v17.04c-2.280011 1.7200086-4.919985 3.0399954-7.92 3.96s-6.019985 1.38-9.06 1.38c-4.360022 0-8.279983-.9299907-11.76-2.79s-6.20999-4.4399835-8.19-7.74-2.97-7.0299792-2.97-11.19.98999-7.8899835 2.97-11.19 4.729982-5.8799907 8.25-7.74 7.479978-2.79 11.88-2.79c3.680018 0 7.019985.6199938 10.02 1.86s5.51999 3.0399882 7.56 5.4l-6.24 5.76c-3.000015-3.1600158-6.619979-4.74-10.86-4.74-2.680013 0-5.05999.5599944-7.14 1.68s-3.699994 2.6999898-4.86 4.74-1.74 4.3799868-1.74 7.02c0 2.600013.579994 4.9199898 1.74 6.96s2.76999 3.6299943 4.83 4.77 4.409987 1.71 7.05 1.71c2.800014 0 5.319989-.599994 7.56-1.8zm42.54 12.66h-19.5l-3.72 9h-9.96l18.72-42h9.6l18.78 42h-10.2zm-3.06-7.38-6.66-16.08-6.66 16.08zm46.14-5.28h8.88v17.04c-2.280011 1.7200086-4.919985 3.0399954-7.92 3.96s-6.019985 1.38-9.06 1.38c-4.360022 0-8.279983-.9299907-11.76-2.79s-6.20999-4.4399835-8.19-7.74-2.97-7.0299792-2.97-11.19.98999-7.8899835 2.97-11.19 4.729982-5.8799907 8.25-7.74 7.479978-2.79 11.88-2.79c3.680018 0 7.019985.6199938 10.02 1.86s5.51999 3.0399882 7.56 5.4l-6.24 5.76c-3.000015-3.1600158-6.619979-4.74-10.86-4.74-2.680013 0-5.05999.5599944-7.14 1.68s-3.699994 2.6999898-4.86 4.74-1.74 4.3799868-1.74 7.02c0 2.600013.579994 4.9199898 1.74 6.96s2.76999 3.6299943 4.83 4.77 4.409987 1.71 7.05 1.71c2.800014 0 5.319989-.599994 7.56-1.8zm47.4 13.86v7.8h-32.52v-42h31.74v7.8h-22.08v9.12h19.5v7.56h-19.5v9.72zm50.22 7.8-10.02-14.04c-1.480007.200001-2.839994.3-4.08.3h-12v13.74h-3.06v-42h15.06c5.280026 0 9.419985 1.2499875 12.42 3.75s4.5 5.9699778 4.5 10.41c0 3.3200166-.849991 6.1099887-2.55 8.37-1.700008 2.2600113-4.129984 3.8499954-7.29 4.77l10.5 14.7zm-14.1-16.44c4.480022 0 7.899988-.9899901 10.26-2.97s3.54-4.7899818 3.54-8.43-1.179988-6.4499901-3.54-8.43-5.779978-2.97-10.26-2.97h-12v22.8zm54.12 13.68v2.76h-28.98v-42h28.08v2.76h-25.02v16.56h22.38v2.7h-22.38v17.22zm23.22-39.24c5.280026 0 9.419985 1.2499875 12.42 3.75s4.5 5.9699778 4.5 10.41c0 4.400022-1.499985 7.8499875-4.5 10.35s-7.139974 3.75-12.42 3.75h-12v13.74h-3.06v-42zm0 25.5c4.480022 0 7.899988-.9799902 10.26-2.94s3.54-4.7599818 3.54-8.4-1.179988-6.4499901-3.54-8.43-5.779978-2.97-10.26-2.97h-12v22.74zm42.66 16.8c-4.120021 0-7.839983-.9299907-11.16-2.79s-5.92999-4.4099838-7.83-7.65c-1.900009-3.2400162-2.85-6.85998-2.85-10.86s.949991-7.6199838 2.85-10.86c1.90001-3.2400162 4.509983-5.7899907 7.83-7.65s7.039979-2.79 11.16-2.79 7.839983.9199908 11.16 2.76 5.929991 4.3799838 7.83 7.62c1.90001 3.2400162 2.85 6.8799798 2.85 10.92s-.94999 7.6799838-2.85 10.92c-1.900009 3.2400162-4.509983 5.7799908-7.83 7.62s-7.039979 2.76-11.16 2.76zm0-2.82c3.520018 0 6.699986-.799992 9.54-2.4s5.079992-3.8099859 6.72-6.63 2.46-5.9699826 2.46-9.45-.819992-6.6299859-2.46-9.45-3.879986-5.029992-6.72-6.63-6.019982-2.4-9.54-2.4-6.709986.799992-9.57 2.4-5.109992 3.8099859-6.75 6.63-2.46 5.9699826-2.46 9.45.819992 6.6299859 2.46 9.45 3.889986 5.029992 6.75 6.63 6.049982 2.4 9.57 2.4zm58.62 2.52-10.02-14.04c-1.480007.200001-2.839994.3-4.08.3h-12v13.74h-3.06v-42h15.06c5.280026 0 9.419985 1.2499875 12.42 3.75s4.5 5.9699778 4.5 10.41c0 3.3200166-.849992 6.1099887-2.55 8.37-1.700009 2.2600113-4.129984 3.8499954-7.29 4.77l10.5 14.7zm-14.1-16.44c4.480022 0 7.899988-.9899901 10.26-2.97s3.54-4.7899818 3.54-8.43-1.179988-6.4499901-3.54-8.43-5.779978-2.97-10.26-2.97h-12v22.8zm32.58-22.8h-15.12v-2.76h33.3v2.76h-15.12v39.24h-3.06zm33.78 39.54c-3.080015 0-6.009986-.5299947-8.79-1.59s-4.949992-2.4299916-6.51-4.11l1.38-2.28c1.480007 1.5600078 3.469987 2.8299951 5.97 3.81 2.500012.9800049 5.129986 1.47 7.89 1.47 4.00002 0 7.01999-.7599924 9.06-2.28s3.06-3.4999878 3.06-5.94c0-1.8800094-.539995-3.3799944-1.62-4.5s-2.419992-1.979997-4.02-2.58-3.759986-1.2199968-6.48-1.86c-3.080015-.7600038-5.549991-1.4999964-7.41-2.22s-3.439994-1.8299925-4.74-3.33c-1.300007-1.5000075-1.95-3.5099874-1.95-6.03 0-2.0400102.539995-3.9099915 1.62-5.61s2.729989-3.049995 4.95-4.05 4.989983-1.5 8.31-1.5c2.320012 0 4.599989.3399966 6.84 1.02s4.179992 1.5999942 5.82 2.76l-1.14 2.46c-1.680008-1.1600058-3.52999-2.039997-5.55-2.64s-4.00999-.9-5.97-.9c-3.880019 0-6.81999.7799922-8.82 2.34s-3 3.5799876-3 6.06c0 1.8800094.539995 3.3799944 1.62 4.5s2.419992 1.979997 4.02 2.58 3.779986 1.2399966 6.54 1.92c3.080015.7600038 5.539991 1.4999964 7.38 2.22s3.409993 1.8099927 4.71 3.27c1.300006 1.4600073 1.95 3.4299876 1.95 5.91 0 2.0400102-.549995 3.8999916-1.65 5.58-1.100006 1.6800084-2.789989 3.019995-5.07 4.02s-5.079983 1.5-8.4 1.5zm-600.636-65.46h-5.568v-2.64h14.256v2.64h-5.568v14.16h-3.12zm25.968-2.64v16.8h-3.12v-7.2h-8.688v7.2h-3.12v-16.8h3.12v6.936h8.688v-6.936zm17.112 14.184v2.616h-12.6v-16.8h12.264v2.616h-9.144v4.368h8.112v2.568h-8.112v4.632zm-40.761696 62.6185715c4.44344 0 7.261733 3.1885796 7.261733 8.2285926 0 5.0194414-2.838864 8.249164-7.282304 8.249164-4.422869 0-7.261733-3.2091511-7.261733-8.249164 0-4.99887 2.859436-8.2285926 7.282304-8.2285926zm.020572 14.7497522c3.18858 0 5.225156-2.5302922 5.225156-6.5005882 0-2.22172-.617144-3.9908674-1.769147-5.1428703-.905145-.9051452-2.118863-1.3782893-3.476581-1.3782893-3.209151 0-5.28687 2.5508637-5.28687 6.5005882 0 3.9291529 2.098291 6.5211596 5.307442 6.5211596zm12.248848 5.6365859h-2.118863c.102858-.8228593.144001-1.5017182.144001-2.4274348v-10.6354559c0-1.0491456-.041143-1.6868615-.144001-2.4685778h1.954291v1.0491456c0 .2468577 0 .3702866-.041143.8022877.987431-1.3988607 2.345149-2.0777196 4.176011-2.0777196 3.270865 0 5.245727 2.2011485 5.245727 5.8423007 0 3.5794378-2.036576 5.8628722-5.204584 5.8628722-1.789719 0-3.168009-.6582874-4.217154-1.9954337.041143.55543.061714.8640023.061714 1.4194323v2.180577c0 1.0491456.041143 1.6868615.144001 2.4480063zm3.764581-5.6365859c2.201148 0 3.538295-1.6045756 3.538295-4.2788682 0-2.694864-1.275432-4.2377251-3.517724-4.2377251-2.324577 0-3.908581 1.7485759-3.908581 4.2582966 0 1.2548604.432001 2.4480063 1.152003 3.1680082.658287.6788588 1.707433 1.0902885 2.736007 1.0902885zm18.296863-3.88801h-8.742879c.082286 1.3371463.288 2.0160052.822859 2.736007.637716.8640022 1.604575 1.3165748 2.797721 1.3165748 1.090289 0 1.995434-.3908581 2.63315-1.1314315.308572-.3291437.452573-.5965729.658287-1.1931459l1.728005.637716c-.390858.8640022-.658288 1.2754318-1.152003 1.7485759-.987431.9874311-2.304006 1.5017181-3.88801 1.5017181-3.33258 0-5.451443-2.3040059-5.451443-5.9657296 0-3.6000093 2.098291-5.9451581 5.307442-5.9451581 2.77715 0 4.731441 1.7485759 5.142871 4.6285833.041143.2057148.082286.6377159.144 1.66629zm-8.681165-1.5017182h6.747446c-.123429-1.069717-.432001-1.7691474-1.028574-2.3657203-.617145-.596573-1.398861-.8845737-2.36572-.8845737-1.213718 0-2.22172.5965729-2.838865 1.6868614-.288001.4937156-.390858.8228593-.514287 1.5634326zm18.955151-4.5051544-.534859 1.8720048c-.761145-.2468578-1.152003-.3085722-1.686861-.3085722-1.069717 0-1.892576.3908581-2.509721 1.1725744-.493715.637716-.678859 1.1314315-.781716 2.0777197v4.0731533c0 .9874311.041143 1.5840041.144 2.4274348h-2.160005c.123429-1.0080026.144-1.5017181.144-2.4274348v-6.4594452c0-1.0902885-.041143-1.66629-.144-2.4274348h2.016005v1.3988607c-.020572.1440004-.020572.1851434-.041143.3497152.349715-.5348585.596573-.8434307.946288-1.0902885.69943-.55543 1.645718-.8434307 2.715436-.8434307.637715 0 1.049145.0411429 1.892576.1851433zm9.574555 11.3143148v-1.3782893c-.781716.6788589-1.152003.9257167-1.830862 1.1725745-.69943.2674292-1.460575.3908581-2.262863.3908581-2.304006 0-3.723438-1.2137174-3.723438-3.2091511 0-1.584004 1.008003-2.8182929 2.77715-3.3942944 1.234289-.3908582 2.36572-.5348585 5.040013-.596573v-1.069717c0-1.3988607-.802288-2.0571482-2.550864-2.0571482-1.11086 0-1.933719.2880008-2.489149.8640023-.267429.2880007-.41143.55543-.596573 1.11086l-1.913148-.3702867c.370287-1.0285741.678859-1.5017181 1.275432-1.9748622.905145-.7611448 2.160006-1.1314315 3.74401-1.1314315 1.563432 0 2.694864.3497152 3.435437 1.069717.617145.5760015.884574 1.3577178.884574 2.4891493v5.7188718c0 1.0080026.041143 1.5017182.164572 2.3657204zm0-4.3817256v-1.2342888c-2.345149.0617144-3.497152.2057148-4.402297.5760014-1.028574.4114297-1.542861 1.0697171-1.542861 2.0160052 0 1.0697171.802288 1.7485759 2.098291 1.7485759 1.131432 0 2.36572-.514287 3.168008-1.3371462.493716-.5142871.678859-1.0080026.678859-1.7691475zm6.468262-10.0183114h2.160005c-.082286.6582874-.144 1.4605752-.144 2.3451489v.7405733h.946288c.96686 0 1.419432-.0205715 2.098291-.1234289v1.8102904c-.658287-.1028574-1.131431-.1234289-2.07772-.1234289h-.966859v6.9120178c0 .5965729.082286.8845737.288001 1.0902885.205714.1851433.55543.3085722.987431.3085722.55543 0 .966859-.1234289 1.604575-.4937156l.452573 1.66629c-.864002.3497152-1.52229.4731441-2.386292.4731441-.987431 0-1.728005-.2262863-2.180577-.6377159-.452573-.4320011-.637716-1.0491456-.637716-2.0982911v-7.22059h-.822859c-.720002 0-1.172575.041143-1.830862.1234289v-1.8102904c.576001.1028574.987431.1234289 1.851433.1234289h.802288v-.7405733c0-.8228593-.061714-1.6457185-.144-2.3451489zm17.535718 9.0925948h-8.742879c.082285 1.3371463.288 2.0160052.822859 2.736007.637716.8640022 1.604575 1.3165748 2.797721 1.3165748 1.090289 0 1.995434-.3908581 2.63315-1.1314315.308572-.3291437.452572-.5965729.658287-1.1931459l1.728005.637716c-.390858.8640022-.658288 1.2754318-1.152003 1.7485759-.987431.9874311-2.304006 1.5017181-3.88801 1.5017181-3.33258 0-5.451443-2.3040059-5.451443-5.9657296 0-3.6000093 2.098291-5.9451581 5.307442-5.9451581 2.77715 0 4.731441 1.7485759 5.142871 4.6285833.041143.2057148.082286.6377159.144 1.66629zm-8.681165-1.5017182h6.747446c-.123429-1.069717-.432001-1.7691474-1.028574-2.3657203-.617145-.596573-1.398861-.8845737-2.365721-.8845737-1.213717 0-2.22172.5965729-2.838864 1.6868614-.288001.4937156-.390858.8228593-.514287 1.5634326zm20.251154 6.8091604v-.9257167c0-.2468577.041143-.6171444.061715-.8845737-1.049146 1.3988608-2.324578 2.0160052-4.15544 2.0160052-1.501718 0-2.715435-.4320011-3.600009-1.2960033-1.069717-1.0697171-1.645718-2.6742926-1.645718-4.5874404 0-3.6000092 2.016005-5.8834437 5.204584-5.8834437 1.830862 0 3.270866.6994304 4.196583 2.0160052-.020572-.2262863-.020572-.2262863-.041143-.5760015-.020572-.1440003-.020572-.473144-.020572-.8022878v-2.4891492c0-1.0080026-.041143-1.66629-.144-2.4480063h2.118862c-.102857.8640022-.144 1.5017181-.144 2.4480063v10.9234566c0 1.0697171.041143 1.6868615.144 2.4891493zm-3.908581-9.956597c-2.180577 0-3.497152 1.6045755-3.497152 4.2171537 0 1.625147.452572 2.8800074 1.25486 3.5794377.596573.5142871 1.398861.7817163 2.262863.7817163 2.345149 0 3.867439-1.7280044 3.867439-4.361154 0-1.2960034-.390859-2.4274348-1.090289-3.1062937-.720002-.7200019-1.707433-1.11086-2.797721-1.11086zm18.408537 9.956597h-1.954291c.102857-.7817163.144-1.4194322.144-2.4891493v-10.9234566c0-.9257167-.041143-1.5840041-.144-2.4480063h2.118863c-.102858.7817163-.144001 1.3988607-.144001 2.4480063v2.5302922c0 .5760015-.020571.9874311-.061714 1.4605752.987431-1.4400037 2.386292-2.1394341 4.237725-2.1394341 3.229723 0 5.163442 2.1805771 5.163442 5.8217293 0 3.7028666-1.995434 5.9451581-5.286871 5.9451581-1.769147 0-3.147437-.6582874-4.114296-1.9954337v.1645719c.020571.1851433.020571.1851433.041143.6171444zm7.446876-5.7394433c0-2.6742926-1.275432-4.2377252-3.47658-4.2377252-2.324578 0-3.929153 1.7280044-3.929153 4.2582967 0 2.5508637 1.584004 4.3405825 3.846867 4.3405825 2.22172 0 3.558866-1.6457185 3.558866-4.361154zm8.401981 5.2457277-3.785153-8.3725929c-.925716-2.0160052-.925716-2.0160052-1.152003-2.4480063h2.324578c.102857.5760015.370286 1.4400037.720002 2.2422915l2.859435 6.6034455 2.550864-6.582874c.432001-1.1314315.596573-1.66629.699431-2.262863h2.22172c-.102858.2674293-.452573 1.0902885-1.028575 2.4480063l-4.628583 11.1703144c-.576001 1.3782893-1.563432 2.0160052-3.147437 2.0160052-.493715 0-1.008002-.0617144-1.81029-.2262863l.452573-1.7897189c.576001.2674293.925716.3702867 1.337146.3702867.678859 0 1.193146-.3908582 1.501718-1.11086zm18.03825-6.8503033v4.7725837c0 1.1931459.041143 1.8102904.164572 2.5714352h-2.262863c.123429-.6994304.164572-1.3782893.164572-2.5508637v-10.9440281c0-.9462882-.041143-1.6045756-.164572-2.4274348.699431.0411429 1.337147.0617144 2.345149.0617144h5.5543c1.069717 0 1.707433-.041143 2.489149-.1440004v2.0365767c-.69943-.1028574-1.337146-.1440004-2.468577-.1440004h-5.82173v5.040013h4.71087c1.090288 0 1.707433-.041143 2.468577-.1440004v2.0160052c-.69943-.1028574-1.337146-.1440004-2.468577-.1440004zm18.893437-3.9702959h2.160005c-.123429.8228593-.164572 1.3782893-.164572 2.4274348v6.4594452c0 1.0080026.041143 1.6045755.164572 2.4274348h-2.016005v-1.2137174c0-.2674293 0-.3702867.041143-.8845737-1.028574 1.5634326-2.345149 2.2834344-4.155439 2.2834344-1.501718 0-2.674293-.5348585-3.353152-1.5222896-.411429-.6171444-.617144-1.4194322-.617144-2.5097207v-5.0605845c0-1.069717-.041143-1.7074329-.144001-2.4068633h2.160006c-.102857.8640022-.144 1.4605752-.144 2.4274348v4.7520122c0 1.8102904.802287 2.7360071 2.36572 2.7360071 1.069717 0 1.954291-.4525726 2.797721-1.4605752.55543-.6582874.82286-1.152003 1.049146-1.9954337v-4.0320104c0-.9051452-.041143-1.6045755-.144-2.4274348zm5.439687-4.5462974h2.180577c-.102857.7611448-.144 1.3577178-.144 2.4274348v11.0057426c0 .9874311.041143 1.5840041.144 2.4274348h-2.180577c.102858-.8022878.144-1.3782893.144-2.4274348v-11.0057426c0-1.0902885-.041142-1.6868615-.144-2.4274348zm5.439688 0h2.180577c-.102858.7611448-.144001 1.3577178-.144001 2.4274348v11.0057426c0 .9874311.041143 1.5840041.144001 2.4274348h-2.180577c.102857-.8022878.144-1.3782893.144-2.4274348v-11.0057426c0-1.0902885-.041143-1.6868615-.144-2.4274348zm15.219957 0h4.525726c3.024008 0 4.731441 1.3782893 4.731441 3.8674385 0 1.1931459-.370287 2.0982911-1.11086 2.77715-.432001.3908582-.781717.5760015-1.604576.8434307.987431.1851434 1.460575.3908582 2.016005.8845738.82286.7405733 1.254861 1.7897188 1.254861 3.1062936 0 2.7977215-1.830862 4.3817256-5.060585 4.3817256h-4.752012c-1.028574 0-1.604575 0-2.36572.041143.144-.8434308.185143-1.3577178.185143-2.5920067v-11.067457c0-.9051452-.041143-1.5222896-.164572-2.2834345.596573.0205715 1.131432.041143 2.345149.041143zm-.267429 6.706303h4.690298c1.830861 0 2.880007-.9462882 2.880007-2.6331497 0-1.584004-.987431-2.4068633-2.900579-2.4068633h-4.669726zm0 1.6457185v5.8423007h4.813727c2.118862 0 3.270865-1.0080026 3.270865-2.9005789 0-1.9337192-1.131431-2.9417218-3.33258-2.9417218zm23.131161 2.2011485h-8.742879c.082286 1.3371463.288 2.0160052.822859 2.736007.637716.8640022 1.604576 1.3165748 2.797721 1.3165748 1.090289 0 1.995434-.3908581 2.63315-1.1314315.308572-.3291437.452573-.5965729.658288-1.1931459l1.728004.637716c-.390858.8640022-.658287 1.2754318-1.152003 1.7485759-.987431.9874311-2.304006 1.5017181-3.88801 1.5017181-3.33258 0-5.451443-2.3040059-5.451443-5.9657296 0-3.6000093 2.098292-5.9451581 5.307443-5.9451581 2.77715 0 4.73144 1.7485759 5.14287 4.6285833.041143.2057148.082286.6377159.144 1.66629zm-8.681165-1.5017182h6.747446c-.123429-1.069717-.432001-1.7691474-1.028574-2.3657203-.617144-.596573-1.398861-.8845737-2.36572-.8845737-1.213718 0-2.22172.5965729-2.838865 1.6868614-.288001.4937156-.390858.8228593-.514287 1.5634326zm18.893437 6.8091604v-1.3782893c-.781717.6788589-1.152003.9257167-1.830862 1.1725745-.699431.2674292-1.460576.3908581-2.262863.3908581-2.304006 0-3.723438-1.2137174-3.723438-3.2091511 0-1.584004 1.008002-2.8182929 2.77715-3.3942944 1.234288-.3908582 2.36572-.5348585 5.040013-.596573v-1.069717c0-1.3988607-.802288-2.0571482-2.550864-2.0571482-1.11086 0-1.933719.2880008-2.489149.8640023-.26743.2880007-.41143.55543-.596573 1.11086l-1.913148-.3702867c.370287-1.0285741.678859-1.5017181 1.275432-1.9748622.905145-.7611448 2.160005-1.1314315 3.744009-1.1314315 1.563433 0 2.694864.3497152 3.435438 1.069717.617144.5760015.884573 1.3577178.884573 2.4891493v5.7188718c0 1.0080026.041143 1.5017182.164572 2.3657204zm0-4.3817256v-1.2342888c-2.345149.0617144-3.497152.2057148-4.402298.5760014-1.028574.4114297-1.542861 1.0697171-1.542861 2.0160052 0 1.0697171.802288 1.7485759 2.098291 1.7485759 1.131432 0 2.365721-.514287 3.168009-1.3371462.493715-.5142871.678859-1.0080026.678859-1.7691475zm5.151686-11.4788866h2.118863c-.102858.7405733-.144001 1.3371463-.144001 2.4274348v7.2411615l3.538295-3.4354374c.864003-.8434308 1.213718-1.2137174 1.501718-1.6868615h2.859436c-.288.2674293-.288.2674293-.84343.7611448-.205715.1851433-.452573.4114296-.740574.6994304-.205715.1851433-.349715.3291437-.370286.3497152l-2.880008 2.7154355 3.476581 4.5668689c1.25486 1.6457185 1.337146 1.7485759 1.81029 2.22172h-2.715436c-.246857-.5348585-.452572-.8640022-1.316574-2.0571481l-2.571436-3.6205808-1.748576 1.6457185v1.6457185c0 .9668597.041143 1.66629.144001 2.3862919h-2.118863c.102858-.7200019.144001-1.3782893.144001-2.4274348v-11.0057426c0-1.0902885-.041143-1.66629-.144001-2.4274348zm22.781447 10.55317h-8.74288c.082286 1.3371463.288001 2.0160052.822859 2.736007.637716.8640022 1.604576 1.3165748 2.797722 1.3165748 1.090288 0 1.995433-.3908581 2.633149-1.1314315.308573-.3291437.452573-.5965729.658288-1.1931459l1.728004.637716c-.390858.8640022-.658287 1.2754318-1.152003 1.7485759-.987431.9874311-2.304006 1.5017181-3.88801 1.5017181-3.33258 0-5.451442-2.3040059-5.451442-5.9657296 0-3.6000093 2.098291-5.9451581 5.307442-5.9451581 2.77715 0 4.731441 1.7485759 5.14287 4.6285833.041143.2057148.082286.6377159.144001 1.66629zm-8.681166-1.5017182h6.747446c-.123429-1.069717-.432001-1.7691474-1.028574-2.3657203-.617144-.596573-1.39886-.8845737-2.36572-.8845737-1.213718 0-2.22172.5965729-2.838865 1.6868614-.288.4937156-.390858.8228593-.514287 1.5634326zm18.955151-4.5051544-.534858 1.8720048c-.761145-.2468578-1.152003-.3085722-1.686862-.3085722-1.069717 0-1.892576.3908581-2.509721 1.1725744-.493715.637716-.678858 1.1314315-.781716 2.0777197v4.0731533c0 .9874311.041143 1.5840041.144001 2.4274348h-2.160006c.123429-1.0080026.144-1.5017181.144-2.4274348v-6.4594452c0-1.0902885-.041143-1.66629-.144-2.4274348h2.016005v1.3988607c-.020571.1440004-.020571.1851434-.041143.3497152.349715-.5348585.596573-.8434307.946288-1.0902885.699431-.55543 1.645719-.8434307 2.715436-.8434307.637716 0 1.049145.0411429 1.892576.1851433zm2.785967 8.9897374v2.3245774c0 1.5840041-.329144 2.1600055-1.542862 2.77715l-.617144-.8022878c.987431-.3702867 1.152003-.6788589 1.172574-1.9748622h-1.357717v-2.3245774zm10.67366-13.5360348h2.283434c-.123429.7405733-.164572 1.4400037-.164572 2.4068633v11.0468856c0 .9874311.041143 1.6868614.164572 2.4068633h-2.283434c.123429-.7817163.164572-1.3165748.164572-2.4068633v-11.0468856c0-1.11086-.041143-1.6457185-.164572-2.4068633zm7.84655 15.8606122h-2.160005c.123429-.8228593.164572-1.3782893.164572-2.4274348v-6.4594452c0-1.0080026-.041143-1.6045755-.164572-2.4274348h2.016005v1.2137174c0 .2674293 0 .3702867-.041143.8845737 1.028574-1.5840041 2.324578-2.3040059 4.155439-2.3040059 1.501719 0 2.674293.5348585 3.353152 1.5222896.411429.6377159.617144 1.4400037.617144 2.5302922v5.0605845c0 1.069717.041143 1.7074329.144001 2.4068633h-2.160006c.102858-.8640022.144-1.4605752.144-2.4274348v-4.7520122c0-1.8102904-.802287-2.7360071-2.36572-2.7360071-1.069717 0-1.954291.4525726-2.797721 1.4605752-.55543.6582874-.82286 1.152003-1.049146 1.9954337v4.0320104c0 .9051452.041143 1.6045755.144 2.4274348zm21.074014-8.2697355-1.810291.514287c-.55543-1.5634326-1.522289-2.3040059-2.982864-2.3040059-2.201149 0-3.579438 1.7074329-3.579438 4.402297 0 2.6537211 1.419432 4.3405826 3.661724 4.3405826 1.131431 0 2.057148-.4525726 2.592006-1.2754319.164572-.2674292.26743-.514287.432001-1.028574l1.830862.4525726c-.288001.7817162-.493715 1.1725744-.843431 1.625147-.925716 1.2137174-2.324577 1.8308618-4.073153 1.8308618-3.33258 0-5.492585-2.3040059-5.492585-5.9040151 0-3.6205808 2.139434-6.0068726 5.410299-6.0068726 1.789719 0 3.229723.6788589 4.134868 1.9748622.308572.4320011.493716.7817163.720002 1.3782893zm2.847681 5.9451581h2.324577v2.3245774h-2.324577zm12.998237-13.5360348h2.468578c.164572.4525726.473144 1.0080026 1.090288 1.9542907l6.130302 9.1954522c.349715.5142871.96686 1.5222897 1.419432 2.3451489-.082286-1.6457185-.123429-2.9005789-.123429-3.5588663v-7.4468762c0-1.0491456-.041143-1.748576-.164572-2.4891493h2.22172c-.123428.7611448-.164571 1.3988607-.164571 2.5097207v10.9440282c0 1.069717.041143 1.7074329.164571 2.4068633h-2.530292c-.308572-.6582874-.55543-1.0491456-1.152003-1.9542907l-6.212587-9.3805956c-.226286-.3497152-.864002-1.4400037-1.213718-2.1188626.082286 1.2548604.123429 2.6948641.123429 3.5588663v7.261733c0 1.1725744.041143 1.9337192.164572 2.6331496h-2.22172c.123429-.6377159.164572-1.4605752.164572-2.6331496v-10.8205993c0-.9874311-.041143-1.6457185-.164572-2.4068633zm31.174611 13.2686055v-7.3851618c0-.7405733.082286-2.7154356.144-3.6411522-.329143 1.2548603-.576001 1.8925763-1.275432 3.4765803l-3.497151 7.8377345c-.432002.9462881-.617145 1.5017181-.82286 2.3040059h-1.728004c-.102858-.596573-.370287-1.3988607-.802288-2.3245774l-3.394294-7.6937341c-.596573-1.3371463-.761145-1.7691474-1.357718-3.6205807.082286 1.5017181.144 3.1885796.144 3.8057241v7.2411614c0 1.1725745.041143 1.8720048.164572 2.5920067h-2.160005c.123428-.7817163.164571-1.4194322.164571-2.5920067v-10.6560274c0-1.11086-.041143-1.8308618-.164571-2.6125781h2.77715c.144.6582874.390858 1.4400037.69943 2.1600056l4.813727 11.0057425 4.813726-11.0057425c.370287-.8640023.576002-1.4811467.699431-2.1600056h2.77715c-.123429.8434307-.164572 1.4400037-.164572 2.6125781v10.6560274c0 1.2342889.041143 1.8514334.164572 2.5920067h-2.160006c.102857-.6788589.164572-1.5428611.164572-2.5920067zm13.915138 2.5920067h-6.006873c-1.069717 0-1.604575 0-2.36572.041143.123429-.7405734.164572-1.4400037.164572-2.5097208v-10.7794563c0-1.1931459-.041143-1.8720048-.164572-2.6125781h2.283434c-.123429.8022878-.164572 1.3577178-.164572 2.5920067v11.5200296h6.253731c1.131431 0 1.728004-.041143 2.550863-.1440004v2.0160052c-.69943-.1028574-1.296003-.1234289-2.550863-.1234289zm4.205398-4.5462974 2.118863-.2262863c.061714.9668596.226286 1.4194322.617144 1.9748622.658288.8640022 1.851434 1.3577178 3.33258 1.3577178 2.324578 0 3.74401-1.0902885 3.74401-2.9005789 0-.9668596-.41143-1.7074329-1.152003-2.1188626-.658287-.3702866-.843431-.4114296-3.456009-.9874311-1.337146-.3085722-2.160005-.5965729-2.880007-1.0491455-1.213718-.7405734-1.830862-1.8308619-1.830862-3.2708656 0-2.6537211 2.139434-4.3817255 5.451442-4.3817255 2.118863 0 3.764582.6788589 4.71087 1.9542907.473144.6171444.69943 1.1725744.925716 2.22172l-2.077719.2674293c-.144001-.7817163-.308572-1.1725745-.678859-1.6251471-.637716-.7405733-1.645719-1.1314315-2.921151-1.1314315-2.036576 0-3.435437 1.0697171-3.435437 2.6331497 0 1.028574.55543 1.7485759 1.66629 2.2011485.534859.2057148.617145.2468578 2.941722.7405733 1.584004.3291437 2.612578.7405733 3.312008 1.3165748.987432.7611448 1.440004 1.7691474 1.440004 3.1268652 0 2.9828648-2.098291 4.7108693-5.718872 4.7108693-2.324577 0-4.093724-.6788589-5.060584-1.9337193-.596573-.7611448-.843431-1.4400037-1.049146-2.8800074zm18.708293-11.3143148h1.563433l-.69943 4.44344h2.633149l.720002-4.44344h1.563433l-.699431 4.44344h2.427435v1.4400037h-2.653721l-.576002 3.6411522h2.427435v1.4400037h-2.653721l-.781716 4.8960126h-1.584004l.781716-4.8960126h-2.653721l-.781716 4.8960126h-1.563433l.781716-4.8960126h-2.50972v-1.4400037h2.736007l.576001-3.6411522h-2.509721v-1.4400037h2.736007zm.617145 5.8834437-.55543 3.6411522h2.653721l.55543-3.6411522zm18.963967-4.0731533v-1.9131478c.576001.0822859.987431.1028574 1.81029.1028574h1.460575c.781717 0 1.131432-.0205715 1.830862-.1028574-.123429 1.2342889-.185143 2.2834344-.185143 3.4148659v10.1211689c0 .9874311.041143 1.625147.164572 2.4274348h-2.283435c.123429-.7611448.164572-1.4605752.164572-2.4274348v-11.7463159h-1.069717c-.69943 0-1.234289.0411429-1.892576.1234289zm17.906005 14.3383225c-1.584004 0-2.900579-.514287-3.908581-1.5222896-.576002-.5760015-1.008003-1.2342889-1.254861-1.9337192-.534858-1.4400037-.802287-3.0651508-.802287-4.7314408 0-2.2011485.473144-4.4228685 1.213717-5.6160144 1.028574-1.7280045 2.674293-2.6331496 4.793155-2.6331496 1.584004 0 2.962293.5348585 3.929153 1.5222896.576002.5760015 1.008003 1.2548604 1.25486 1.9337192.534859 1.4400037.802288 3.0445793.802288 4.7725837 0 2.4685778-.55543 4.7108693-1.460575 5.9863011-1.069717 1.4811467-2.592007 2.22172-4.566869 2.22172zm0-14.7497522c-1.049145 0-1.851433.3291437-2.489149 1.0491456-.432001.4731441-.740573.9874311-.905145 1.5222896-.390858 1.1931459-.596573 2.5508637-.596573 4.0114389 0 1.8514333.390858 3.8262956.946288 4.7520122.69943 1.152003 1.728004 1.7280045 3.065151 1.7280045.987431 0 1.851433-.3291437 2.448006-.9462882.432001-.4525726.781716-1.0080026.96686-1.625147.411429-1.2342889.596572-2.5302922.596572-3.9702959 0-1.748576-.370286-3.7234382-.884573-4.6697263-.658288-1.2342889-1.707433-1.8514334-3.147437-1.8514334zm10.664844.4114297v-1.9131478c.576001.0822859.987431.1028574 1.81029.1028574h1.460575c.781717 0 1.131432-.0205715 1.830862-.1028574-.123429 1.2342889-.185143 2.2834344-.185143 3.4148659v10.1211689c0 .9874311.041143 1.625147.164572 2.4274348h-2.283435c.123429-.7611448.164572-1.4605752.164572-2.4274348v-11.7463159h-1.069717c-.69943 0-1.234289.0411429-1.892576.1234289zm12.331134 11.0468855 2.016005-.596573c.246858.6582875.390858.9462882.69943 1.2754319.55543.596573 1.440004.9257167 2.530292.9257167 1.460576 0 2.48915-.596573 3.229723-1.8514334.390858-.6582874.720002-1.625147.864002-2.5920066.061715-.4525726.123429-1.193146.164572-2.1394341-.308572.55543-.493715.7817163-.905145 1.152003-1.028574.9051451-2.118863 1.2960033-3.620581 1.2960033-1.563432 0-2.92115-.4937156-3.826295-1.3988608-.905146-.9051451-1.419433-2.2628629-1.419433-3.7234381 0-3.3531515 2.262863-5.5337285 5.760015-5.5337285 2.07772 0 3.846867 1.0080026 4.793155 2.736007.658288 1.1725745.96686 2.8388645.96686 5.0194415 0 3.0857222-.637716 5.4514426-1.830862 6.8708748-1.049145 1.2342889-2.427435 1.8102904-4.299439 1.8102904-1.481147 0-2.653722-.3497152-3.558867-1.0902885-.637716-.5142871-1.008002-1.0080026-1.563432-2.1600056zm5.204584-4.1348678c2.22172 0 3.867439-1.5634326 3.867439-3.6822951 0-2.1394341-1.604576-3.7234382-3.74401-3.7234382-1.008002 0-1.95429.3908582-2.633149 1.0697171-.699431.6788588-1.028574 1.5634325-1.028574 2.6742925 0 2.2422915 1.378289 3.6617237 3.538294 3.6617237zm20.292298-8.8251655v1.7485759c-.432002.3908582-.82286.9051452-1.686862 2.262863-1.748576 2.7565785-2.63315 4.5874403-3.394294 7.1588755-.493716 1.6045756-.699431 2.5920067-1.008003 4.7931552h-2.324577c.678858-3.7645811 1.234288-5.595443 2.489149-8.1668781 1.008002-2.0777197 1.892576-3.5177234 3.682295-5.9451582h-6.603446c-1.049145 0-1.645718.041143-2.427434.1440004v-2.0365767c.822859.1028574 1.440003.1440004 2.489149.1440004h6.274302c1.316575 0 1.748576-.0205715 2.509721-.1028574zm3.073967 12.9600333 2.016005-.596573c.246858.6582875.390858.9462882.69943 1.2754319.55543.596573 1.440004.9257167 2.530292.9257167 1.460576 0 2.48915-.596573 3.229723-1.8514334.390858-.6582874.720002-1.625147.864002-2.5920066.061715-.4525726.123429-1.193146.164572-2.1394341-.308572.55543-.493716.7817163-.905145 1.152003-1.028574.9051451-2.118863 1.2960033-3.620581 1.2960033-1.563432 0-2.92115-.4937156-3.826295-1.3988608-.905146-.9051451-1.419433-2.2628629-1.419433-3.7234381 0-3.3531515 2.262863-5.5337285 5.760015-5.5337285 2.07772 0 3.846867 1.0080026 4.793155 2.736007.658288 1.1725745.96686 2.8388645.96686 5.0194415 0 3.0857222-.637716 5.4514426-1.830862 6.8708748-1.049145 1.2342889-2.427435 1.8102904-4.29944 1.8102904-1.481146 0-2.653721-.3497152-3.558866-1.0902885-.637716-.5142871-1.008002-1.0080026-1.563432-2.1600056zm5.204584-4.1348678c2.22172 0 3.867439-1.5634326 3.867439-3.6822951 0-2.1394341-1.604576-3.7234382-3.74401-3.7234382-1.008002 0-1.95429.3908582-2.633149 1.0697171-.699431.6788588-1.028574 1.5634325-1.028574 2.6742925 0 2.2422915 1.378289 3.6617237 3.538294 3.6617237zm11.035131-6.9120177v-1.9131478c.576001.0822859.987431.1028574 1.81029.1028574h1.460575c.781717 0 1.131432-.0205715 1.830862-.1028574-.123429 1.2342889-.185143 2.2834344-.185143 3.4148659v10.1211689c0 .9874311.041143 1.625147.164572 2.4274348h-2.283435c.123429-.7611448.164572-1.4605752.164572-2.4274348v-11.7463159h-1.069717c-.69943 0-1.234289.0411429-1.892576.1234289z"></path>
        <path fill="#50a3f6" d="m84.9989947 29.0446325-15.1678431 12.7343987v-8.964349l-21.4534492-15.0801989-29.5674465 23.0391928v46.9161747h51.0208957v-17.1746711l15.1678431-12.8551419.0010053 19.976347c-.0005552 11.7989615-9.565659 21.3636152-21.3646205 21.3636152h-2.16724-61.4681395l.2973653-58.5749753c.01520181-2.9944507.91294644-5.9179558 2.58095118-8.4048667 1.69100974-2.5212102 3.82619363-4.714069 6.30144829-6.4716608l35.98050093-25.5484972zm-15.2758685 20.1377175 15.2768738-12.8150031v15.239976l-15.2768738 12.8160018-18.3369111 15.3827977-22.3862151-21.0367399 2.2856522-2.3360838c3.2597151-3.3318409 8.6358124-3.4506925 12.0435121-.2666671l8.5476299 7.986031z"></path>
    </g>
</svg>
