<?xml version="1.0" encoding="utf-8"?>
<!-- Generator: Adobe Illustrator 26.0.3, SVG Export Plug-In . SVG Version: 6.00 Build 0)  -->
<svg version="1.1" id="the_sun" xmlns="http://www.w3.org/2000/svg" xmlns:xlink="http://www.w3.org/1999/xlink" x="0px" y="0px"
	 viewBox="0 0 92.4 40" style="enable-background:new 0 0 92.4 40;" xml:space="preserve">
<style type="text/css">
	.st0{fill:#EB1701;}
</style>
<path class="st0" d="M0,0v40h92.4V0H0z M64.5,7.3l-0.3,1.2h-3.3l-0.2,0.9h2.7l-0.3,1.2h-2.7l-0.2,1h3.4l-0.3,1.2h-5.6L59,7.4
	L64.5,7.3L64.5,7.3z M54,7.3l-0.5,2h2l0.5-2h2.2l-1.3,5.4h-2.2l0.5-2.2h-2l-0.5,2.2h-2.2l1.3-5.4C51.8,7.3,54,7.3,54,7.3z M45.5,7.3
	H51l-0.3,1.3H49l-1,4.2h-2.2l1-4.2h-1.6L45.5,7.3z M21,31.9c-8.4,0-13.9-2.3-16.4-6.9l10-1.4c1,1.9,2.9,2.6,6.6,2.6
	c2.3,0,3.9-0.7,3.9-1.8c0-0.5-0.5-1-1.3-1.3C23.7,23,23.5,23,23.4,23l-2.3-0.6l-2.2-0.6l-2.3-0.6c-5.3-1.4-7.8-3.5-7.8-6.7
	c0-5.1,5.4-8.1,14.2-8.1c7.4,0,12.5,2.2,14.6,6.2l-9,1.7c-0.6-1.6-2.6-2.4-5.4-2.4c-2,0-3.3,0.6-3.3,1.6c0,0.6,0.5,1.1,1.7,1.4
	c0.5,0.1,1,0.3,1.6,0.4l2,0.5l2,0.5l2,0.5c4.3,1,7.1,3.7,7.1,6.5C36.1,28.3,29.9,31.9,21,31.9z M50.4,31.5l0.8-3.1
	C49,31,46.8,32,43.2,32c-3.5,0-6.3-1.7-6.3-3.9c0-0.5,0.2-1.6,0.5-2.9l2.4-10.5h9l-2.3,9.6c-0.3,1.2-0.3,1.4-0.3,1.6
	c0,0.8,0.6,1.3,1.6,1.3c2,0,3.3-1.4,4-4.2l2-8.3h8.9l-3.9,16.7L50.4,31.5L50.4,31.5z M86.3,20.1l-2.7,11.4h-8.9l2.3-10
	c0.1-0.6,0.2-1.1,0.2-1.4c0-0.9-0.8-1.3-2.2-1.3c-1.8,0-2.9,0.9-3.3,2.7l-2.4,10h-8.7l4-16.7h8.2l-0.7,2.7c1.3-2.1,4-3.2,7.7-3.2
	c4,0,6.7,1.7,6.7,4.1C86.5,18.9,86.4,19.5,86.3,20.1z"/>
</svg>
