<?xml version="1.0" encoding="utf-8"?>
<!-- Generator: Adobe Illustrator 26.0.3, SVG Export Plug-In . SVG Version: 6.00 Build 0)  -->
<svg version="1.1" id="the_washington_post" xmlns="http://www.w3.org/2000/svg" xmlns:xlink="http://www.w3.org/1999/xlink"
	 x="0px" y="0px" viewBox="0 0 200 30.4" style="enable-background:new 0 0 200 30.4;" xml:space="preserve">
<style type="text/css">
	.st0{fill:#231F20;}
</style>
<path class="st0" d="M11.1,9.3v10.9c1.5-0.8,2.5-2.2,3-3.7l0.1,0.1c-0.3,3.9-3,7.7-7.1,7.7C3,24.2,0,21.1,0,16.2
	c0-3.7,2.4-6,5.5-8.1C5.1,8,4.6,7.9,4.1,7.9c-2.1,0-3.3,1.4-3.3,2.9H0.6c0-0.2,0-0.4,0-0.6c0-2.6,1.4-5.8,4.7-5.8c2.1,0,3.8,2,6.3,2
	c1,0,2.2-0.5,2.7-1.6h0.1C14.3,6.8,13.7,8.8,11.1,9.3z M12.7,20.4c-1.5,1.6-3,2.9-5.1,2.9c-3.8,0-6.7-3-6.7-7.3
	c0-2.5,1.1-3.9,2.2-5.5H3c-0.7,0.7-2.7,2.6-2.7,5.7c0,4.8,3,7.8,7,7.8C10,23.9,11.9,22,12.7,20.4L12.7,20.4z M13.9,6.2
	c-0.5,0.9-1.6,2.1-3.7,2.1S6.1,6.8,4.4,6.8c-1.6,0-2.7,1.1-3.1,1.8v0.1c0.6-0.6,1.4-1.1,2.8-1.1C6.4,7.6,7.9,9,10.2,9
	C12.6,9.1,13.7,7.5,13.9,6.2L13.9,6.2z M5.7,8.2c-1.5,1.6-2.9,3.3-2.9,6.6c0,1.8,0.6,3.7,2,4.9l0.9-0.5v-7.9l-0.8,0.4l-0.1-0.3
	l4.1-2.2C7.8,9,6.8,8.5,5.7,8.2z M10.8,9.4c-0.2,0-0.4,0-0.6,0c-0.4,0-0.8,0-1.2-0.1v8.6L5.2,20c0.8,0.6,1.8,0.9,3,0.9
	c1,0,1.9-0.2,2.7-0.6L10.8,9.4L10.8,9.4z M6.6,10.9L6,11.2v7.9l0.6-0.3V10.9z M23.4,12v10.1c0,2.8-2.5,4.7-5.3,5.3L18,27.3
	c1.4-0.7,2.2-2.1,2.2-3.5V13.3l-1.6-1.4L18,12.6v8.2l0.9,0.8v0.1l-2.4,2.6l-2.7-2.5v-0.1l1.1-1.1V7.4L18,4.1h0.1V12l2.5-2.8l2.7,2.4
	l0.5-0.5l0.2,0.2C24,11.3,23.4,12,23.4,12z M15.2,21.6L15.2,21.6l0.6-0.7v-14l-0.6,0.6v13l-0.9,0.9v0.1l2.3,2.1l0.4-0.4L15.2,21.6z
	 M21.2,12.8l-1.9-1.6l-0.4,0.4l1.7,1.5v10.5c0,0.7-0.1,1.4-0.4,1.8l0,0c0.7-0.5,1-1.3,1-2.3V12.8L21.2,12.8z M28.1,17.9v1.5l2.8,2.2
	l1.6-1.8l0.2,0.2L29,24.1L25.1,21l-0.6,0.6l-0.2-0.2l0.7-0.7v-7.4l5.5-4l2.9,4.7L28.1,17.9z M25.9,20.4V13l-0.6,0.4v7.3l3.6,3
	l0.5-0.5L25.9,20.4z M28.2,11.4L28.2,11.4l-0.1,6l2.6-1.9L28.2,11.4z M28.9,10.8l-0.5,0.4l2.6,4.1l0.5-0.4L28.9,10.8z M52.5,24.1
	l-4.1-3.5l-3.1,3.5l-4.2-3.6v-5.7h-0.8c-0.7,0-1.1,0.5-1.3,1h-0.1c-0.1-0.4-0.1-0.7-0.1-1.1c0-0.8,0.2-2.8,2.3-2.8v-5
	c0-1-1.1-1.3-1.1-2.6C40,2.6,41.6,1,44.5,0l0.1,0.1C43.5,0.6,43,1.2,43,2.4c0,1.9,1.9,1.4,1.9,4.5v1.2l3.4-3.6L51.9,8l3.4-3.5
	l3.3,3.2v10.8C58.6,18.5,52.5,24.1,52.5,24.1z M42.1,20v-6.2h-1.6c-0.8,0-1.2,0.6-1.3,1.1l0,0c0.3-0.3,0.6-0.5,1.3-0.5h1v5.9
	l3.9,3.3l0.4-0.5C45.8,23.1,42.1,20,42.1,20z M42.1,6.6C42.1,5.4,41,5,41,4.2c0-1.1,0.4-1.9,1.1-2.8H42c-0.9,0.7-1.7,1.8-1.7,2.8
	c0,1.1,1.1,1.6,1.1,2.5v5.2H42C42.1,11.9,42.1,6.6,42.1,6.6z M48.2,9.5L46,7.3l-1.2,1.2v10.4l2.7,2.3l0.7-0.8V9.5z M49.2,19.9V9.1
	l-2.5-2.5l-0.5,0.5l2.3,2.3v10.9l4,3.4l0.5-0.4L49.2,19.9z M54.9,9.1L53,7.3l-1,1.1v10.4l2.9,2.5l0,0V9.1z M55.8,8.7l-2.1-2.1
	l-0.4,0.5l2,1.9v12.2l0.6-0.6L55.8,8.7L55.8,8.7z M68.3,24.1l-2.8-2.5L63,24.1l-3-2.7l-0.4,0.4l-0.2-0.2l0.5-0.6v-7.8l5.5-4l3.2,2.5
	l0.6-0.6l0.2,0.2L68.8,12v8.1l1.6,1.4l0.5-0.5l0.2,0.2L68.3,24.1L68.3,24.1z M60.8,20.9V13l-0.6,0.4v7.8l2.8,2.5l0.5-0.5L60.8,20.9
	L60.8,20.9z M65.5,13.1l-2.4-1.9L63,11.3v8.5l2,1.7l0.5-0.5V13.1z M66.4,21.1v-8.4l-2.5-2l-0.6,0.4l2.5,1.9v8.4l2.5,2.2l0.4-0.5
	C68.7,23.2,66.4,21.1,66.4,21.1z M76.8,14.6h3v6.3l-4.7,3.3c-0.6-0.7-1.5-1.2-2.6-1.2c-0.9,0-1.6,0.3-2.5,1.1L69.9,24l4-5.8h-2.5
	v-5.4l4.9-3.4c0.6,0.5,1,0.7,1.8,0.7c0.6,0,1.4-0.1,2.1-0.6l0.1,0.1C80.3,9.4,76.8,14.6,76.8,14.6z M73.5,22.1
	c-0.8,0-1.5,0.3-2.1,0.7v0.1c0.5-0.2,0.9-0.3,1.4-0.3c0.7,0,1.7,0.3,2.4,1.1l0.7-0.5C75.3,22.6,74.6,22.1,73.5,22.1L73.5,22.1z
	 M76.6,17.1H75l-3.4,5v0.1c0.8-0.6,1.7-1,2.7-1c0.9,0,1.8,0.4,2.3,1.1l0,0C76.6,22.2,76.6,17.1,76.6,17.1z M72.4,17.1v-4.7l-0.6,0.4
	v4.9h2.4l0.5-0.6H72.4L72.4,17.1L72.4,17.1z M78.5,11.4c-0.6,0.4-1,0.7-2,0.7c-0.6,0-1.3-0.3-1.8-0.8h-0.1v4.3h1.1L78.5,11.4
	L78.5,11.4z M77.1,11.1c-0.5,0-1.2-0.3-1.6-0.8l-0.7,0.5c0.6,0.7,1.1,1,1.9,1c0.5,0,1.3-0.1,2.1-0.8v-0.1
	C78.2,11,77.6,11.1,77.1,11.1z M77.6,16.2h-1.9l-0.4,0.6H77v5.7l0.6-0.4V16.2z M89.9,12v10.1c0,2.8-2.5,4.7-5.3,5.3l-0.1-0.1
	c1.4-0.7,2.2-2.1,2.2-3.5V13.3l-1.6-1.4l-0.6,0.7v8.2l0.9,0.8v0.1L83,24.3l-2.7-2.5v-0.1l1.1-1.1V7.4l3.1-3.3h0.1V12l2.5-2.8
	l2.7,2.4l0.5-0.5l0.2,0.2C90.5,11.3,89.9,12,89.9,12z M81.7,21.6L81.7,21.6l0.6-0.7v-14l-0.6,0.6v13l-0.9,0.9v0.1l2.3,2.1l0.4-0.5
	L81.7,21.6z M87.7,12.8l-1.9-1.6l-0.4,0.4l1.7,1.5v10.5c0,0.7-0.1,1.4-0.4,1.8l0,0c0.7-0.5,1-1.3,1-2.3V12.8L87.7,12.8L87.7,12.8z
	 M95.2,24.1l-2.5-2.3l-0.6,0.6l-0.2-0.2l0.7-0.7V13l-1.2-1.2l-0.5,0.5l-0.2-0.2l2.6-2.9l2.3,2.1l0.6-0.6l0.3,0.2l-0.7,0.8v8.5
	l1.4,1.3l0.6-0.7L98,21L95.2,24.1L95.2,24.1z M93.5,21.2v-8.7L92,11.1l-0.4,0.5l1.3,1.3v8.7l2.3,2.1l0.4-0.5L93.5,21.2z M94.4,9
	L92,6.8l2.2-2.3l2.4,2.2L94.4,9z M92.9,6.3l-0.4,0.4l1.9,1.8L94.8,8L92.9,6.3z M107.6,24.1l-2.5-2.3v-8.6l-1.6-1.4l-0.8,0.9v7.9
	l0.9,0.8v0.1l-2.4,2.5l-2.7-2.5v-0.1l1.1-1.1v-7.4l-1.4-1.3l-0.6,0.6h-0.2l2.7-2.9l2.7,2.4v0.5l2.8-3l2.6,2.3l0.6-0.6l0.3,0.2
	l-0.7,0.7v8.4l1.3,1.2l0.6-0.7l0.2,0.2L107.6,24.1L107.6,24.1z M99.9,21.6L99.9,21.6l0.6-0.6v-8.3l-1.7-1.5l-0.4,0.4l1.5,1.3v7.7
	L99,21.5v0.1l2.3,2.1l0.5-0.5L99.9,21.6L99.9,21.6z M106,21.3v-8.6l-1.8-1.6l-0.5,0.5l1.7,1.5v8.5l2.2,2.1l0.5-0.5L106,21.3
	L106,21.3z M115.9,29.4c-1-1.1-1.6-1.5-2.5-1.5c-1,0-2.1,0.4-3.2,1l-0.1-0.1l4-4.7l-2.9-2.3l-0.6,0.6l-0.2-0.2l0.6-0.7v-8.3l5.6-4
	l3.1,2.5l0.5-0.6l0.2,0.2l-0.6,0.7v10c0,1.5,0.8,1.5,0.8,2.6C120.7,26,118.8,27.2,115.9,29.4z M112,21.3V13l-0.6,0.4v8.1l2.9,2.3
	l0.4-0.5L112,21.3z M114,27.1c-1,0-1.8,0.3-2.7,0.8V28c0.5-0.2,1.1-0.5,2.1-0.5c0.9,0,1.7,0.5,2.4,1.4l0.6-0.5
	C115.8,27.6,114.9,27.1,114,27.1L114,27.1z M117.6,24.3c-0.7-0.5-0.9-1-0.9-2.2v-0.5l-4.9,5.6l0,0c0.9-0.6,1.8-1,3.2-1
	c1.2,0,2,0.5,2.9,1.2c0.6-0.5,0.9-0.9,0.9-1.7C118.9,25.2,118.4,24.8,117.6,24.3L117.6,24.3z M116.7,13.1l-2.4-1.9l-0.1,0.1v9
	l1.9,1.5l0.6-0.7V13.1z M118.5,23.9c-0.8-0.6-0.8-1.1-0.8-2.3v-8.9l-2.5-2l-0.6,0.4L117,13v9c0,1.3,0.1,1.6,0.8,2.1
	c0.7,0.5,1.3,1,1.3,1.6c0,0.2,0,0.5,0,0.5l0,0c0.1-0.1,0.3-0.4,0.3-0.8C119.5,24.8,119.1,24.4,118.5,23.9z M125.5,24.1l-2.7-2.1
	l-0.6,0.6l-0.2-0.2l0.6-0.7V11.4H121l-0.1-0.1l1-1.5h0.7v-2l3.1-3.3l0.1,0.1v5.2h2.3l0.1,0.1l-1,1.5h-1.4v8.9l1.6,1.2l0.6-0.7
	l0.2,0.2L125.5,24.1z M123.6,7.4L123,8.1v1.8h0.6V7.4z M123.6,21.4v-10H123v10.3l2.5,1.9l0.4-0.5L123.6,21.4L123.6,21.4z
	 M137.9,12.3v8.2l-5,3.7l-3.7-2.8l-0.4,0.5l-0.2-0.2l0.5-0.6v-8l5.2-3.7l3.5,2.7l0.6-0.6l0.2,0.2L137.9,12.3L137.9,12.3z M130,20.7
	v-8l-0.6,0.4V21l3.5,2.7l0.6-0.4L130,20.7L130,20.7z M134.7,13.2l-2.5-1.9l0,0V20l2.5,1.9V13.2L134.7,13.2z M135.7,12.7l-2.7-2.1
	l-0.6,0.4l2.7,2.1v9.1l0.6-0.5V12.7L135.7,12.7z M149.1,24.1l-2.5-2.3v-8.6l-1.6-1.4l-0.8,0.9v7.9l0.9,0.8v0.1l-2.4,2.5l-2.7-2.5
	v-0.1l1.1-1.1v-7.4l-1.4-1.3l-0.6,0.6l-0.2-0.2l2.7-2.9l2.7,2.4v0.7l2.8-3l2.6,2.3l0.6-0.6l0.3,0.2l-0.7,0.7v8.4l1.3,1.2l0.6-0.7
	l0.2,0.2L149.1,24.1z M141.4,21.6L141.4,21.6L142,21v-8.3l-1.7-1.5l-0.4,0.4l1.5,1.3v7.7l-0.9,0.9v0.1l2.3,2.1l0.5-0.5L141.4,21.6
	L141.4,21.6z M147.5,21.3v-8.6l-1.8-1.6l-0.5,0.5l1.7,1.5v8.5l2.2,2.1l0.5-0.5L147.5,21.3z M167.2,24.1c-0.8-0.9-1.1-1.2-2.1-1.4
	v5.7H165l-1.2-1.1l-3.4,3.1h-0.1v-7.9c-1,0.2-2.1,0.8-3.2,1.8H157c0.2-2.3,1.3-3.9,3.2-4.6V14h-0.6c-0.8,0-1.3,0.4-1.7,1.2h0.1
	c-0.1-0.3-0.1-0.7-0.1-1.3c0-1.2,0.9-2.5,2.4-2.5h0.2V8.2l-1.2-1.1l-0.6,0.6l-0.2-0.2l3-3.1l2.8,2.5v2.7l0.6-0.7V5.5h0.3v3.1
	l3.9-4.2l3.3,3v12.8L167.2,24.1L167.2,24.1z M160.4,21.5c-1.2,0.2-2.1,1-2.6,1.9v0.1c0.8-0.7,1.6-1,2.6-1.3V21.5L160.4,21.5z
	 M161.4,13.1h-1.6c-1.1,0-1.6,0.7-1.6,1.5l0,0c0.4-0.6,0.7-0.8,1.4-0.9h1.1v16l0.6-0.6v-16H161.4z M161.4,7.8l-1.5-1.3L159.4,7
	l1.3,1.2v3.3h0.6L161.4,7.8L161.4,7.8z M164.8,9.5l-0.6,0.7v17l0.6,0.6C164.8,27.7,164.8,9.5,164.8,9.5z M168.6,8.8l-1.7-1.6
	l-1.8,1.9v10.3c1.5,0.1,2.6,0.6,3.5,1.6l0,0V8.8z M165.1,21.5v0.8c1,0.2,1.4,0.5,2.1,1.3l0.7-0.5C167.2,22.2,166.5,21.7,165.1,21.5
	L165.1,21.5z M169.6,8.4l-2-1.8l-0.5,0.5l1.8,1.7v13.6l0.6-0.5L169.6,8.4L169.6,8.4z M182.5,12.3v8.2l-5,3.7l-3.7-2.8l-0.4,0.5
	l-0.2-0.2l0.5-0.6v-8l5.2-3.7l3.5,2.7l0.6-0.6l0.2,0.2L182.5,12.3z M174.7,20.7v-8l-0.6,0.4V21l3.5,2.7l0.6-0.4L174.7,20.7
	L174.7,20.7z M179.4,13.2l-2.5-1.9l0,0V20l2.5,1.9V13.2L179.4,13.2z M180.3,12.7l-2.7-2.1L177,11l2.7,2.1v9.1l0.6-0.5V12.7
	L180.3,12.7z M189.3,14.6h3v6.3l-4.7,3.3c-0.6-0.7-1.5-1.2-2.6-1.2c-0.9,0-1.6,0.3-2.5,1.1l-0.1-0.1l4-5.8H184v-5.4l4.9-3.4
	c0.6,0.5,1,0.7,1.8,0.7c0.6,0,1.4-0.1,2.1-0.6l0.1,0.1L189.3,14.6L189.3,14.6z M186.1,22.1c-0.8,0-1.5,0.3-2.1,0.7v0.1
	c0.5-0.2,0.9-0.3,1.4-0.3c0.7,0,1.7,0.3,2.4,1.1l0.7-0.5C187.9,22.6,187.2,22.1,186.1,22.1z M189.2,17.1h-1.6l-3.4,5v0.1
	c0.8-0.6,1.7-1,2.7-1c0.9,0,1.8,0.4,2.3,1.1l0,0V17.1L189.2,17.1L189.2,17.1z M184.9,17.1v-4.7l-0.6,0.4v4.9h2.4l0.5-0.6H184.9
	L184.9,17.1z M191,11.4c-0.6,0.4-1,0.7-2,0.7c-0.6,0-1.3-0.3-1.8-0.8h-0.1v4.3h1.1L191,11.4L191,11.4L191,11.4z M189.6,11.1
	c-0.5,0-1.2-0.3-1.6-0.8l-0.7,0.5c0.6,0.7,1.1,1,1.9,1c0.5,0,1.3-0.1,2.1-0.8v-0.1C190.8,11,190.2,11.1,189.6,11.1L189.6,11.1z
	 M190.1,16.2h-1.9l-0.4,0.6h1.7v5.7l0.6-0.4L190.1,16.2L190.1,16.2z M197.2,24.1l-2.7-2.1l-0.6,0.6l-0.2-0.2l0.6-0.7V11.4h-1.7
	l-0.1-0.1l1-1.5h0.7v-2l3.1-3.3l0.1,0.1v5.2h2.3l0.1,0.1l-1,1.5h-1.4v8.9l1.6,1.2l0.6-0.7l0.2,0.2L197.2,24.1L197.2,24.1z
	 M195.3,7.4l-0.6,0.7v1.8h0.6V7.4z M195.3,21.4v-10h-0.6v10.3l2.5,1.9l0.4-0.5L195.3,21.4L195.3,21.4z"/>
</svg>
