<?xml version="1.0" encoding="utf-8"?>
<!-- Generator: Adobe Illustrator 26.0.3, SVG Export Plug-In . SVG Version: 6.00 Build 0)  -->
<svg version="1.1" id="usa_today" xmlns="http://www.w3.org/2000/svg" xmlns:xlink="http://www.w3.org/1999/xlink" x="0px" y="0px"
	 viewBox="0 0 199.9 36.2" style="enable-background:new 0 0 199.9 36.2;" xml:space="preserve">
<style type="text/css">
	.st0{fill:#1EA3FF;}
	.st1{fill:#1A1A1A;}
</style>
<g>
	<g>
		<g>
			<g>
				<g>
					<circle class="st0" cx="18.1" cy="18.1" r="18.1"/>
				</g>
			</g>
		</g>
	</g>
	<g>
		<path class="st1" d="M44.3,20.9V8H50v11.2c0,2.2,0.3,4.4,3.2,4.4s3.2-2.1,3.2-4.4V8h5.7v12.8c0,5-3.2,7.7-8.9,7.7
			C47.3,28.6,44.3,25.8,44.3,20.9z"/>
		<path class="st1" d="M63.6,25.6l2.8-3.9c1,1.3,2.8,2.3,4.7,2.3c1.5,0,2.4-0.6,2.4-1.8c0-1.4-1.3-1.8-3.5-2.5
			c-2.9-0.9-5.5-2.4-5.5-5.9c0-3.8,3.2-6.4,7.6-6.4c3.1,0,5.4,0.9,6.9,2.3l-2.6,3.9c-0.8-0.9-2.2-1.8-4-1.8c-1.5,0-2.1,0.6-2.1,1.4
			c0,1.3,1.5,1.6,3.2,2.1c3.3,1,5.8,2.5,5.8,6.3c0,3.9-2.8,6.8-7.8,6.8C67.7,28.6,64.9,27,63.6,25.6z"/>
		<path class="st1" d="M87,8h6.3l7.5,20.1h-6l-0.9-2.9h-7.6l-1,2.9h-5.9C79.5,28.1,87,8,87,8z M92.4,20.7l-1.6-4.9
			c-0.3-0.9-0.6-2.1-0.7-3h-0.2c-0.1,0.9-0.4,2.1-0.7,3l-1.6,4.9H92.4z"/>
		<path class="st1" d="M109.1,12.7h-5V8h15.7v4.7h-5v15.4h-5.7V12.7z"/>
		<path class="st1" d="M120.2,18.1c0-5,3.5-10.5,11.1-10.5c7.5,0,11.1,5.6,11.1,10.5s-3.5,10.4-11.1,10.4
			C123.8,28.6,120.2,23.1,120.2,18.1z M136.5,18.1c0-3.6-2.3-5.5-5.2-5.5c-2.8,0-5.1,1.9-5.1,5.5s2.3,5.4,5.1,5.4
			S136.5,21.7,136.5,18.1z"/>
		<path class="st1" d="M144.4,8h7.5c7.1,0,11.2,3.8,11.2,10.1c0,6.2-4.2,10.1-11.2,10.1h-7.5V8L144.4,8z M150.2,23.5h1.3
			c3.7,0,5.7-1.8,5.7-5.4s-2-5.4-5.7-5.4h-1.3V23.5z"/>
		<path class="st1" d="M169.8,8h6.3l7.5,20.1h-6l-0.9-2.9h-7.6l-0.9,2.9h-5.9C162.3,28.1,169.8,8,169.8,8z M175.2,20.7l-1.6-4.9
			c-0.3-0.9-0.6-2.1-0.7-3h-0.2c-0.1,0.9-0.4,2.1-0.7,3l-1.6,4.9H175.2z"/>
		<path class="st1" d="M186.4,21l-7.6-12.9h6.3l2.7,5c0.6,1.1,1.4,2.7,1.6,3.7h0.1c0.2-1.1,0.9-2.7,1.6-3.7l2.7-5h6.1L192.4,21v7.2
			h-6.1L186.4,21L186.4,21z"/>
	</g>
</g>
</svg>
