<?xml version="1.0" encoding="utf-8"?>
<!-- Generator: Adobe Illustrator 26.0.3, SVG Export Plug-In . SVG Version: 6.00 Build 0)  -->
<svg version="1.1" id="yahoo" xmlns="http://www.w3.org/2000/svg" xmlns:xlink="http://www.w3.org/1999/xlink" x="0px" y="0px"
	 viewBox="0 0 144.2 40.1" style="enable-background:new 0 0 144.2 40.1;" xml:space="preserve">
<style type="text/css">
	.st0{fill:#5F01D1;}
</style>
<g id="layer1" transform="translate(260.95542,41.213839)">
	<path id="path1139" class="st0" d="M-261-31.4h8.6l5,12.8l5.1-12.8h8.4l-12.6,30.3h-8.4l3.4-8L-261-31.4z"/>
	<path id="path1141" class="st0" d="M-225.3-31.9c-6.4,0-10.5,5.8-10.5,11.5c0,6.5,4.5,11.6,10.4,11.6c4.4,0,6.1-2.7,6.1-2.7v2.1
		h7.5v-22.1h-7.5v2C-219.3-29.4-221.2-31.9-225.3-31.9z M-223.7-24.8c3,0,4.5,2.4,4.5,4.5c0,2.3-1.6,4.5-4.5,4.5
		c-2.4,0-4.5-1.9-4.5-4.4C-228.2-22.8-226.5-24.8-223.7-24.8z"/>
	<path id="path1145" class="st0" d="M-209.2-9.3v-31.8h7.8v11.8c0,0,1.9-2.6,5.8-2.6c4.8,0,7.6,3.5,7.6,8.6v13.9h-7.8v-12
		c0-1.7-0.8-3.4-2.7-3.4s-2.9,1.7-2.9,3.4v12L-209.2-9.3L-209.2-9.3z"/>
	<path id="path1147" class="st0" d="M-174.8-31.9c-7.4,0-11.8,5.6-11.8,11.6c0,6.8,5.3,11.5,11.8,11.5c6.3,0,11.8-4.5,11.8-11.4
		C-162.9-27.7-168.7-31.9-174.8-31.9z M-174.7-24.7c2.6,0,4.4,2.2,4.4,4.5c0,2-1.7,4.4-4.4,4.4c-2.5,0-4.4-2-4.4-4.4
		S-177.5-24.7-174.7-24.7z"/>
	<path id="path1153" class="st0" d="M-149.9-31.9c-7.4,0-11.8,5.6-11.8,11.6c0,6.8,5.3,11.5,11.8,11.5c6.3,0,11.8-4.5,11.8-11.4
		C-138.1-27.7-143.8-31.9-149.9-31.9z M-149.8-24.7c2.6,0,4.4,2.2,4.4,4.5c0,2-1.7,4.4-4.4,4.4c-2.5,0-4.4-2-4.4-4.4
		S-152.7-24.7-149.8-24.7z"/>
	<circle id="path1155" class="st0" cx="-131.9" cy="-14.1" r="5.2"/>
	<path id="path1157" class="st0" d="M-125-21.2h-9.4l8.3-20h9.3L-125-21.2z"/>
</g>
</svg>
